<svg width="134" height="14" viewBox="0 0 134 14" fill="none" xmlns="http://www.w3.org/2000/svg">
<circle opacity="0.4" cx="7" cy="6.99976" r="7" fill="#E96220"/>
<circle cx="7" cy="6.99976" r="3" fill="#E96220"/>
<path d="M133.5 7.00889L128.5 4.12149L128.5 9.89499L133.5 7.00889ZM7 7.49976C7.33238 7.49976 7.66375 7.49976 7.99417 7.49976L7.99418 6.49976C7.66376 6.49976 7.33239 6.49976 7 6.49976L7 7.49976ZM9.96567 7.49978C10.6292 7.49978 11.2893 7.49979 11.9464 7.49979L11.9464 6.49979C11.2893 6.49979 10.6292 6.49978 9.96567 6.49978L9.96567 7.49978ZM13.9213 7.49981C14.5817 7.49981 15.2395 7.49981 15.8954 7.49982L15.8954 6.49982C15.2395 6.49981 14.5817 6.49981 13.9213 6.49981L13.9213 7.49981ZM17.8736 7.49984C18.5334 7.49984 19.1916 7.49985 19.8489 7.49985L19.8489 6.49985C19.1917 6.49985 18.5334 6.49984 17.8736 6.49984L17.8736 7.49984ZM21.8244 7.49987C22.4835 7.49988 23.1421 7.49989 23.8008 7.49989L23.8008 6.49989C23.1421 6.49989 22.4835 6.49988 21.8244 6.49987L21.8244 7.49987ZM25.7764 7.49992C26.4347 7.49993 27.0937 7.49994 27.7538 7.49995L27.7538 6.49995C27.0937 6.49994 26.4348 6.49993 25.7764 6.49992L25.7764 7.49992ZM29.7281 7.49998C30.3848 7.5 31.0432 7.50001 31.7038 7.50002L31.7038 6.50002C31.0432 6.50001 30.3849 6.5 29.7281 6.49998L29.7281 7.49998ZM33.6832 7.50007C34.3378 7.50008 34.995 7.5001 35.6553 7.50011L35.6553 6.50011C34.995 6.5001 34.3379 6.50008 33.6833 6.50007L33.6832 7.50007ZM37.6315 7.50017C38.2879 7.50019 38.9478 7.50021 39.6116 7.50023L39.6116 6.50023C38.9478 6.50021 38.2879 6.50019 37.6315 6.50017L37.6315 7.50017ZM41.5821 7.5003C42.2373 7.50032 42.8967 7.50034 43.5607 7.50037L43.5607 6.50037C42.8967 6.50034 42.2374 6.50032 41.5822 6.5003L41.5821 7.5003ZM45.5374 7.50045C46.1898 7.50048 46.847 7.5005 47.5093 7.50053L47.5094 6.50053C46.8471 6.5005 46.1899 6.50048 45.5375 6.50045L45.5374 7.50045ZM49.4946 7.50063C50.145 7.50066 50.8005 7.50069 51.4615 7.50073L51.4616 6.50073C50.8005 6.50069 50.145 6.50066 49.4946 6.50063L49.4946 7.50063ZM53.4407 7.50083C54.0937 7.50087 54.7522 7.5009 55.4167 7.50094L55.4167 6.50094C54.7523 6.5009 54.0938 6.50087 53.4408 6.50083L53.4407 7.50083ZM57.3894 7.50106C58.0449 7.5011 58.7061 7.50114 59.3735 7.50119L59.3735 6.50119C58.7062 6.50114 58.0449 6.5011 57.3895 6.50106L57.3894 7.50106ZM61.34 7.50132C61.9974 7.50136 62.6607 7.50141 63.3304 7.50145L63.3304 6.50145C62.6608 6.50141 61.9974 6.50136 61.3401 6.50132L61.34 7.50132ZM65.2915 7.50159C65.9496 7.50164 66.6138 7.50169 67.2843 7.50174L67.2844 6.50174C66.6139 6.50169 65.9497 6.50164 65.2916 6.50159L65.2915 7.50159ZM69.2433 7.50189C69.9019 7.50194 70.5665 7.502 71.2374 7.50205L71.2375 6.50205C70.5666 6.502 69.9019 6.50194 69.2434 6.50189L69.2433 7.50189ZM73.1952 7.50221C73.8537 7.50227 74.5184 7.50232 75.1893 7.50238L75.1894 6.50238C74.5185 6.50232 73.8538 6.50227 73.1952 6.50221L73.1952 7.50221ZM77.1473 7.50255C77.8045 7.50261 78.4676 7.50267 79.1369 7.50273L79.137 6.50273C78.4677 6.50267 77.8046 6.50261 77.1474 6.50255L77.1473 7.50255ZM81.1008 7.50291C81.7557 7.50297 82.4163 7.50303 83.083 7.5031L83.0831 6.5031C82.4164 6.50303 81.7558 6.50297 81.1009 6.50291L81.1008 7.50291ZM85.0575 7.50329C85.7091 7.50335 86.3664 7.50341 87.0294 7.50348L87.0295 6.50348C86.3665 6.50341 85.7092 6.50335 85.0576 6.50329L85.0575 7.50329ZM89.0199 7.50368C89.6674 7.50374 90.3204 7.50381 90.9789 7.50388L90.979 6.50388C90.3205 6.50381 89.6675 6.50374 89.02 6.50368L89.0199 7.50368ZM92.9716 7.50408C93.6207 7.50415 94.2751 7.50422 94.935 7.50429L94.9351 6.50429C94.2752 6.50422 93.6208 6.50415 92.9717 6.50408L92.9716 7.50408ZM96.9111 7.5045C97.5693 7.50457 98.2328 7.50465 98.9018 7.50472L98.9019 6.50472C98.2329 6.50465 97.5694 6.50457 96.9113 6.5045L96.9111 7.5045ZM100.859 7.50493C101.517 7.50501 102.18 7.50508 102.848 7.50516L102.848 6.50516C102.18 6.50508 101.517 6.50501 100.859 6.50493L100.859 7.50493ZM104.821 7.50538C105.472 7.50545 106.127 7.50553 106.788 7.5056L106.788 6.5056C106.127 6.50553 105.472 6.50545 104.821 6.50538L104.821 7.50538ZM108.785 7.50584C109.434 7.50591 110.087 7.50599 110.745 7.50606L110.745 6.50606C110.087 6.50599 109.434 6.50591 108.785 6.50584L108.785 7.50584ZM112.718 7.5063C113.38 7.50638 114.047 7.50646 114.719 7.50654L114.72 6.50654C114.047 6.50646 113.38 6.50638 112.718 6.5063L112.718 7.5063ZM116.672 7.50677C117.326 7.50685 117.984 7.50693 118.647 7.50701L118.647 6.50701C117.984 6.50693 117.326 6.50685 116.673 6.50677L116.672 7.50677ZM120.649 7.50726C121.295 7.50734 121.946 7.50742 122.602 7.5075L122.602 6.5075C121.947 6.50742 121.295 6.50734 120.649 6.50726L120.649 7.50726ZM124.574 7.50775C125.236 7.50783 125.902 7.50791 126.573 7.508L126.573 6.508C125.902 6.50791 125.236 6.50783 124.574 6.50775L124.574 7.50775ZM128.534 7.50825C129.185 7.50833 129.841 7.50841 130.501 7.5085L130.501 6.5085C129.841 6.50842 129.186 6.50833 128.534 6.50825L128.534 7.50825Z" fill="#E96220"/>
</svg>
