<svg width="134" height="90" viewBox="0 0 134 90" fill="none" xmlns="http://www.w3.org/2000/svg">
<path d="M133.5 2.99976L128.493 0.125344L128.507 5.89883L133.5 2.99976ZM7.9993 82.0243C8.01676 81.6957 8.03824 81.3661 8.06375 81.0357L7.06672 80.9587C7.0406 81.2971 7.01859 81.6346 7.0007 81.9712L7.9993 82.0243ZM8.26497 79.0423C8.34632 78.3886 8.44301 77.7318 8.55499 77.0722L7.5691 76.9048C7.45468 77.5788 7.35583 78.2502 7.27263 78.9188L8.26497 79.0423ZM8.93307 75.1025C9.07124 74.4568 9.22378 73.8088 9.39063 73.1588L8.42204 72.9102C8.25188 73.573 8.09624 74.2342 7.9552 74.8933L8.93307 75.1025ZM9.92604 71.2304C10.1159 70.5945 10.3192 69.9569 10.536 69.3182L9.58904 68.9968C9.36833 69.6471 9.16123 70.2964 8.96781 70.9444L9.92604 71.2304ZM11.2114 67.4389C11.4478 66.8157 11.697 66.1916 11.9587 65.567L11.0364 65.1805C10.7703 65.8155 10.517 66.4502 10.2764 67.0842L11.2114 67.4389ZM12.7588 63.7416C13.0363 63.1353 13.3256 62.5287 13.6267 61.9222L12.731 61.4776C12.4253 62.0934 12.1315 62.7095 11.8495 63.3254L12.7588 63.7416ZM14.5411 60.1479C14.8553 59.5599 15.1805 58.9723 15.5166 58.385L14.6488 57.8882C14.3079 58.4838 13.9779 59.08 13.6591 59.6766L14.5411 60.1479ZM16.5343 56.664C16.8816 56.0948 17.2393 55.5263 17.6072 54.9586L16.7681 54.4147C16.3953 54.9899 16.0328 55.5661 15.6807 56.1431L16.5343 56.664ZM18.7175 53.2939C19.0951 52.7435 19.4823 52.1942 19.8792 51.646L19.0692 51.0596C18.6674 51.6145 18.2753 52.1708 17.8929 52.7283L18.7175 53.2939ZM21.0726 50.04C21.4778 49.5082 21.8923 48.9779 22.3158 48.4491L21.5352 47.824C21.1068 48.359 20.6874 48.8956 20.2772 49.4338L21.0726 50.04ZM23.5837 46.9031C24.0146 46.3898 24.4542 45.8783 24.9024 45.3685L24.1514 44.7082C23.6982 45.2236 23.2537 45.741 22.8178 46.2601L23.5837 46.9031ZM26.2372 43.8836C26.6903 43.3905 27.1515 42.8993 27.6209 42.4102L26.8993 41.7178C26.425 42.2121 25.9588 42.7086 25.5008 43.207L26.2372 43.8836ZM29.0212 40.9812C29.4938 40.5089 29.974 40.0386 30.462 39.5707L29.7698 38.849C29.2769 39.3217 28.7917 39.7967 28.3143 40.2739L29.0212 40.9812ZM31.9252 38.1952C32.4153 37.7437 32.9126 37.2944 33.4171 36.8476L32.7541 36.099C32.2447 36.5501 31.7425 37.0038 31.2476 37.4598L31.9252 38.1952ZM34.9403 35.5246C35.446 35.0939 35.9585 34.6656 36.4778 34.2398L35.8438 33.4665C35.3196 33.8962 34.8023 34.3286 34.2918 34.7634L34.9403 35.5246ZM38.0561 32.9703C38.5764 32.5597 39.1033 32.1516 39.6365 31.7461L39.0313 30.9501C38.4933 31.3591 37.9617 31.7709 37.4366 32.1853L38.0561 32.9703ZM41.2532 30.5398C41.7915 30.1455 42.336 29.754 42.8867 29.3652L42.3101 28.5482C41.7546 28.9403 41.2053 29.3353 40.6623 29.733L41.2532 30.5398ZM44.5373 28.2214C45.0931 27.8433 45.6548 27.4681 46.2226 27.0959L45.6743 26.2596C45.1018 26.6349 44.5353 27.0133 43.9748 27.3946L44.5373 28.2214ZM47.9031 26.0139C48.469 25.6562 49.0405 25.3013 49.6178 24.9496L49.0974 24.0956C48.5155 24.4503 47.9392 24.808 47.3687 25.1686L47.9031 26.0139ZM51.3456 23.9159C51.9199 23.5785 52.4995 23.2442 53.0846 22.913L52.5919 22.0428C52.0022 22.3766 51.418 22.7136 50.8391 23.0536L51.3456 23.9159ZM54.8558 21.9286C55.4389 21.6105 56.0271 21.2955 56.6205 20.9836L56.1552 20.0985C55.5573 20.4127 54.9645 20.7302 54.3769 21.0507L54.8558 21.9286ZM58.4107 20.06C59.0095 19.7569 59.6133 19.4569 60.222 19.1602L59.7839 18.2613C59.1706 18.5602 58.5623 18.8624 57.9591 19.1678L58.4107 20.06ZM62.0283 18.2964C62.6352 18.0116 63.2468 17.7301 63.8633 17.4518L63.4519 16.5404C62.831 16.8206 62.2148 17.1042 61.6035 17.3911L62.0283 18.2964ZM65.7056 16.6364C66.3166 16.3712 66.9321 16.1093 67.5521 15.8506L67.1671 14.9277C66.5427 15.1882 65.9228 15.452 65.3075 15.719L65.7056 16.6364ZM69.4257 15.0846C70.0446 14.8367 70.668 14.592 71.2956 14.3506L70.9367 13.4173C70.3047 13.6603 69.6771 13.9067 69.0538 14.1563L69.4257 15.0846ZM73.1765 13.6423C73.8077 13.4095 74.4432 13.18 75.083 12.954L74.7499 12.0111C74.1058 12.2387 73.466 12.4697 72.8305 12.7041L73.1765 13.6423ZM76.9778 12.2989C77.6104 12.0849 78.247 11.8742 78.8877 11.6669L78.5798 10.7155C77.935 10.9241 77.2941 11.1362 76.6573 11.3516L76.9778 12.2989ZM80.8217 11.0553C81.457 10.859 82.0962 10.666 82.7393 10.4764L82.4565 9.51724C81.8093 9.70807 81.166 9.90231 80.5265 10.0999L80.8217 11.0553ZM84.6731 9.91968C85.3215 9.7375 85.9737 9.55873 86.6296 9.38344L86.3715 8.41734C85.7114 8.59373 85.0551 8.77362 84.4026 8.95696L84.6731 9.91968ZM88.5685 8.87831C89.2159 8.71395 89.8669 8.55296 90.5214 8.39539L90.2874 7.42316C89.6288 7.5817 88.9738 7.74368 88.3224 7.90906L88.5685 8.87831ZM92.4958 7.933C93.1455 7.78509 93.7985 7.64053 94.455 7.49938L94.2448 6.52172C93.5844 6.66372 92.9274 6.80915 92.2738 6.95796L92.4958 7.933ZM96.4226 7.08866C97.0818 6.95515 97.7445 6.82506 98.4105 6.69844L98.2237 5.71604C97.5538 5.8434 96.8873 5.97426 96.2241 6.10855L96.4226 7.08866ZM100.39 6.3342C101.046 6.21741 101.705 6.10396 102.368 5.99392L102.204 5.00744C101.537 5.11811 100.874 5.23221 100.214 5.34967L100.39 6.3342ZM104.365 5.67404C105.028 5.57171 105.694 5.47278 106.364 5.37728L106.223 4.3873C105.55 4.48333 104.879 4.58283 104.212 4.68573L104.365 5.67404ZM108.349 5.10552C109.013 5.01829 109.681 4.93444 110.351 4.854L110.232 3.86112C109.558 3.942 108.887 4.02632 108.218 4.11403L108.349 5.10552ZM112.371 4.62303C113.031 4.5513 113.693 4.48286 114.358 4.41776L114.261 3.42251C113.592 3.48797 112.926 3.55677 112.263 3.62889L112.371 4.62303ZM116.363 4.23249C117.034 4.17409 117.707 4.11907 118.384 4.06746L118.308 3.07036C117.628 3.12224 116.95 3.17755 116.276 3.23625L116.363 4.23249ZM120.391 3.92496C121.056 3.88126 121.724 3.84084 122.394 3.80375L122.339 2.80528C121.665 2.84256 120.994 2.88319 120.326 2.92712L120.391 3.92496ZM124.412 3.70248C125.086 3.67215 125.763 3.64516 126.442 3.62156L126.407 2.62217C125.725 2.64588 125.045 2.67301 124.367 2.70349L124.412 3.70248ZM128.44 3.56213C129.108 3.54557 129.779 3.53228 130.453 3.52229L130.438 2.5224C129.761 2.53244 129.087 2.5458 128.415 2.56244L128.44 3.56213Z" fill="#E96220"/>
<circle opacity="0.4" cx="7" cy="83" r="7" fill="#E96220"/>
<circle cx="7" cy="83" r="3" fill="#E96220"/>
</svg>
