<svg width="72" height="65" viewBox="0 0 72 65" fill="none" xmlns="http://www.w3.org/2000/svg">
<g clip-path="url(#clip0_511_272)">
<path d="M69.3079 5.7171C67.8211 5.7171 66.6159 4.50057 66.6159 2.99991C66.6159 1.49925 67.8211 0.282715 69.3079 0.282715C70.7946 0.282715 71.9999 1.49925 71.9999 2.99991C71.9999 4.50057 70.7946 5.7171 69.3079 5.7171Z" fill="#245EE6"/>
<path d="M35.9999 5.7171C34.5132 5.7171 33.3079 4.50057 33.3079 2.99991C33.3079 1.49925 34.5132 0.282715 35.9999 0.282715C37.4867 0.282715 38.6919 1.49925 38.6919 2.99991C38.6919 4.50057 37.4867 5.7171 35.9999 5.7171Z" fill="#245EE6"/>
<path d="M-6.00477e-05 3.0222C-4.18325e-05 3.56056 0.158449 4.08681 0.455244 4.53412C0.752039 4.98143 1.1737 5.32962 1.6669 5.5346C2.16009 5.73958 2.70257 5.79211 3.22536 5.68543C3.74815 5.57876 4.22778 5.31769 4.60336 4.93543C4.97894 4.55318 5.23351 4.06692 5.33486 3.53837C5.4362 3.00981 5.37975 2.46278 5.17259 1.96669C4.96542 1.47059 4.61688 1.04783 4.17127 0.751981C3.72566 0.45613 3.20306 0.300575 2.66971 0.305024C2.31723 0.305012 1.96823 0.375436 1.64286 0.512261C1.3175 0.649086 1.02214 0.84956 0.773943 1.10217C0.525742 1.35479 0.329551 1.65456 0.1967 1.98409C0.0638483 2.31363 -0.00299734 2.66643 -6.00477e-05 3.0222V3.0222Z" fill="#245EE6"/>
<path d="M69.3078 34.9998C67.821 34.9998 66.6158 33.7833 66.6158 32.2826C66.6158 30.782 67.821 29.5654 69.3078 29.5654C70.7945 29.5654 71.9998 30.782 71.9998 32.2826C71.9998 33.7833 70.7945 34.9998 69.3078 34.9998Z" fill="#245EE6"/>
<path d="M35.9998 34.9998C34.513 34.9998 33.3078 33.7833 33.3078 32.2826C33.3078 30.782 34.513 29.5654 35.9998 29.5654C37.4865 29.5654 38.6918 30.782 38.6918 32.2826C38.6918 33.7833 37.4865 34.9998 35.9998 34.9998Z" fill="#245EE6"/>
<path d="M-3.11317e-05 32.2827C-0.00442884 32.822 0.150174 33.3504 0.444274 33.8007C0.738374 34.251 1.15865 34.6027 1.65145 34.8112C2.14424 35.0196 2.68728 35.0753 3.21154 34.9712C3.7358 34.8671 4.21756 34.6078 4.59538 34.2265C4.97319 33.8451 5.22996 33.3589 5.33312 32.8297C5.43628 32.3005 5.38116 31.7524 5.17466 31.255C4.96815 30.7576 4.6197 30.3334 4.17361 30.0366C3.72752 29.7397 3.20403 29.5835 2.66974 29.588C1.96348 29.5939 1.28778 29.8797 0.788366 30.3838C0.288947 30.8879 0.00578201 31.5699 -3.11317e-05 32.2827V32.2827Z" fill="#245EE6"/>
<path d="M66.6157 61.5655C66.6157 62.1029 66.7736 62.6283 67.0694 63.0751C67.3652 63.5219 67.7856 63.8702 68.2775 64.0759C68.7694 64.2815 69.3107 64.3353 69.8329 64.2305C70.3551 64.1256 70.8348 63.8668 71.2113 63.4868C71.5877 63.1068 71.8442 62.6227 71.9481 62.0956C72.0519 61.5685 71.9985 61.0222 71.7948 60.5257C71.591 60.0292 71.246 59.6048 70.8033 59.3062C70.3607 59.0076 69.8402 58.8483 69.3078 58.8483C68.9542 58.8483 68.6041 58.9185 68.2775 59.0551C67.9509 59.1916 67.6542 59.3918 67.4043 59.6441C67.1543 59.8964 66.9559 60.196 66.8206 60.5257C66.6853 60.8554 66.6157 61.2087 66.6157 61.5655V61.5655Z" fill="#245EE6"/>
<path d="M33.3078 61.5655C33.3078 62.1029 33.4657 62.6283 33.7615 63.0751C34.0573 63.5219 34.4777 63.8702 34.9696 64.0759C35.4615 64.2815 36.0028 64.3353 36.525 64.2305C37.0472 64.1256 37.5269 63.8668 37.9034 63.4868C38.2799 63.1068 38.5362 62.6227 38.64 62.0956C38.7439 61.5685 38.6906 61.0222 38.4869 60.5257C38.2831 60.0292 37.9382 59.6048 37.4955 59.3062C37.0528 59.0076 36.5323 58.8483 35.9999 58.8483C35.2859 58.8483 34.6012 59.1345 34.0964 59.6441C33.5915 60.1537 33.3078 60.8449 33.3078 61.5655Z" fill="#245EE6"/>
<path d="M-6.00477e-05 61.5654C-4.18325e-05 62.1037 0.158449 62.6299 0.455244 63.0772C0.752039 63.5245 1.1737 63.8728 1.6669 64.0778C2.16009 64.2827 2.70257 64.3352 3.22536 64.2285C3.74815 64.1219 4.22778 63.8609 4.60336 63.4786C4.97894 63.0963 5.23351 62.6101 5.33486 62.0815C5.4362 61.553 5.37975 61.0059 5.17259 60.5098C4.96542 60.0138 4.61688 59.591 4.17127 59.2951C3.72566 58.9993 3.20306 58.8437 2.66971 58.8481C2.31723 58.8481 1.96823 58.9186 1.64286 59.0554C1.3175 59.1922 1.02214 59.3927 0.773943 59.6453C0.525742 59.8979 0.329551 60.1977 0.1967 60.5272C0.0638483 60.8567 -0.00299734 61.2096 -6.00477e-05 61.5654V61.5654Z" fill="#245EE6"/>
</g>
<defs>
<clipPath id="clip0_511_272">
<rect width="72" height="64" fill="white" transform="translate(-0.00012207 0.282715)"/>
</clipPath>
</defs>
</svg>
