<svg width="564" height="710" viewBox="0 0 564 710" fill="none" xmlns="http://www.w3.org/2000/svg">
<mask id="mask0_507_247" style="mask-type:alpha" maskUnits="userSpaceOnUse" x="0" y="0" width="564" height="710">
<rect width="564" height="710" fill="#FAF0F0" fill-opacity="0.6"/>
</mask>
<g mask="url(#mask0_507_247)">
<path fill-rule="evenodd" clip-rule="evenodd" d="M863.986 170.216C863.986 170.215 863.987 170.214 864.421 170.461C864.856 170.708 864.856 170.709 864.855 170.711L864.85 170.719L864.832 170.75L864.763 170.871C864.701 170.978 864.608 171.136 864.485 171.346C864.238 171.765 863.867 172.386 863.37 173.198C862.377 174.822 860.879 177.21 858.86 180.268C854.821 186.383 848.697 195.179 840.35 205.911C823.656 227.375 798.067 256.582 762.483 287.57C691.313 349.547 580.159 418.645 420.219 447.156C260.538 475.622 168.84 563.382 137.654 671.975C106.46 780.597 135.781 910.172 218.382 1022.29L217.576 1022.88C134.836 910.575 105.395 780.684 136.693 671.699C168 562.684 260.048 474.694 420.043 446.172C579.778 417.697 690.77 348.693 761.826 286.816C797.355 255.876 822.9 226.717 839.561 205.297C847.891 194.587 854 185.812 858.025 179.717C860.038 176.669 861.53 174.291 862.517 172.676C863.011 171.869 863.379 171.252 863.624 170.838C863.746 170.631 863.837 170.474 863.897 170.37C863.927 170.318 863.95 170.279 863.965 170.253L863.982 170.223L863.986 170.216Z" fill="black"/>
<path fill-rule="evenodd" clip-rule="evenodd" d="M848.548 309.356C848.548 309.355 848.548 309.355 849.02 309.519C849.493 309.683 849.492 309.684 849.492 309.685L849.49 309.692L849.481 309.717L849.447 309.813C849.416 309.898 849.371 310.025 849.31 310.192C849.188 310.526 849.005 311.02 848.757 311.666C848.262 312.957 847.511 314.853 846.485 317.277C844.434 322.125 841.283 329.083 836.883 337.536C828.084 354.439 814.287 377.321 794.293 401.239C754.302 449.078 689.513 501.068 590.345 517.655C577.683 519.773 564.849 521.792 551.939 523.824C514.34 529.741 476.087 535.761 439.498 544.613C390.353 556.504 344.272 573.494 306.912 602.164C232.252 659.459 192.228 763.563 232.672 967.574L231.691 967.769C191.213 763.59 231.205 659.002 306.303 601.371C343.823 572.579 390.057 555.547 439.263 543.641C475.895 534.778 514.207 528.749 551.817 522.831C564.719 520.8 577.539 518.783 590.18 516.669C689.06 500.13 753.65 448.299 793.526 400.597C813.465 376.745 827.224 353.927 835.996 337.074C840.383 328.647 843.522 321.713 845.564 316.887C846.586 314.475 847.332 312.589 847.823 311.308C848.069 310.667 848.25 310.178 848.37 309.849C848.43 309.685 848.475 309.56 848.505 309.478L848.538 309.385L848.548 309.356Z" fill="black"/>
<path fill-rule="evenodd" clip-rule="evenodd" d="M463.816 291.667C418.59 369.915 336.005 423.628 195.663 461.891C125.661 480.977 85.3636 520.022 64.2382 567.92C43.1009 615.845 41.136 672.683 47.9169 727.36C54.697 782.031 70.2144 834.492 83.9925 873.63C90.881 893.198 97.3336 909.432 102.04 920.944C103.217 923.822 104.285 926.405 105.223 928.672L105.604 929.593C106.381 931.471 107.061 933.112 107.629 934.502C108.287 936.113 108.798 937.392 109.139 938.312C109.309 938.771 109.44 939.149 109.525 939.438C109.568 939.582 109.602 939.712 109.623 939.823C109.642 939.919 109.664 940.056 109.645 940.188L108.655 940.046C108.652 940.067 108.652 940.08 108.652 940.08C108.652 940.08 108.651 940.061 108.642 940.015C108.629 939.947 108.605 939.851 108.566 939.722C108.49 939.465 108.369 939.111 108.201 938.659C107.867 937.756 107.361 936.491 106.703 934.88C106.139 933.499 105.464 931.868 104.69 930.001L104.299 929.055C103.361 926.788 102.292 924.203 101.115 921.323C96.4043 909.801 89.9452 893.551 83.0493 873.962C69.2587 834.788 53.7169 782.253 46.9245 727.484C40.133 672.721 42.0825 615.676 63.3232 567.516C84.5758 519.33 125.12 480.088 195.4 460.926C335.623 422.695 417.913 369.088 462.95 291.166C508.002 213.219 515.842 110.84 506.902 -25.0987L507.9 -25.1643C516.841 110.799 509.028 213.443 463.816 291.667Z" fill="black"/>
</g>
</svg>
