<svg width="666" height="710" viewBox="0 0 666 710" fill="none" xmlns="http://www.w3.org/2000/svg">
<mask id="mask0_507_239" style="mask-type:alpha" maskUnits="userSpaceOnUse" x="0" y="0" width="666" height="710">
<rect width="666" height="710" fill="#FAF0F0" fill-opacity="0.6"/>
</mask>
<g mask="url(#mask0_507_239)">
<path fill-rule="evenodd" clip-rule="evenodd" d="M903.633 1349.67C903.634 1349.67 903.635 1349.67 904.12 1349.55C904.606 1349.43 904.605 1349.43 904.604 1349.43L904.601 1349.41L904.585 1349.35C904.572 1349.3 904.551 1349.22 904.524 1349.11C904.47 1348.89 904.387 1348.57 904.276 1348.15C904.054 1347.3 903.717 1346.04 903.254 1344.39C902.329 1341.08 900.905 1336.2 898.904 1329.89C894.904 1317.29 888.601 1298.99 879.388 1276.24C860.964 1230.74 830.902 1167.4 784.349 1096.05C691.242 953.337 532.168 778.552 268.305 650.237C4.6788 522.037 -111.528 324.187 -112.136 119.898C-112.743 -84.422 2.28341 -295.297 201.363 -449.499L200.751 -450.29C1.48466 -295.943 -113.744 -84.797 -113.136 119.901C-112.527 324.63 3.9536 522.796 267.867 651.136C531.543 779.36 690.487 954.01 783.512 1096.6C830.025 1167.89 860.058 1231.17 878.462 1276.62C887.663 1299.34 893.958 1317.61 897.951 1330.2C899.948 1336.49 901.369 1341.36 902.291 1344.66C902.752 1346.31 903.088 1347.56 903.309 1348.4C903.419 1348.82 903.501 1349.14 903.555 1349.35C903.582 1349.46 903.602 1349.54 903.615 1349.59L903.63 1349.65L903.633 1349.67Z" fill="black"/>
<path fill-rule="evenodd" clip-rule="evenodd" d="M923.323 1174.87C923.323 1174.87 923.323 1174.87 923.823 1174.85C924.322 1174.82 924.322 1174.82 924.321 1174.81L924.321 1174.8L924.318 1174.75C924.315 1174.71 924.312 1174.65 924.306 1174.57C924.296 1174.41 924.279 1174.17 924.256 1173.85C924.209 1173.21 924.135 1172.26 924.024 1171.02C923.803 1168.54 923.436 1164.87 922.851 1160.16C921.683 1150.73 919.648 1137.09 916.181 1120.24C909.245 1086.54 896.579 1039.99 873.652 988.589C827.797 885.79 740.895 763.587 576.724 685.999C555.778 676.1 534.482 666.285 513.056 656.411C450.562 627.609 386.958 598.295 327.658 564.87C248.034 519.988 176.227 467.723 125.37 399.401C23.7033 262.819 5.62739 61.8622 176.904 -273.113L176.013 -273.568C4.65918 61.5592 22.5709 262.973 124.568 399.998C175.544 468.481 247.488 520.829 327.167 565.741C386.506 599.188 450.164 628.527 512.668 657.333C534.087 667.205 555.37 677.013 576.297 686.904C740.203 764.366 826.957 886.361 872.739 988.996C895.63 1040.32 908.277 1086.79 915.201 1120.44C918.663 1137.26 920.694 1150.88 921.859 1160.28C922.442 1164.98 922.808 1168.64 923.028 1171.11C923.139 1172.35 923.212 1173.29 923.259 1173.92C923.282 1174.24 923.298 1174.48 923.308 1174.64C923.314 1174.72 923.317 1174.78 923.32 1174.82L923.323 1174.87Z" fill="black"/>
<path fill-rule="evenodd" clip-rule="evenodd" d="M147.054 768.141C107.021 609.969 -10.0068 475.937 -235.102 340.193C-347.513 272.403 -406.274 183.948 -431.192 89.2484C-456.114 -5.46825 -447.188 -106.468 -424.153 -199.337C-401.118 -292.202 -363.983 -376.904 -332.52 -439.006C-316.79 -470.055 -302.479 -495.453 -292.06 -513.394C-288.222 -520.003 -284.913 -525.598 -282.254 -530.094C-281.303 -531.702 -280.436 -533.169 -279.657 -534.491C-278.179 -537 -277.019 -538.992 -276.218 -540.433C-275.818 -541.154 -275.504 -541.743 -275.283 -542.193C-275.174 -542.418 -275.084 -542.615 -275.018 -542.779C-274.957 -542.933 -274.901 -543.095 -274.883 -543.236L-275.874 -543.368C-275.874 -543.368 -275.877 -543.35 -275.89 -543.308C-275.896 -543.288 -275.904 -543.264 -275.914 -543.237C-275.923 -543.211 -275.934 -543.182 -275.947 -543.15C-276 -543.018 -276.078 -542.846 -276.182 -542.632C-276.391 -542.205 -276.695 -541.634 -277.092 -540.919C-277.886 -539.49 -279.041 -537.508 -280.518 -534.999C-281.297 -533.678 -282.164 -532.211 -283.115 -530.603C-285.773 -526.108 -289.085 -520.507 -292.924 -513.896C-303.35 -495.944 -317.671 -470.529 -333.412 -439.458C-364.894 -377.317 -402.064 -292.542 -425.123 -199.577C-448.182 -106.616 -457.139 -5.43377 -432.159 89.5029C-407.175 184.456 -348.25 273.126 -235.618 341.049C-10.6283 476.73 106.144 610.58 146.085 768.387C186.032 926.221 149.155 1108.14 66.5473 1340.03L67.4893 1340.37C150.105 1108.45 187.08 926.286 147.054 768.141Z" fill="black"/>
</g>
</svg>
