<svg width="422" height="936" viewBox="0 0 422 936" fill="none" xmlns="http://www.w3.org/2000/svg">
<mask id="mask0_720_264" style="mask-type:alpha" maskUnits="userSpaceOnUse" x="0" y="0" width="422" height="936">
<rect width="422" height="936" fill="white"/>
</mask>
<g mask="url(#mask0_720_264)">
<path d="M-80.64 832.01C-59.79 838.39 -43.79 852.01 -28.64 867.19C-14.08 881.77 0.360001 897.13 19.36 906C58.45 924.29 104.36 915 142.65 899.34C185.43 881.82 225.65 855.46 271.88 847.77C294.56 844 318.88 845.77 338.59 858.48C354.96 868.97 363.84 885.6 367.53 904.28C369.63 914.9 370.35 925.69 370.92 936.48H375.87C375.71 933.42 375.55 930.37 375.33 927.32C374.03 909.6 371.63 891.27 362.3 875.8C351.75 858.23 333.04 847.08 313.24 843.02C289.07 838.07 264.01 842.79 240.94 850.46C218.71 857.84 197.67 868.27 176.6 878.41C136.4 897.76 91.85 917.41 46.12 909.24C35.398 907.396 25.0633 903.758 15.55 898.48C6.2 893.21 -2.04 886.28 -9.8 878.91C-24.95 864.49 -38.7 848.09 -56.82 837.18C-75.7923 825.85 -97.9201 820.96 -119.9 823.24H-120V828.3C-106.764 826.85 -93.3717 828.112 -80.64 832.01V832.01Z" fill="#E96220"/>
<path d="M-54.06 907.51C-6.22001 925.38 46.46 908.51 82.23 891.19C100.64 882.29 118.57 871.72 135.91 861.5C158.36 848.27 181.58 834.6 206 824.42C229.83 814.49 290.31 794.74 337 825.64C363.84 843.42 382.5 876.22 392.46 923.13C393.39 927.54 394.24 932.01 395.06 936.48H396.06C395.23 931.94 394.37 927.41 393.42 922.92C383.42 875.75 364.6 842.74 337.53 824.81C290.46 793.64 229.6 813.51 205.62 823.5C181.14 833.7 157.89 847.39 135.42 860.64C118.09 870.85 100.18 881.4 81.81 890.29C46.21 907.52 -6.19001 924.29 -53.7 906.58C-70.63 900.25 -86.08 889.81 -101.01 879.71C-107.23 875.5 -113.54 871.25 -120.01 867.26V868.43C-113.75 872.32 -107.64 876.43 -101.59 880.54C-86.6 890.67 -71.11 901.15 -54.06 907.51Z" fill="#C4C4C4"/>
<path opacity="0.63" d="M-7.73742 306.508L-37.5623 335.83L-25.9601 347.242L15.4505 306.508L-25.9601 265.774L-37.5623 277.17L-7.73742 306.508Z" stroke="#0E9944" stroke-width="0.67" stroke-miterlimit="10"/>
<path opacity="0.56" d="M16.0405 306.508L-13.7679 335.83L-2.18215 347.242L39.2285 306.508L-2.18215 265.774L-13.7679 277.17L16.0405 306.508Z" stroke="#0E9944" stroke-width="0.67" stroke-miterlimit="10"/>
<path opacity="0.5" d="M39.8185 306.508L9.99365 335.83L21.5958 347.242L63.0064 306.508L21.5958 265.774L9.99365 277.17L39.8185 306.508Z" stroke="#0E9944" stroke-width="0.67" stroke-miterlimit="10"/>
<path opacity="0.44" d="M63.5963 306.508L33.7715 335.83L45.3737 347.242L86.7843 306.508L45.3737 265.774L33.7715 277.17L63.5963 306.508Z" stroke="#0E9944" stroke-width="0.67" stroke-miterlimit="10"/>
<path opacity="0.38" d="M87.3742 306.508L57.5494 335.83L69.1516 347.242L110.562 306.508L69.1516 265.774L57.5494 277.17L87.3742 306.508Z" stroke="#0E9944" stroke-width="0.67" stroke-miterlimit="10"/>
<path opacity="0.31" d="M111.152 306.508L81.3274 335.83L92.9296 347.242L134.34 306.508L92.9296 265.774L81.3274 277.17L111.152 306.508Z" stroke="#0E9944" stroke-width="0.67" stroke-miterlimit="10"/>
<path opacity="0.25" d="M134.93 306.508L105.105 335.83L116.707 347.242L158.118 306.508L116.707 265.774L105.105 277.17L134.93 306.508Z" stroke="#0E9944" stroke-width="0.67" stroke-miterlimit="10"/>
<path opacity="0.19" d="M158.708 306.508L128.883 335.83L140.485 347.242L181.88 306.508L140.485 265.774L128.883 277.17L158.708 306.508Z" stroke="#0E9944" stroke-width="0.67" stroke-miterlimit="10"/>
<path opacity="0.13" d="M182.486 306.508L152.661 335.83L164.263 347.242L205.658 306.508L164.263 265.774L152.661 277.17L182.486 306.508Z" stroke="#0E9944" stroke-width="0.67" stroke-miterlimit="10"/>
<path opacity="0.06" d="M206.264 306.508L176.439 335.83L188.025 347.242L229.436 306.508L188.025 265.774L176.439 277.17L206.264 306.508Z" stroke="#0E9944" stroke-width="0.67" stroke-miterlimit="10"/>
<path d="M182.613 547.226C183.504 547.226 184.226 546.504 184.226 545.613C184.226 544.722 183.504 544 182.613 544C181.722 544 181 544.722 181 545.613C181 546.504 181.722 547.226 182.613 547.226Z" fill="#0E9944"/>
<path d="M205.96 547.226C206.85 547.226 207.572 546.504 207.572 545.613C207.572 544.722 206.85 544 205.96 544C205.069 544 204.347 544.722 204.347 545.613C204.347 546.504 205.069 547.226 205.96 547.226Z" fill="#E8524A"/>
<path d="M229.306 547.226C230.197 547.226 230.919 546.504 230.919 545.613C230.919 544.722 230.197 544 229.306 544C228.416 544 227.694 544.722 227.694 545.613C227.694 546.504 228.416 547.226 229.306 547.226Z" fill="#E8524A"/>
<path d="M252.653 547.226C253.544 547.226 254.266 546.504 254.266 545.613C254.266 544.722 253.544 544 252.653 544C251.762 544 251.04 544.722 251.04 545.613C251.04 546.504 251.762 547.226 252.653 547.226Z" fill="#0E9944"/>
<path d="M276 547.226C276.891 547.226 277.613 546.504 277.613 545.613C277.613 544.722 276.891 544 276 544C275.109 544 274.387 544.722 274.387 545.613C274.387 546.504 275.109 547.226 276 547.226Z" fill="#E8524A"/>
<path d="M299.347 547.226C300.237 547.226 300.96 546.504 300.96 545.613C300.96 544.722 300.237 544 299.347 544C298.456 544 297.734 544.722 297.734 545.613C297.734 546.504 298.456 547.226 299.347 547.226Z" fill="#E8524A"/>
<path d="M324.32 545.613C324.32 545.932 324.225 546.244 324.048 546.509C323.871 546.774 323.619 546.981 323.324 547.103C323.029 547.225 322.705 547.257 322.392 547.195C322.079 547.133 321.792 546.979 321.566 546.754C321.341 546.528 321.187 546.241 321.125 545.928C321.063 545.615 321.095 545.29 321.217 544.996C321.339 544.701 321.546 544.449 321.811 544.272C322.076 544.095 322.388 544 322.707 544C323.135 544 323.545 544.17 323.847 544.472C324.15 544.775 324.32 545.185 324.32 545.613Z" fill="#E8524A"/>
<path d="M346.04 547.226C346.931 547.226 347.653 546.504 347.653 545.613C347.653 544.722 346.931 544 346.04 544C345.15 544 344.427 544.722 344.427 545.613C344.427 546.504 345.15 547.226 346.04 547.226Z" fill="#E8524A"/>
<path d="M369.387 547.226C370.278 547.226 371 546.504 371 545.613C371 544.722 370.278 544 369.387 544C368.496 544 367.774 544.722 367.774 545.613C367.774 546.504 368.496 547.226 369.387 547.226Z" fill="#E8524A"/>
<path d="M182.613 562.919C183.504 562.919 184.226 562.197 184.226 561.306C184.226 560.416 183.504 559.693 182.613 559.693C181.722 559.693 181 560.416 181 561.306C181 562.197 181.722 562.919 182.613 562.919Z" fill="#E8524A"/>
<path d="M205.96 562.919C206.85 562.919 207.572 562.197 207.572 561.306C207.572 560.416 206.85 559.693 205.96 559.693C205.069 559.693 204.347 560.416 204.347 561.306C204.347 562.197 205.069 562.919 205.96 562.919Z" fill="#E8524A"/>
<path d="M229.306 562.919C230.197 562.919 230.919 562.197 230.919 561.306C230.919 560.416 230.197 559.693 229.306 559.693C228.416 559.693 227.694 560.416 227.694 561.306C227.694 562.197 228.416 562.919 229.306 562.919Z" fill="#E8524A"/>
<path d="M252.653 562.919C253.544 562.919 254.266 562.197 254.266 561.306C254.266 560.416 253.544 559.693 252.653 559.693C251.762 559.693 251.04 560.416 251.04 561.306C251.04 562.197 251.762 562.919 252.653 562.919Z" fill="#E8524A"/>
<path d="M276 562.919C276.891 562.919 277.613 562.197 277.613 561.306C277.613 560.416 276.891 559.693 276 559.693C275.109 559.693 274.387 560.416 274.387 561.306C274.387 562.197 275.109 562.919 276 562.919Z" fill="#E8524A"/>
<path d="M299.347 562.919C300.237 562.919 300.96 562.197 300.96 561.306C300.96 560.416 300.237 559.693 299.347 559.693C298.456 559.693 297.734 560.416 297.734 561.306C297.734 562.197 298.456 562.919 299.347 562.919Z" fill="#0E9944"/>
<path d="M324.32 561.306C324.32 561.625 324.225 561.937 324.048 562.202C323.871 562.468 323.619 562.674 323.324 562.797C323.029 562.919 322.705 562.951 322.392 562.888C322.079 562.826 321.792 562.672 321.566 562.447C321.341 562.221 321.187 561.934 321.125 561.621C321.063 561.308 321.095 560.984 321.217 560.689C321.339 560.394 321.546 560.142 321.811 559.965C322.076 559.788 322.388 559.693 322.707 559.693C323.135 559.693 323.545 559.863 323.847 560.166C324.15 560.468 324.32 560.879 324.32 561.306Z" fill="#E8524A"/>
<path d="M346.04 562.919C346.931 562.919 347.653 562.197 347.653 561.306C347.653 560.416 346.931 559.693 346.04 559.693C345.15 559.693 344.427 560.416 344.427 561.306C344.427 562.197 345.15 562.919 346.04 562.919Z" fill="#E8524A"/>
<path d="M369.387 562.919C370.278 562.919 371 562.197 371 561.306C371 560.416 370.278 559.693 369.387 559.693C368.496 559.693 367.774 560.416 367.774 561.306C367.774 562.197 368.496 562.919 369.387 562.919Z" fill="#0E9944"/>
<path d="M182.613 578.613C183.504 578.613 184.226 577.891 184.226 577C184.226 576.109 183.504 575.387 182.613 575.387C181.722 575.387 181 576.109 181 577C181 577.891 181.722 578.613 182.613 578.613Z" fill="#E8524A"/>
<path d="M205.96 578.613C206.85 578.613 207.572 577.891 207.572 577C207.572 576.109 206.85 575.387 205.96 575.387C205.069 575.387 204.347 576.109 204.347 577C204.347 577.891 205.069 578.613 205.96 578.613Z" fill="#0E9944"/>
<path d="M229.306 578.613C230.197 578.613 230.919 577.891 230.919 577C230.919 576.109 230.197 575.387 229.306 575.387C228.416 575.387 227.694 576.109 227.694 577C227.694 577.891 228.416 578.613 229.306 578.613Z" fill="#E8524A"/>
<path d="M252.653 578.613C253.544 578.613 254.266 577.891 254.266 577C254.266 576.109 253.544 575.387 252.653 575.387C251.762 575.387 251.04 576.109 251.04 577C251.04 577.891 251.762 578.613 252.653 578.613Z" fill="#E8524A"/>
<path d="M276 578.613C276.891 578.613 277.613 577.891 277.613 577C277.613 576.109 276.891 575.387 276 575.387C275.109 575.387 274.387 576.109 274.387 577C274.387 577.891 275.109 578.613 276 578.613Z" fill="#E8524A"/>
<path d="M299.347 578.613C300.237 578.613 300.96 577.891 300.96 577C300.96 576.109 300.237 575.387 299.347 575.387C298.456 575.387 297.734 576.109 297.734 577C297.734 577.891 298.456 578.613 299.347 578.613Z" fill="#E8524A"/>
<path d="M324.32 577C324.32 577.319 324.225 577.631 324.048 577.896C323.871 578.161 323.619 578.368 323.324 578.49C323.029 578.612 322.705 578.644 322.392 578.582C322.079 578.52 321.792 578.366 321.566 578.14C321.341 577.915 321.187 577.628 321.125 577.315C321.063 577.002 321.095 576.677 321.217 576.383C321.339 576.088 321.546 575.836 321.811 575.659C322.076 575.482 322.388 575.387 322.707 575.387C323.135 575.387 323.545 575.557 323.847 575.859C324.15 576.162 324.32 576.572 324.32 577Z" fill="#0E9944"/>
<path d="M346.04 578.613C346.931 578.613 347.653 577.891 347.653 577C347.653 576.109 346.931 575.387 346.04 575.387C345.15 575.387 344.427 576.109 344.427 577C344.427 577.891 345.15 578.613 346.04 578.613Z" fill="#E8524A"/>
<path d="M369.387 578.613C370.278 578.613 371 577.891 371 577C371 576.109 370.278 575.387 369.387 575.387C368.496 575.387 367.774 576.109 367.774 577C367.774 577.891 368.496 578.613 369.387 578.613Z" fill="#E8524A"/>
<path d="M182.613 594.307C183.504 594.307 184.226 593.584 184.226 592.694C184.226 591.803 183.504 591.081 182.613 591.081C181.722 591.081 181 591.803 181 592.694C181 593.584 181.722 594.307 182.613 594.307Z" fill="#E8524A"/>
<path d="M205.96 594.307C206.85 594.307 207.572 593.584 207.572 592.694C207.572 591.803 206.85 591.081 205.96 591.081C205.069 591.081 204.347 591.803 204.347 592.694C204.347 593.584 205.069 594.307 205.96 594.307Z" fill="#E8524A"/>
<path d="M229.306 594.307C230.197 594.307 230.919 593.584 230.919 592.694C230.919 591.803 230.197 591.081 229.306 591.081C228.416 591.081 227.694 591.803 227.694 592.694C227.694 593.584 228.416 594.307 229.306 594.307Z" fill="#0E9944"/>
<path d="M252.653 594.307C253.544 594.307 254.266 593.584 254.266 592.694C254.266 591.803 253.544 591.081 252.653 591.081C251.762 591.081 251.04 591.803 251.04 592.694C251.04 593.584 251.762 594.307 252.653 594.307Z" fill="#E8524A"/>
<path d="M276 594.307C276.891 594.307 277.613 593.584 277.613 592.694C277.613 591.803 276.891 591.081 276 591.081C275.109 591.081 274.387 591.803 274.387 592.694C274.387 593.584 275.109 594.307 276 594.307Z" fill="#0E9944"/>
<path d="M299.347 594.307C300.237 594.307 300.96 593.584 300.96 592.694C300.96 591.803 300.237 591.081 299.347 591.081C298.456 591.081 297.734 591.803 297.734 592.694C297.734 593.584 298.456 594.307 299.347 594.307Z" fill="#E8524A"/>
<path d="M324.32 592.707C324.32 593.026 324.225 593.338 324.048 593.603C323.871 593.868 323.619 594.075 323.324 594.197C323.029 594.319 322.705 594.351 322.392 594.289C322.079 594.226 321.792 594.073 321.566 593.847C321.341 593.622 321.187 593.334 321.125 593.021C321.063 592.709 321.095 592.384 321.217 592.089C321.339 591.795 321.546 591.543 321.811 591.366C322.076 591.188 322.388 591.094 322.707 591.094C323.135 591.094 323.545 591.264 323.847 591.566C324.15 591.869 324.32 592.279 324.32 592.707Z" fill="#E8524A"/>
<path d="M346.04 594.307C346.931 594.307 347.653 593.584 347.653 592.694C347.653 591.803 346.931 591.081 346.04 591.081C345.15 591.081 344.427 591.803 344.427 592.694C344.427 593.584 345.15 594.307 346.04 594.307Z" fill="#E8524A"/>
<path d="M369.387 594.307C370.278 594.307 371 593.584 371 592.694C371 591.803 370.278 591.081 369.387 591.081C368.496 591.081 367.774 591.803 367.774 592.694C367.774 593.584 368.496 594.307 369.387 594.307Z" fill="#E8524A"/>
<path d="M182.613 610C183.504 610 184.226 609.278 184.226 608.387C184.226 607.496 183.504 606.774 182.613 606.774C181.722 606.774 181 607.496 181 608.387C181 609.278 181.722 610 182.613 610Z" fill="#E8524A"/>
<path d="M205.96 610C206.85 610 207.572 609.278 207.572 608.387C207.572 607.496 206.85 606.774 205.96 606.774C205.069 606.774 204.347 607.496 204.347 608.387C204.347 609.278 205.069 610 205.96 610Z" fill="#E8524A"/>
<path d="M229.306 610C230.197 610 230.919 609.278 230.919 608.387C230.919 607.496 230.197 606.774 229.306 606.774C228.416 606.774 227.694 607.496 227.694 608.387C227.694 609.278 228.416 610 229.306 610Z" fill="#E8524A"/>
<path d="M252.653 610C253.544 610 254.266 609.278 254.266 608.387C254.266 607.496 253.544 606.774 252.653 606.774C251.762 606.774 251.04 607.496 251.04 608.387C251.04 609.278 251.762 610 252.653 610Z" fill="#E8524A"/>
<path d="M276 610C276.891 610 277.613 609.278 277.613 608.387C277.613 607.496 276.891 606.774 276 606.774C275.109 606.774 274.387 607.496 274.387 608.387C274.387 609.278 275.109 610 276 610Z" fill="#E8524A"/>
<path d="M299.347 610C300.237 610 300.96 609.278 300.96 608.387C300.96 607.496 300.237 606.774 299.347 606.774C298.456 606.774 297.734 607.496 297.734 608.387C297.734 609.278 298.456 610 299.347 610Z" fill="#E8524A"/>
<path d="M324.32 608.4C324.32 608.828 324.15 609.238 323.847 609.541C323.545 609.843 323.135 610.013 322.707 610.013C322.279 610.013 321.869 609.843 321.566 609.541C321.264 609.238 321.094 608.828 321.094 608.4C321.094 607.972 321.264 607.562 321.566 607.26C321.869 606.957 322.279 606.787 322.707 606.787C323.135 606.787 323.545 606.957 323.847 607.26C324.15 607.562 324.32 607.972 324.32 608.4Z" fill="#E8524A"/>
<path d="M346.04 610C346.931 610 347.653 609.278 347.653 608.387C347.653 607.496 346.931 606.774 346.04 606.774C345.15 606.774 344.427 607.496 344.427 608.387C344.427 609.278 345.15 610 346.04 610Z" fill="#0E9944"/>
<path d="M369.387 610C370.278 610 371 609.278 371 608.387C371 607.496 370.278 606.774 369.387 606.774C368.496 606.774 367.774 607.496 367.774 608.387C367.774 609.278 368.496 610 369.387 610Z" fill="#0E9944"/>
</g>
</svg>
