<svg width="700" height="398" viewBox="0 0 700 398" fill="none" xmlns="http://www.w3.org/2000/svg">
<path d="M558.603 156.286H700L676.968 172.881V205.574C676.968 207.382 676.249 209.116 674.968 210.394C673.688 211.672 671.952 212.39 670.141 212.39H558.603C556.792 212.39 555.056 211.672 553.775 210.394C552.495 209.116 551.776 207.382 551.776 205.574V163.102C551.776 161.295 552.495 159.561 553.775 158.283C555.056 157.004 556.792 156.286 558.603 156.286Z" fill="#747579"/>
<path d="M564.497 179.361C564.497 179.5 585.823 179.609 612.129 179.609C638.436 179.609 659.761 179.5 659.761 179.361C659.761 179.222 638.436 179.113 612.129 179.113C585.823 179.113 564.497 179.222 564.497 179.361Z" fill="#E0E0E0"/>
<path d="M564.497 191.893C564.497 192.032 585.823 192.141 612.129 192.141C638.436 192.141 659.761 192.032 659.761 191.893C659.761 191.754 638.436 191.645 612.129 191.645C585.823 191.645 564.497 191.764 564.497 191.893Z" fill="#E0E0E0"/>
<path d="M343.852 35.8162H337.234V57.9486H343.852V35.8162Z" fill="#C4C4C4"/>
<path d="M288.58 32.6162H281.961V57.9487H288.58V32.6162Z" fill="#C4C4C4"/>
<path d="M302.403 27.3357H295.784V57.9486H302.403V27.3357Z" fill="#E96220"/>
<path d="M316.216 29.01H309.597V57.9486H316.216V29.01Z" fill="#C4C4C4"/>
<path d="M330.029 19.2217H323.411V57.9485H330.029V19.2217Z" fill="#E96220"/>
<path d="M357.666 19.4102H351.047V57.9488H357.666V19.4102Z" fill="#E96220"/>
<path d="M371.489 32.0713H364.87V57.9486H371.489V32.0713Z" fill="#C4C4C4"/>
<path d="M385.302 21.1042H378.683V57.9488H385.302V21.1042Z" fill="#E96220"/>
<path d="M399.125 12.8118H392.507V57.9485H399.125V12.8118Z" fill="#C4C4C4"/>
<path d="M412.939 20.916H406.32V57.9488H412.939V20.916Z" fill="#E96220"/>
<path d="M587.291 55.898L642.008 47.5463C643.763 58.9656 641.889 70.6468 636.652 80.9486C631.414 91.2504 623.075 99.6551 612.807 104.982C602.539 110.309 590.857 112.29 579.403 110.647C567.948 109.004 557.297 103.82 548.946 95.8229C540.595 87.8257 534.963 77.4173 532.842 66.0602C530.721 54.703 532.217 42.9678 537.121 32.5032C542.024 22.0387 550.088 13.3707 560.179 7.71716C570.271 2.06361 581.883 -0.291441 593.384 0.982904L587.291 55.898Z" fill="#E96220"/>
<path d="M605.044 1.11157L598.405 43.4545L640.083 35.6477C640.083 35.6477 633.921 11.9499 605.044 1.11157Z" fill="#C4C4C4"/>
<path d="M28.5294 158.635C28.4634 153.282 29.9873 148.031 32.9087 143.542C35.8301 139.054 40.018 135.531 44.9436 133.417C49.8692 131.303 55.3118 130.694 60.584 131.666C65.8563 132.638 70.722 135.147 74.5666 138.878C78.4113 142.609 81.0626 147.393 82.1859 152.627C83.3091 157.861 82.8539 163.309 80.8778 168.285C78.9016 173.261 75.493 177.541 71.0825 180.584C66.6719 183.627 61.4571 185.297 56.0964 185.384C48.8914 185.474 41.9444 182.709 36.7774 177.695C31.6103 172.682 28.6444 165.827 28.5294 158.635ZM68.6295 157.981C68.5744 155.425 67.7626 152.942 66.2966 150.846C64.8305 148.75 62.7757 147.134 60.3912 146.202C58.0067 145.27 55.3991 145.063 52.8972 145.609C50.3954 146.154 48.1111 147.426 46.3324 149.265C44.5537 151.104 43.3601 153.428 42.9021 155.944C42.4441 158.459 42.7422 161.053 43.7588 163.4C44.7754 165.746 46.465 167.74 48.6146 169.129C50.7643 170.518 53.2778 171.241 55.8383 171.207C57.5485 171.178 59.2364 170.814 60.8052 170.133C62.374 169.453 63.7931 168.47 64.9811 167.242C66.1692 166.014 67.103 164.563 67.729 162.974C68.355 161.385 68.661 159.688 68.6295 157.981Z" fill="#F5F5F5"/>
<path d="M28.5292 158.635C28.4043 151.436 31.1447 144.482 36.149 139.298C41.1534 134.115 48.013 131.124 55.2229 130.984L55.4512 145.181C52.0479 145.31 48.8305 146.764 46.4869 149.231C44.1433 151.698 42.8595 154.983 42.91 158.382C42.9606 161.782 44.3415 165.027 46.7574 167.424C49.1734 169.82 52.4326 171.178 55.8382 171.207L56.0962 185.384C48.8905 185.476 41.942 182.713 36.7744 177.698C31.6067 172.684 28.6416 165.828 28.5292 158.635Z" fill="#E96220"/>
<path d="M52.792 128.794C56.9162 128.697 61.0184 129.422 64.8586 130.926C68.6988 132.431 72.1999 134.685 75.1569 137.557C78.1138 140.429 80.4673 143.861 82.0796 147.652C83.6919 151.443 84.5306 155.517 84.5466 159.635L67.9747 159.893C67.8457 151.501 61.4451 146.221 53.0897 146.36L52.792 128.794Z" fill="#0E9944"/>
<path d="M204.807 254.179H170.314V295.115H204.807V254.179Z" fill="#F5F5F5"/>
<path d="M171.515 251.504H15.6492V297.681H171.515V251.504Z" fill="#C4C4C4"/>
<path d="M205.849 255.387H167.327V251.504H205.849C206.376 251.504 206.881 251.712 207.253 252.084C207.625 252.456 207.834 252.96 207.834 253.485C207.814 253.997 207.595 254.481 207.225 254.835C206.855 255.19 206.362 255.388 205.849 255.387Z" fill="#E0E0E0"/>
<path d="M205.849 297.681H167.327V293.797H205.849C206.376 293.797 206.881 294.006 207.253 294.377C207.625 294.749 207.834 295.253 207.834 295.779C207.814 296.29 207.595 296.774 207.225 297.129C206.855 297.483 206.362 297.681 205.849 297.681Z" fill="#E0E0E0"/>
<path d="M159.259 251.504H140.842V297.681H159.259V251.504Z" fill="#EBEBEB"/>
<path d="M48.8823 252.019H30.4646V298.196H48.8823V252.019Z" fill="#EBEBEB"/>
<path d="M204.807 260.945C204.807 261.065 197.345 261.154 188.136 261.154C178.927 261.154 171.465 261.065 171.465 260.945C171.465 260.826 178.927 260.737 188.136 260.737C197.345 260.737 204.807 260.836 204.807 260.945Z" fill="#E0E0E0"/>
<path d="M204.807 267.088C204.807 267.197 197.345 267.286 188.136 267.286C178.927 267.286 171.465 267.197 171.465 267.088C171.465 266.979 178.927 266.879 188.136 266.879C197.345 266.879 204.807 266.969 204.807 267.088Z" fill="#E0E0E0"/>
<path d="M204.807 274.647C204.807 274.756 197.345 274.846 188.136 274.846C178.927 274.846 171.465 274.756 171.465 274.647C171.465 274.538 178.927 274.439 188.136 274.439C197.345 274.439 204.807 274.548 204.807 274.647Z" fill="#E0E0E0"/>
<path d="M204.807 282.196C204.807 282.315 197.345 282.404 188.136 282.404C178.927 282.404 171.465 282.315 171.465 282.196C171.465 282.077 178.927 281.998 188.136 281.998C197.345 281.998 204.807 282.087 204.807 282.196Z" fill="#E0E0E0"/>
<path d="M204.807 289.755C204.807 289.874 197.345 289.964 188.136 289.964C178.927 289.964 171.465 289.874 171.465 289.755C171.465 289.636 178.927 289.557 188.136 289.557C197.345 289.557 204.807 289.646 204.807 289.755Z" fill="#E0E0E0"/>
<path d="M130.938 270.486H60.8201V278.798H130.938V270.486Z" fill="#EBEBEB"/>
<path d="M204.46 298.592H169.441V323.538H204.46V298.592Z" fill="#FAFAFA"/>
<path d="M169.838 297.681H20.8093V324.43H169.838V297.681Z" fill="#F5F5F5"/>
<path d="M168.746 299.494H206.385C206.504 299.494 206.621 299.47 206.731 299.425C206.84 299.38 206.94 299.313 207.023 299.23C207.107 299.146 207.174 299.047 207.219 298.937C207.265 298.828 207.288 298.71 207.288 298.592C207.288 298.352 207.193 298.122 207.024 297.951C206.855 297.78 206.625 297.683 206.385 297.681H168.746V299.494Z" fill="#F5F5F5"/>
<path d="M168.746 322.627H206.871C206.982 322.627 207.088 322.671 207.166 322.749C207.244 322.827 207.288 322.932 207.288 323.043V324.034C207.288 324.144 207.244 324.25 207.166 324.328C207.088 324.406 206.982 324.45 206.871 324.45H168.746V322.637V322.627Z" fill="#F5F5F5"/>
<path d="M204.46 303.328C204.46 303.437 196.7 303.536 187.144 303.536C177.588 303.536 169.828 303.437 169.828 303.328C169.828 303.219 177.578 303.12 187.144 303.12C196.71 303.12 204.46 303.219 204.46 303.328Z" fill="#E0E0E0"/>
<path d="M204.46 308.044C204.46 308.163 196.7 308.252 187.144 308.252C177.588 308.252 169.828 308.163 169.828 308.044C169.828 307.925 177.578 307.845 187.144 307.845C196.71 307.845 204.46 307.935 204.46 308.044Z" fill="#E0E0E0"/>
<path d="M204.46 312.77C204.46 312.879 196.7 312.968 187.144 312.968C177.588 312.968 169.828 312.879 169.828 312.77C169.828 312.661 177.578 312.561 187.144 312.561C196.71 312.561 204.46 312.651 204.46 312.77Z" fill="#E0E0E0"/>
<path d="M204.46 317.485C204.46 317.594 196.7 317.684 187.144 317.684C177.588 317.684 169.828 317.594 169.828 317.485C169.828 317.376 177.578 317.277 187.144 317.277C196.71 317.277 204.46 317.366 204.46 317.485Z" fill="#E0E0E0"/>
<path d="M209.769 326.818H174.025V394.434H209.769V326.818Z" fill="#EBEBEB"/>
<path d="M174.025 324.44H6.25171V397.752H174.025V324.44Z" fill="#C4C4C4"/>
<path d="M212.567 397.742H169.441V392.987H212.567C213.198 392.99 213.802 393.241 214.249 393.686C214.695 394.132 214.946 394.735 214.949 395.365C214.949 395.677 214.887 395.986 214.768 396.275C214.648 396.563 214.473 396.825 214.251 397.046C214.03 397.267 213.768 397.442 213.479 397.561C213.19 397.681 212.88 397.742 212.567 397.742Z" fill="#E0E0E0"/>
<path d="M169.441 324.44H213.857C214.001 324.44 214.143 324.468 214.275 324.523C214.408 324.577 214.528 324.658 214.629 324.759C214.731 324.86 214.811 324.98 214.866 325.112C214.921 325.245 214.949 325.386 214.949 325.529V328.105C214.949 328.394 214.834 328.672 214.629 328.876C214.425 329.08 214.147 329.195 213.857 329.195H169.441V324.44Z" fill="#E0E0E0"/>
<path d="M209.769 335.873C209.769 335.992 201.77 336.081 191.907 336.081C182.043 336.081 174.045 335.992 174.045 335.873C174.045 335.754 182.043 335.674 191.907 335.674C201.77 335.674 209.769 335.764 209.769 335.873Z" fill="#E0E0E0"/>
<path d="M209.769 344.552C209.769 344.661 201.77 344.75 191.907 344.75C182.043 344.75 174.045 344.661 174.045 344.552C174.045 344.442 182.043 344.343 191.907 344.343C201.77 344.343 209.769 344.433 209.769 344.552Z" fill="#E0E0E0"/>
<path d="M209.769 353.22C209.769 353.33 201.77 353.429 191.907 353.429C182.043 353.429 174.045 353.33 174.045 353.22C174.045 353.111 182.043 353.012 191.907 353.012C201.77 353.012 209.769 353.111 209.769 353.22Z" fill="#E0E0E0"/>
<path d="M209.769 361.889C209.769 362.008 201.77 362.097 191.907 362.097C182.043 362.097 174.045 362.008 174.045 361.889C174.045 361.77 182.043 361.69 191.907 361.69C201.77 361.69 209.769 361.78 209.769 361.889Z" fill="#E0E0E0"/>
<path d="M209.769 370.568C209.769 370.677 201.77 370.766 191.907 370.766C182.043 370.766 174.045 370.677 174.045 370.568C174.045 370.458 182.043 370.359 191.907 370.359C201.77 370.359 209.769 370.448 209.769 370.568Z" fill="#E0E0E0"/>
<path d="M209.769 379.236C209.769 379.346 201.77 379.445 191.907 379.445C182.043 379.445 174.045 379.346 174.045 379.236C174.045 379.127 182.043 379.028 191.907 379.028C201.77 379.028 209.769 379.127 209.769 379.236Z" fill="#E0E0E0"/>
<path d="M209.769 387.905C209.769 388.024 201.77 388.113 191.907 388.113C182.043 388.113 174.045 388.024 174.045 387.905C174.045 387.786 182.043 387.707 191.907 387.707C201.77 387.707 209.769 387.796 209.769 387.905Z" fill="#E0E0E0"/>
<path d="M167.257 1.89431H15.0437L39.852 19.7271V54.8676C39.8507 55.832 40.04 56.7872 40.409 57.6785C40.7781 58.5697 41.3197 59.3795 42.0028 60.0615C42.6858 60.7434 43.4969 61.2841 44.3897 61.6526C45.2824 62.021 46.2391 62.21 47.2051 62.2087H167.277C169.227 62.2087 171.098 61.4353 172.477 60.0586C173.856 58.6818 174.63 56.8146 174.63 54.8676V9.23547C174.63 8.26975 174.439 7.31351 174.069 6.42155C173.698 5.52958 173.155 4.71942 172.47 4.03747C171.785 3.35552 170.972 2.81519 170.077 2.44743C169.183 2.07967 168.225 1.89171 167.257 1.89431Z" fill="#747579"/>
<path d="M160.906 26.7318C160.906 26.8807 137.954 26.9997 109.643 26.9997C81.3314 26.9997 58.3689 26.8707 58.3689 26.7318C58.3689 26.5929 81.3215 26.4639 109.643 26.4639C137.964 26.4639 160.906 26.583 160.906 26.7318Z" fill="#E0E0E0"/>
<path d="M160.906 40.2252C160.906 40.3741 137.954 40.4931 109.643 40.4931C81.3314 40.4931 58.3689 40.3741 58.3689 40.2252C58.3689 40.0764 81.3215 39.9573 109.643 39.9573C137.964 39.9573 160.906 40.0764 160.906 40.2252Z" fill="#E0E0E0"/>
<path d="M695.167 397.743C695.167 397.892 539.53 398.001 347.604 398.001C155.677 398.001 0 397.892 0 397.743C0 397.594 155.597 397.485 347.604 397.485C539.61 397.485 695.167 397.604 695.167 397.743Z" fill="#263238"/>
<path d="M629.852 347.177C629.852 347.177 603.546 316.96 593.622 286.743C583.699 256.527 588.413 259.994 588.413 259.994C588.413 259.994 601.809 289.359 611.981 303.536C622.152 317.713 640.322 338.508 640.322 338.508L629.852 347.177Z" fill="#455A64"/>
<path d="M635.092 264.64C634.918 264.323 634.638 264.077 634.3 263.946C633.962 263.816 633.589 263.81 633.246 263.929C632.904 264.048 632.616 264.284 632.432 264.596C632.248 264.908 632.181 265.275 632.244 265.631C633.841 276.252 637.314 301.168 637.205 317.326C637.027 338.32 637.205 346.433 637.205 346.433H648.121C648.121 346.433 646.136 303.04 643.705 289.804C641.978 280.551 638.337 270.248 635.092 264.64Z" fill="#455A64"/>
<path d="M641.066 342.906C645.653 332.527 648.688 321.532 650.076 310.272C650.979 302.545 649.362 292.103 646.97 278.164C646.05 273.066 645.589 267.898 645.591 262.718C645.594 262.141 645.791 261.581 646.148 261.126C646.505 260.672 647.004 260.349 647.565 260.208C648.126 260.068 648.719 260.117 649.249 260.349C649.778 260.581 650.216 260.982 650.493 261.49C651.813 263.848 655.643 271.892 656.615 276.925C659.265 290.686 662.262 297.572 659.97 310.609C657.677 323.647 649.193 343.778 649.193 343.778L641.066 342.906Z" fill="#455A64"/>
<path d="M650.919 343.808C650.919 343.808 679.806 281.839 681.81 272.645C683.815 263.452 690.612 242.27 691.416 243.469C692.22 244.668 693.401 255.863 688.211 268.653C683.021 281.443 660.783 345.69 660.783 345.69H650.919" fill="#455A64"/>
<path d="M637.9 341.034C637.616 340.87 637.344 340.684 637.087 340.479C636.581 340.093 635.797 339.548 634.854 338.775C632.15 336.629 629.56 334.344 627.094 331.93C618.958 323.938 611.911 314.911 606.136 305.081C600.376 295.259 595.587 284.9 591.836 274.151C590.388 270.04 589.326 266.672 588.641 264.324C588.284 263.164 588.036 262.243 587.867 261.629C587.762 261.307 587.689 260.975 587.649 260.638C587.785 260.936 587.898 261.244 587.986 261.56L588.869 264.225C589.623 266.543 590.745 269.891 592.243 273.973C596.111 284.645 600.941 294.944 606.672 304.745C612.43 314.538 619.402 323.569 627.421 331.623C630.507 334.694 633.157 337.022 635.023 338.558C635.945 339.36 636.7 339.935 637.186 340.351C637.442 340.559 637.681 340.787 637.9 341.034Z" fill="#263238"/>
<path d="M641.056 311.303C640.92 310.707 640.833 310.1 640.798 309.49C640.659 308.202 640.48 306.518 640.272 304.537C639.815 300.336 639.101 294.56 638.079 288.21C637.057 281.859 635.916 276.143 635.032 272.021C634.606 270.04 634.248 268.395 633.981 267.137C633.821 266.543 633.712 265.937 633.653 265.324C633.889 265.892 634.075 266.478 634.209 267.078C634.536 268.217 634.963 269.872 635.459 271.922C636.451 276.024 637.662 281.74 638.684 288.111C639.706 294.481 640.351 300.276 640.669 304.487C640.847 306.597 640.957 308.301 641.006 309.441C641.088 310.058 641.104 310.682 641.056 311.303Z" fill="#263238"/>
<path d="M647.824 261.024C647.96 261.278 648.073 261.543 648.161 261.817C648.389 262.401 648.677 263.164 649.034 264.115C649.391 265.067 649.848 266.345 650.275 267.811C650.701 269.277 651.267 270.902 651.674 272.764L652.388 275.677C652.636 276.668 652.805 277.767 653.023 278.867C653.5 281.066 653.787 283.454 654.135 285.961C655.453 296.873 655.058 307.923 652.964 318.713C652.438 321.19 651.971 323.548 651.346 325.708C651.049 326.788 650.801 327.848 650.483 328.838C650.165 329.829 649.858 330.82 649.56 331.702C649.004 333.534 648.34 335.129 647.804 336.546C647.268 337.963 646.752 339.172 646.305 340.142L645.313 342.372C645.207 342.639 645.074 342.894 644.916 343.134C644.985 342.855 645.081 342.583 645.204 342.322L646.117 340.043C646.534 339.053 647.03 337.854 647.516 336.427C648.002 335.001 648.657 333.396 649.183 331.563C649.461 330.651 649.759 329.7 650.066 328.71C650.374 327.719 650.602 326.659 650.89 325.579C651.495 323.419 651.882 321.071 652.448 318.644C654.463 307.902 654.858 296.919 653.619 286.06C653.281 283.563 653.013 281.185 652.567 278.996C652.349 277.896 652.19 276.826 651.962 275.816C651.733 274.805 651.505 273.834 651.287 272.903C650.9 271.04 650.374 269.396 649.977 267.949C649.58 266.503 649.193 265.255 648.846 264.244C648.498 263.234 648.28 262.501 648.091 261.906C647.972 261.622 647.882 261.327 647.824 261.024Z" fill="#263238"/>
<path d="M691.079 244.717C691.097 244.809 691.097 244.903 691.079 244.995C691.079 245.213 691 245.48 690.95 245.797C690.821 246.501 690.663 247.551 690.385 248.888C689.829 251.553 688.896 255.387 687.408 260.044C685.919 264.7 684.004 270.149 681.662 276.152C679.32 282.156 676.621 288.685 674.061 295.64C671.501 302.595 669.446 309.371 667.561 315.513C665.676 321.656 663.929 327.204 662.212 331.761C660.89 335.375 659.37 338.914 657.658 342.362C657.062 343.59 656.526 344.502 656.189 345.136L655.782 345.839C655.741 345.926 655.687 346.006 655.623 346.077C655.645 345.984 655.678 345.894 655.723 345.809L656.08 345.076C656.387 344.422 656.884 343.491 657.439 342.253C658.6 339.796 660.168 336.19 661.806 331.612C663.443 327.035 665.179 321.517 667.025 315.355C668.871 309.193 670.865 302.396 673.475 295.432C676.085 288.467 678.774 281.928 681.136 275.944C683.498 269.961 685.512 264.531 686.991 259.905C688.469 255.278 689.482 251.474 690.107 248.829C690.424 247.511 690.623 246.471 690.792 245.777C690.871 245.46 690.93 245.203 690.98 244.985C690.999 244.891 691.032 244.801 691.079 244.717Z" fill="#263238"/>
<path d="M602.027 231.026C601.628 230.646 601.114 230.408 600.565 230.351C600.016 230.295 599.464 230.421 598.995 230.711C598.526 231.001 598.167 231.439 597.974 231.955C597.781 232.471 597.765 233.036 597.929 233.562C598.918 236.748 600.131 239.86 601.561 242.875C605.53 251.306 617.2 281.512 622.658 298.127C628.116 314.741 635.806 345.681 635.806 345.681L647.466 343.798C647.466 343.798 636.798 292.925 626.429 274.548C618.004 259.855 609.628 238.575 602.027 231.026Z" fill="#455A64"/>
<path d="M625.843 308.509C626.097 308.951 626.3 309.419 626.449 309.906C626.796 310.818 627.262 312.145 627.788 313.81C628.86 317.128 630.18 321.735 631.5 326.917C632.819 332.098 633.921 336.764 634.685 340.162C635.042 341.767 635.33 343.135 635.568 344.195C635.696 344.684 635.776 345.185 635.806 345.691C635.597 345.23 635.437 344.748 635.33 344.254C635.052 343.194 634.695 341.857 634.268 340.291L630.904 327.055C629.584 321.904 628.334 317.257 627.371 313.919L626.22 309.956C626.047 309.487 625.921 309.003 625.843 308.509Z" fill="#263238"/>
<path d="M641.661 344.749C641.63 344.65 641.61 344.547 641.602 344.442C641.602 344.195 641.522 343.897 641.463 343.521C641.344 342.719 641.234 341.54 640.986 339.994C640.56 336.943 639.796 332.534 638.545 327.164C637.051 320.875 635.229 314.668 633.087 308.569C630.696 301.634 627.699 294.223 624.295 286.506C617.438 271.1 610.591 257.438 606.086 247.343C603.814 242.3 602.047 238.189 600.886 235.316C600.291 233.889 599.894 232.77 599.576 232.007C599.447 231.65 599.338 231.373 599.249 231.135C599.205 231.04 599.175 230.94 599.16 230.838C599.16 230.838 599.219 230.927 599.308 231.115C599.398 231.303 599.537 231.62 599.696 231.957L601.105 235.226C602.335 238.06 604.161 242.161 606.483 247.115C611.078 257.171 617.994 270.793 624.861 286.218C628.265 293.946 631.252 301.416 633.623 308.341C635.748 314.477 637.534 320.724 638.972 327.055C639.938 331.308 640.69 335.607 641.225 339.935C641.433 341.47 641.502 342.669 641.592 343.481C641.592 343.858 641.641 344.155 641.661 344.403C641.677 344.518 641.677 344.634 641.661 344.749Z" fill="#263238"/>
<path d="M647.466 343.808C647.285 343.158 647.152 342.496 647.069 341.827C646.841 340.459 646.534 338.656 646.166 336.477C645.363 331.969 644.182 325.757 642.376 319.001C640.57 312.244 638.654 306.211 637.146 301.891L635.36 296.799C635.101 296.183 634.895 295.547 634.745 294.897C635.072 295.479 635.354 296.085 635.588 296.71C636.084 297.889 636.789 299.613 637.573 301.762C639.682 307.362 641.49 313.07 642.991 318.862C644.492 324.653 645.701 330.515 646.613 336.427C646.95 338.696 647.198 340.539 647.327 341.817C647.424 342.476 647.47 343.142 647.466 343.808Z" fill="#263238"/>
<path d="M671.391 342.134H625.883V397.485H671.391V342.134Z" fill="#E96220"/>
<g opacity="0.3">
<path opacity="0.3" d="M671.391 342.134H625.883V397.485H671.391V342.134Z" fill="black"/>
</g>
<path d="M656.874 342.134H616.506V397.485H656.874V342.134Z" fill="#E96220"/>
<path d="M65.2954 322.894C57.5353 317.941 46.7983 317.842 39.2566 323.102C32.092 328.106 28.4501 337.2 28.7677 345.889C29.0852 354.577 33.3225 365.257 41.2313 369.844L64.4519 369.745C68.1835 367.034 71.2657 363.529 73.476 359.484C75.6863 355.439 76.9695 350.955 77.2331 346.354C77.5804 337.2 73.0455 327.848 65.2954 322.894Z" fill="#455A64"/>
<path d="M53.8538 370.716C53.7447 370.061 53.6981 369.398 53.7149 368.734C53.7149 367.308 53.6156 365.485 53.5561 363.295C53.437 358.708 53.2584 352.398 52.9508 345.373C52.6432 338.349 52.2661 332.038 51.9584 327.452C51.8294 325.272 51.7203 323.489 51.631 322.022C51.5673 321.363 51.5673 320.7 51.631 320.041C51.7971 320.69 51.9034 321.354 51.9485 322.022C52.1073 323.3 52.2958 325.153 52.5142 327.442C52.9309 332.019 53.3874 338.339 53.7049 345.364C54.0225 352.388 54.1118 358.728 54.092 363.325C54.092 365.624 54.092 367.476 54.0126 368.764C54.0184 369.418 53.9653 370.071 53.8538 370.716Z" fill="#263238"/>
<path d="M31.1094 343.947C31.1094 344.145 29.8293 344.214 28.2912 344.086C26.7531 343.957 25.5226 343.689 25.5325 343.491C25.5425 343.293 26.8126 343.224 28.3508 343.343C29.8889 343.461 31.1293 343.739 31.1094 343.947Z" fill="#263238"/>
<path d="M31.5464 336.12C31.4571 336.308 30.3754 336.011 29.1152 335.447C27.8549 334.882 26.9023 334.287 26.9817 334.099C27.0611 333.911 28.1526 334.218 29.4129 334.773C30.6731 335.328 31.6258 335.972 31.5464 336.12Z" fill="#263238"/>
<path d="M35.5752 330.315C35.466 330.483 34.2455 329.909 32.9753 328.859C31.7051 327.808 30.9013 326.709 31.0502 326.58C31.199 326.451 32.2112 327.263 33.4417 328.284C34.6722 329.304 35.6843 330.137 35.5752 330.315Z" fill="#263238"/>
<path d="M39.6337 324.836C39.4452 324.915 38.8597 324.004 38.3238 322.795C37.788 321.587 37.5002 320.537 37.6887 320.447C37.8773 320.358 38.4628 321.28 38.9986 322.498C39.5345 323.717 39.8123 324.757 39.6337 324.836Z" fill="#263238"/>
<path d="M45.9945 320.952C45.8059 321.032 45.1808 320.061 44.7541 318.713C44.3274 317.366 44.2976 316.197 44.4961 316.167C44.6945 316.138 45.0617 317.158 45.4884 318.486C45.9151 319.813 46.183 320.863 45.9945 320.952Z" fill="#263238"/>
<path d="M56.6025 316.564C56.801 316.633 56.6819 317.465 56.3445 318.426C56.0071 319.387 55.5705 320.101 55.3522 320.031C55.1339 319.962 55.2728 319.14 55.6102 318.179C55.9476 317.218 56.414 316.494 56.6025 316.564Z" fill="#263238"/>
<path d="M64.4818 319.942C64.6208 320.091 64.1147 320.784 63.3506 321.488C62.5865 322.191 61.8621 322.637 61.7232 322.478C61.5842 322.32 62.0903 321.636 62.8445 320.933C63.5987 320.229 64.3429 319.794 64.4818 319.942Z" fill="#263238"/>
<path d="M71.4084 324.41C71.5274 324.578 70.9122 325.193 70.0389 325.787C69.1657 326.382 68.3619 326.718 68.2428 326.55C68.1237 326.382 68.7489 325.767 69.6222 325.173C70.4954 324.578 71.2992 324.242 71.4084 324.41Z" fill="#263238"/>
<path d="M76.33 331.068C76.4094 331.256 75.4468 331.85 74.1667 332.395C72.8866 332.94 71.7851 333.227 71.7057 333.039C71.6263 332.851 72.5988 332.256 73.8789 331.721C75.159 331.186 76.2506 330.879 76.33 331.068Z" fill="#263238"/>
<path d="M78.2751 338.339C78.2751 338.538 77.2828 338.835 76.0622 338.983C74.8416 339.132 73.7997 339.102 73.7699 338.894C73.7402 338.686 74.7623 338.409 75.9729 338.25C77.1835 338.092 78.2453 338.131 78.2751 338.339Z" fill="#263238"/>
<path d="M79.2776 347.286C79.1982 347.474 78.1464 347.196 76.9357 346.671C75.7251 346.146 74.7923 345.562 74.8717 345.373C74.951 345.185 76.0128 345.463 77.2235 345.988C78.4341 346.513 79.3669 347.097 79.2776 347.286Z" fill="#263238"/>
<path d="M78.3942 354.964C78.3248 355.152 76.995 354.835 75.6058 353.924C74.2165 353.012 73.3929 351.942 73.5318 351.794C73.6707 351.645 74.6928 352.447 76.0126 353.299C77.3324 354.151 78.4637 354.795 78.3942 354.964Z" fill="#263238"/>
<path d="M74.3853 361.948C74.2662 362.107 73.2044 361.492 72.1922 360.393C71.1801 359.293 70.6343 358.203 70.7931 358.084C70.9518 357.965 71.7854 358.847 72.7777 359.887C73.77 360.928 74.5242 361.79 74.3853 361.948Z" fill="#263238"/>
<path d="M36.379 362.77C36.4683 362.949 35.3867 363.761 33.8883 364.474C32.3899 365.188 31.1594 365.693 31.0304 365.534C30.9014 365.376 32.0227 364.544 33.5112 363.821C34.9997 363.097 36.2798 362.592 36.379 362.77Z" fill="#263238"/>
<path d="M32.9058 356.45C32.9851 356.638 32.092 357.222 30.9211 357.757C29.7501 358.292 28.7082 358.58 28.6189 358.391C28.5296 358.203 29.4326 357.619 30.6036 357.084C31.7745 356.549 32.8164 356.261 32.9058 356.45Z" fill="#263238"/>
<path d="M30.3554 350.832C30.3554 351.031 29.2836 351.357 27.8944 351.556C26.5051 351.754 25.3739 351.744 25.3441 351.556C25.3143 351.367 26.4158 351.031 27.7952 350.842C29.1745 350.654 30.3256 350.644 30.3554 350.832Z" fill="#263238"/>
<path d="M38.7208 347.761C38.7804 347.959 37.7285 348.455 36.2896 348.613C34.8507 348.772 33.6996 348.524 33.7195 348.326C33.7393 348.128 34.8507 348.039 36.2003 347.88C37.5499 347.722 38.6613 347.563 38.7208 347.761Z" fill="#263238"/>
<path d="M45.6774 340.856C45.7369 341.044 44.8835 341.48 43.6927 341.589C42.5019 341.698 41.6287 341.45 41.6485 341.252C41.6684 341.054 42.5615 340.965 43.6332 340.856C44.7049 340.747 45.6179 340.658 45.6774 340.856Z" fill="#263238"/>
<path d="M47.0067 335.318C46.9372 335.516 46.0144 335.367 44.9427 335.001C43.8709 334.634 43.0572 334.179 43.1267 334.01C43.1962 333.842 44.119 333.961 45.1907 334.337C46.2625 334.714 47.0762 335.13 47.0067 335.318Z" fill="#263238"/>
<path d="M49.5572 329.72C49.4182 329.869 48.7832 329.453 48.3267 328.66C47.8702 327.868 47.8305 327.125 48.029 327.075C48.2274 327.026 48.5648 327.6 49.0213 328.294C49.4778 328.987 49.706 329.582 49.5572 329.72Z" fill="#263238"/>
<path d="M46.4807 352.635C46.5303 352.834 45.7364 353.2 44.6945 353.458C44.2049 353.587 43.7022 353.66 43.1961 353.676L43.0571 353.24C43.3251 353.24 43.4938 353.24 43.5334 353.289C43.5731 353.339 43.4541 353.497 43.2357 353.666L43.0869 353.23C43.5469 353.013 44.0294 352.847 44.5258 352.735C45.5578 352.487 46.4311 352.437 46.4807 352.635Z" fill="#263238"/>
<path d="M47.8999 362.453C47.9694 362.642 46.9076 363.216 45.6176 363.741C44.3275 364.266 43.1467 364.534 43.0772 364.346C43.0077 364.157 44.0695 363.573 45.3496 363.058C46.6297 362.543 47.8404 362.265 47.8999 362.453Z" fill="#263238"/>
<path d="M40.0605 358.094C40.13 358.282 39.4453 358.689 38.5423 358.996C37.6393 359.303 36.8553 359.402 36.7859 359.204C36.7164 359.006 37.4011 358.609 38.3041 358.302C39.2071 357.995 39.9613 357.896 40.0605 358.094Z" fill="#263238"/>
<path d="M40.656 338.121C40.656 338.32 39.4255 338.201 38.0661 337.715C36.7066 337.23 35.7043 336.576 35.7936 336.398C35.8829 336.219 36.9844 336.546 38.3141 337.012C39.6439 337.477 40.7057 337.953 40.656 338.121Z" fill="#263238"/>
<path d="M59.669 335.972C59.788 336.14 59.1232 336.774 58.1904 337.388C57.2576 338.003 56.4042 338.379 56.2851 338.191C56.166 338.003 56.8408 337.388 57.7736 336.774C58.7064 336.16 59.5598 335.774 59.669 335.972Z" fill="#263238"/>
<path d="M60.7106 345.8C60.7106 345.998 60.0458 346.315 59.1428 346.503C58.2397 346.691 57.4756 346.681 57.426 346.503C57.3764 346.325 58.0909 345.988 58.9939 345.8C59.8969 345.611 60.661 345.602 60.7106 345.8Z" fill="#263238"/>
<path d="M61.9116 356.886C61.8223 357.064 60.8101 356.787 59.659 356.252C58.5079 355.717 57.6743 355.132 57.6743 354.944C57.6743 354.756 58.7758 355.043 59.9269 355.578C61.078 356.113 61.991 356.697 61.9116 356.886Z" fill="#263238"/>
<path d="M59.3613 367.674C59.2025 367.813 58.5476 367.278 57.9025 366.486C57.2575 365.693 56.9102 364.95 57.0194 364.821C57.1285 364.692 57.8232 365.227 58.4781 366.02C59.133 366.812 59.52 367.536 59.3613 367.674Z" fill="#263238"/>
<path d="M58.8154 328.69C58.9444 328.848 58.5078 329.393 57.7635 329.76C57.0193 330.126 56.3345 330.156 56.2849 329.958C56.2353 329.76 56.7712 329.443 57.436 329.106C58.1009 328.769 58.7161 328.531 58.8154 328.69Z" fill="#263238"/>
<path d="M68.163 338.627C68.2325 338.815 67.3691 339.291 66.1784 339.459C64.9876 339.627 64.0448 339.4 64.0548 339.201C64.0647 339.003 64.9776 338.874 66.0394 338.726C67.1012 338.577 68.0936 338.439 68.163 338.627Z" fill="#263238"/>
<path d="M66.3079 329.71C66.3972 329.889 65.5438 330.503 64.3232 330.889C63.1027 331.276 62.0607 331.276 62.031 331.078C62.0012 330.879 62.9439 330.553 64.095 330.176C65.2461 329.8 66.2087 329.522 66.3079 329.71Z" fill="#263238"/>
<path d="M70.1978 352.447C70.1978 352.645 68.7291 352.774 66.9628 352.447C65.1964 352.12 63.8766 351.457 63.9858 351.308C64.095 351.159 65.4445 351.417 67.1414 351.714C68.8383 352.011 70.1978 352.239 70.1978 352.447Z" fill="#263238"/>
<path d="M66.7543 365.406C66.6352 365.564 65.5536 364.93 64.4818 363.85C63.4101 362.77 62.785 361.73 62.914 361.572C63.043 361.413 63.9063 362.285 64.9879 363.335C66.0696 364.385 66.8634 365.247 66.7543 365.406Z" fill="#263238"/>
<path d="M51.5119 319.13C49.1423 320.567 46.9592 322.291 45.0121 324.262C40.4959 329.204 37.6616 335.446 36.9147 342.094C36.5783 345.749 36.7418 349.431 37.4009 353.042C37.9325 356.004 38.6181 358.938 39.455 361.829C40.1695 364.296 40.8245 366.278 41.2611 367.655C41.5251 368.357 41.7341 369.079 41.8863 369.814C41.5228 369.158 41.2237 368.468 40.9932 367.754C40.4672 366.406 39.7329 364.445 38.9589 361.978C38.0351 359.088 37.2927 356.143 36.7361 353.161C36.0163 349.491 35.8291 345.738 36.1803 342.015C36.9238 335.202 39.8953 328.823 44.635 323.865C46.0745 322.407 47.7032 321.147 49.4776 320.12C49.9556 319.829 50.4529 319.571 50.9661 319.348C51.1373 319.251 51.3209 319.177 51.5119 319.13Z" fill="#263238"/>
<path d="M61.6238 370.349C61.4551 370.26 63.281 367.456 64.9481 362.424C67.1797 355.855 67.8589 348.86 66.9327 341.985C66.4325 338.193 65.369 334.497 63.7771 331.018C62.4458 328.221 60.6243 325.685 58.3987 323.528C56.8247 322.149 55.0432 321.026 53.1195 320.2C51.7501 319.635 50.9264 319.496 50.9364 319.437C51.137 319.406 51.3411 319.406 51.5417 319.437C52.112 319.539 52.673 319.688 53.2187 319.883C55.2328 320.62 57.1006 321.707 58.7361 323.092C61.0825 325.241 63.0015 327.812 64.3924 330.671C66.0472 334.181 67.1516 337.923 67.6671 341.767C68.6158 348.751 67.8495 355.861 65.4343 362.483C65.0175 363.761 64.442 364.851 64.0748 365.842C63.7077 366.832 63.2016 367.625 62.8443 368.279C62.4905 368.999 62.0825 369.691 61.6238 370.349Z" fill="#263238"/>
<path d="M32.9058 368.596H73.7699L74.018 376.759H32.9058V368.596Z" fill="#E96220"/>
<path d="M36.3789 372.677L38.7208 397.604H68.5999L71.0013 372.955L36.3789 372.677Z" fill="#E96220"/>
<path d="M74.0179 376.858C74.0179 377.066 64.819 377.225 53.4667 377.225C42.1144 377.225 32.9155 377.066 32.9155 376.858C32.9155 376.65 42.1144 376.492 53.4667 376.492C64.819 376.492 74.0179 376.65 74.0179 376.858Z" fill="#263238"/>
<path d="M69.8703 384.447C69.6574 385.009 69.3632 385.536 68.997 386.012C68.0752 387.367 67.0106 388.619 65.8215 389.747L65.633 389.926L65.4544 389.727C62.9993 387.159 60.3156 384.817 57.4364 382.733H57.8928L54.3403 385.844L50.1427 389.47L49.9145 389.678L49.6763 389.48L42.859 383.754L43.2559 383.704C41.8468 385.428 40.656 386.864 39.7232 388.014C39.3163 388.564 38.8504 389.069 38.334 389.519C38.6609 388.918 39.043 388.347 39.4752 387.815L42.8094 383.367L42.988 383.139L43.2162 383.318L50.1626 388.925H49.7061L53.8838 385.259L57.4463 382.158L57.6646 381.97L57.9027 382.139C60.7893 384.269 63.4494 386.689 65.8414 389.361H65.4643C67.0662 387.847 68.5399 386.204 69.8703 384.447Z" fill="#263238"/>
<path d="M560.885 86.085H128.308C120.323 86.085 113.85 92.5476 113.85 100.52V376.333C113.85 384.305 120.323 390.768 128.308 390.768H560.885C568.87 390.768 575.343 384.305 575.343 376.333V100.52C575.343 92.5476 568.87 86.085 560.885 86.085Z" fill="#455A64"/>
<path d="M98.747 371.082H598.733V380.108C598.733 384.785 596.872 389.27 593.559 392.577C590.247 395.884 585.754 397.742 581.069 397.742H116.371C111.686 397.742 107.193 395.884 103.881 392.577C100.568 389.27 98.7073 384.785 98.7073 380.108V371.082H98.747Z" fill="#455A64"/>
<path d="M299.108 368.229L305.31 378.087H392.616L398.371 368.229H299.108Z" fill="#263238"/>
<path d="M571.374 368.23C571.374 368.399 468.946 368.528 342.632 368.528C216.318 368.528 113.85 368.399 113.85 368.23C113.85 368.061 216.259 367.932 342.632 367.932C469.005 367.932 571.374 368.061 571.374 368.23Z" fill="#263238"/>
<path d="M557.075 103.601H130.313C128.521 103.601 127.068 105.051 127.068 106.84V356.935C127.068 358.724 128.521 360.175 130.313 360.175H557.075C558.867 360.175 560.32 358.724 560.32 356.935V106.84C560.32 105.051 558.867 103.601 557.075 103.601Z" fill="#EBEBEB"/>
<path d="M559.853 360.551H126.602L127.068 122.781H559.853V360.551Z" fill="white"/>
<path d="M162.603 113.518C162.609 114.203 162.411 114.874 162.034 115.447C161.657 116.019 161.118 116.467 160.486 116.733C159.854 116.999 159.157 117.072 158.483 116.942C157.809 116.812 157.189 116.485 156.702 116.003C156.215 115.52 155.882 114.904 155.746 114.233C155.61 113.561 155.677 112.865 155.938 112.231C156.199 111.598 156.643 111.056 157.213 110.675C157.783 110.293 158.454 110.09 159.14 110.09C160.054 110.087 160.932 110.447 161.581 111.089C162.231 111.732 162.598 112.605 162.603 113.518Z" fill="#263238"/>
<path d="M141.635 113.518C141.641 114.204 141.442 114.876 141.064 115.45C140.686 116.023 140.145 116.47 139.511 116.736C138.877 117.001 138.178 117.072 137.504 116.94C136.829 116.807 136.209 116.477 135.723 115.992C135.237 115.507 134.907 114.888 134.774 114.214C134.641 113.541 134.713 112.843 134.978 112.21C135.244 111.577 135.693 111.038 136.267 110.66C136.841 110.282 137.514 110.084 138.202 110.09C139.111 110.095 139.981 110.458 140.624 111.099C141.267 111.741 141.63 112.61 141.635 113.518Z" fill="#263238"/>
<path d="M151.698 113.518C151.698 114.201 151.495 114.87 151.114 115.439C150.734 116.007 150.193 116.45 149.56 116.712C148.927 116.974 148.231 117.042 147.559 116.909C146.887 116.775 146.27 116.446 145.786 115.963C145.301 115.479 144.971 114.863 144.838 114.192C144.704 113.521 144.773 112.826 145.035 112.194C145.297 111.563 145.741 111.023 146.31 110.643C146.88 110.263 147.55 110.06 148.234 110.06C148.69 110.059 149.141 110.147 149.561 110.321C149.982 110.494 150.364 110.749 150.686 111.07C151.008 111.391 151.263 111.773 151.437 112.193C151.61 112.613 151.699 113.063 151.698 113.518Z" fill="#263238"/>
<path d="M560.32 337.586H126.602V360.551H560.32V337.586Z" fill="#263238"/>
<path d="M142.995 351.724V352.457H139.542V351.882L141.397 350.119C141.854 349.683 141.933 349.406 141.933 349.128C141.933 348.702 141.636 348.455 141.06 348.455C140.853 348.443 140.645 348.481 140.456 348.566C140.266 348.65 140.099 348.778 139.969 348.94L139.353 348.474C139.571 348.216 139.845 348.012 140.155 347.878C140.465 347.744 140.802 347.684 141.139 347.702C142.132 347.702 142.816 348.207 142.816 349.039C142.81 349.329 142.736 349.614 142.6 349.87C142.464 350.126 142.269 350.347 142.033 350.515L140.782 351.704L142.995 351.724Z" fill="white"/>
<path d="M143.461 349.406C143.461 349.296 143.494 349.188 143.556 349.097C143.617 349.005 143.705 348.934 143.807 348.892C143.909 348.851 144.021 348.84 144.129 348.862C144.237 348.885 144.336 348.939 144.413 349.017C144.491 349.096 144.543 349.195 144.563 349.304C144.583 349.412 144.571 349.524 144.527 349.625C144.484 349.726 144.411 349.812 144.318 349.872C144.226 349.932 144.117 349.963 144.007 349.961C143.934 349.962 143.862 349.949 143.794 349.921C143.727 349.893 143.666 349.853 143.614 349.801C143.563 349.749 143.523 349.687 143.497 349.619C143.471 349.551 143.459 349.479 143.461 349.406ZM143.461 351.952C143.451 351.874 143.457 351.794 143.48 351.718C143.503 351.642 143.542 351.572 143.594 351.513C143.646 351.453 143.71 351.405 143.782 351.373C143.854 351.34 143.933 351.323 144.012 351.323C144.091 351.323 144.17 351.34 144.242 351.373C144.314 351.405 144.378 351.453 144.43 351.513C144.482 351.572 144.521 351.642 144.544 351.718C144.567 351.794 144.573 351.874 144.563 351.952C144.573 352.03 144.567 352.11 144.544 352.186C144.521 352.262 144.482 352.332 144.43 352.391C144.378 352.451 144.314 352.498 144.242 352.531C144.17 352.564 144.091 352.581 144.012 352.581C143.933 352.581 143.854 352.564 143.782 352.531C143.71 352.498 143.646 352.451 143.594 352.391C143.542 352.332 143.503 352.262 143.48 352.186C143.457 352.11 143.451 352.03 143.461 351.952Z" fill="white"/>
<path d="M146.736 347.781V352.457H145.873V348.494H144.881V347.761L146.736 347.781Z" fill="white"/>
<path d="M151.847 351.397H151.013V352.457H150.169V351.397H147.599V350.832L149.911 347.86H150.844L148.661 350.743H150.199V349.802H151.013V350.743H151.847V351.397Z" fill="white"/>
<path d="M514.99 349.524H159.497V351.139H514.99V349.524Z" fill="white"/>
<path d="M270.321 347.791H159.229V352.11H270.321V347.791Z" fill="#E96220"/>
<path d="M273.913 350.337C273.913 351.405 273.596 352.449 273.001 353.337C272.407 354.225 271.562 354.917 270.574 355.325C269.586 355.734 268.499 355.841 267.45 355.632C266.4 355.424 265.437 354.91 264.68 354.155C263.924 353.4 263.409 352.438 263.2 351.39C262.992 350.343 263.099 349.257 263.508 348.271C263.917 347.284 264.611 346.441 265.5 345.847C266.389 345.254 267.435 344.938 268.505 344.938C269.939 344.938 271.315 345.506 272.329 346.519C273.343 347.532 273.913 348.905 273.913 350.337Z" fill="#E96220"/>
<path d="M523.941 350.287C523.939 350.503 523.892 350.716 523.804 350.913C523.715 351.11 523.586 351.286 523.426 351.43C523.265 351.575 523.077 351.684 522.871 351.752C522.666 351.819 522.449 351.844 522.234 351.823C520.954 351.823 520.249 351.001 520.249 349.495C520.21 349.175 520.241 348.85 520.34 348.544C520.439 348.237 520.604 347.956 520.823 347.719C521.042 347.482 521.311 347.296 521.609 347.173C521.907 347.051 522.229 346.994 522.552 347.008C522.982 346.998 523.407 347.104 523.782 347.315L523.455 347.969C523.19 347.806 522.882 347.727 522.571 347.741C521.688 347.741 521.133 348.286 521.133 349.346C521.293 349.179 521.488 349.049 521.704 348.965C521.92 348.881 522.152 348.846 522.383 348.861C522.58 348.847 522.778 348.874 522.965 348.939C523.151 349.005 523.323 349.107 523.468 349.24C523.614 349.374 523.731 349.536 523.812 349.715C523.894 349.895 523.937 350.09 523.941 350.287ZM523.097 350.287C523.097 349.802 522.73 349.495 522.165 349.495C522.046 349.475 521.924 349.481 521.807 349.512C521.69 349.542 521.581 349.597 521.488 349.673C521.394 349.749 521.317 349.844 521.263 349.952C521.209 350.059 521.178 350.177 521.172 350.297C521.172 350.733 521.52 351.08 522.165 351.08C522.276 351.098 522.391 351.093 522.5 351.064C522.61 351.035 522.712 350.983 522.8 350.912C522.888 350.841 522.96 350.752 523.011 350.651C523.062 350.55 523.092 350.44 523.097 350.327V350.287Z" fill="white"/>
<path d="M524.368 348.682C524.357 348.604 524.363 348.524 524.386 348.449C524.409 348.373 524.448 348.303 524.5 348.243C524.552 348.184 524.616 348.136 524.689 348.103C524.761 348.071 524.839 348.054 524.918 348.054C524.997 348.054 525.076 348.071 525.148 348.103C525.22 348.136 525.284 348.184 525.337 348.243C525.389 348.303 525.427 348.373 525.45 348.449C525.473 348.524 525.48 348.604 525.469 348.682C525.48 348.761 525.473 348.841 525.45 348.916C525.427 348.992 525.389 349.062 525.337 349.122C525.284 349.181 525.22 349.229 525.148 349.262C525.076 349.294 524.997 349.311 524.918 349.311C524.839 349.311 524.761 349.294 524.689 349.262C524.616 349.229 524.552 349.181 524.5 349.122C524.448 349.062 524.409 348.992 524.386 348.916C524.363 348.841 524.357 348.761 524.368 348.682ZM524.368 351.229C524.357 351.15 524.363 351.07 524.386 350.995C524.409 350.919 524.448 350.849 524.5 350.789C524.552 350.73 524.616 350.682 524.689 350.649C524.761 350.617 524.839 350.6 524.918 350.6C524.997 350.6 525.076 350.617 525.148 350.649C525.22 350.682 525.284 350.73 525.337 350.789C525.389 350.849 525.427 350.919 525.45 350.995C525.473 351.07 525.48 351.15 525.469 351.229C525.48 351.307 525.473 351.387 525.45 351.462C525.427 351.538 525.389 351.608 525.337 351.668C525.284 351.727 525.22 351.775 525.148 351.808C525.076 351.84 524.997 351.857 524.918 351.857C524.839 351.857 524.761 351.84 524.689 351.808C524.616 351.775 524.552 351.727 524.5 351.668C524.448 351.608 524.409 351.538 524.386 351.462C524.363 351.387 524.357 351.307 524.368 351.229Z" fill="white"/>
<path d="M526.025 349.396C526.025 347.86 526.868 346.988 528.009 346.988C529.151 346.988 529.994 347.86 529.994 349.396C529.994 350.931 529.151 351.803 528.009 351.803C526.868 351.803 526.025 350.931 526.025 349.396ZM529.061 349.396C529.061 348.266 528.625 347.751 527.98 347.751C527.335 347.751 526.898 348.266 526.898 349.396C526.898 350.525 527.344 351.05 527.98 351.05C528.615 351.05 529.061 350.525 529.061 349.396Z" fill="white"/>
<path d="M530.52 349.396C530.52 347.86 531.364 346.988 532.505 346.988C533.646 346.988 534.489 347.86 534.489 349.396C534.489 350.931 533.646 351.803 532.505 351.803C531.364 351.803 530.52 350.931 530.52 349.396ZM533.566 349.396C533.566 348.266 533.12 347.751 532.475 347.751C531.83 347.751 531.403 348.266 531.403 349.396C531.403 350.525 531.84 351.05 532.475 351.05C533.11 351.05 533.566 350.525 533.566 349.396Z" fill="white"/>
<path d="M542.011 349.108H540.384V344.442H545.057V346.057H542.011V349.108Z" fill="white"/>
<path d="M545.057 355.191H540.384V350.535H542.001V353.577H545.057V355.191Z" fill="white"/>
<path d="M552.5 355.191H547.836V353.577H550.873V350.525H552.5V355.191Z" fill="white"/>
<path d="M552.5 349.098H550.883V346.057H547.826V344.442H552.5V349.098Z" fill="white"/>
<path d="M186.022 136.918H160.48L147.719 159.001L160.48 181.074H186.022L198.784 159.001L186.022 136.918Z" fill="#EBEBEB"/>
<path d="M162.564 163.321C161.376 162.102 160.331 160.752 159.448 159.298C158.558 157.831 158.184 156.108 158.386 154.404C158.654 153.449 158.869 152.48 159.031 151.502C159.13 150.134 158.555 148.708 159.031 147.43C159.785 145.448 162.475 145.121 164.112 143.744C165.382 142.664 166.007 140.921 167.406 140.019C168.706 139.332 170.208 139.129 171.644 139.445C173.065 139.771 174.524 139.898 175.98 139.821C176.986 139.606 177.98 139.338 178.957 139.019C179.94 138.71 181.004 138.784 181.934 139.227C182.389 139.474 182.728 139.89 182.88 140.384C183.032 140.878 182.985 141.412 182.748 141.872C184.425 141.099 186.548 142.407 187.005 144.18C187.18 145.088 187.097 146.026 186.766 146.89C186.434 147.753 185.867 148.506 185.129 149.064C183.645 150.169 181.903 150.878 180.069 151.125C174.938 152.116 169.381 151.551 164.965 148.777" fill="#263238"/>
<path d="M186.241 168.769C186.072 165.609 185.189 159.13 184.316 153.275C183.864 150.242 182.287 147.489 179.898 145.562C177.508 143.635 174.481 142.675 171.416 142.872H170.78C163.993 143.724 160.927 149.956 161.969 156.742L163.953 181.064H180.525C180.525 181.064 180.128 176.794 180.128 176.755C180.128 176.715 186.598 175.308 186.241 168.769Z" fill="#FFBE9D"/>
<path d="M180.118 176.675C177.098 176.929 174.069 176.285 171.415 174.823C171.415 174.823 173.757 179.39 180.247 178.369L180.118 176.675Z" fill="#EB996E"/>
<path d="M182.202 158.882C182.221 159.124 182.145 159.363 181.989 159.548C181.833 159.734 181.61 159.85 181.368 159.873C181.252 159.888 181.134 159.88 181.021 159.85C180.908 159.819 180.802 159.766 180.71 159.694C180.618 159.622 180.541 159.533 180.483 159.431C180.426 159.329 180.389 159.216 180.376 159.1C180.359 158.859 180.437 158.622 180.592 158.437C180.748 158.252 180.969 158.135 181.21 158.11C181.326 158.094 181.444 158.102 181.557 158.133C181.67 158.164 181.775 158.217 181.868 158.289C181.96 158.36 182.037 158.45 182.095 158.552C182.152 158.654 182.188 158.766 182.202 158.882Z" fill="#263238"/>
<path d="M183.125 156.564C183.016 156.693 182.271 156.217 181.259 156.287C180.247 156.356 179.552 156.911 179.433 156.792C179.314 156.673 179.433 156.514 179.791 156.257C180.206 155.929 180.711 155.735 181.239 155.702C181.763 155.664 182.285 155.796 182.728 156.079C183.055 156.297 183.174 156.505 183.125 156.564Z" fill="#263238"/>
<path d="M172.695 159.566C172.698 159.803 172.616 160.034 172.463 160.216C172.31 160.398 172.097 160.519 171.862 160.557C171.627 160.582 171.391 160.514 171.205 160.368C171.02 160.221 170.899 160.008 170.869 159.774C170.866 159.536 170.949 159.306 171.102 159.124C171.255 158.942 171.468 158.821 171.703 158.783C171.938 158.758 172.174 158.826 172.359 158.972C172.545 159.119 172.666 159.332 172.695 159.566Z" fill="#263238"/>
<path d="M173.241 157.416C173.132 157.545 172.388 157.069 171.376 157.139C170.363 157.208 169.669 157.753 169.55 157.644C169.431 157.535 169.55 157.367 169.907 157.109C170.323 156.774 170.832 156.575 171.366 156.542C171.899 156.508 172.429 156.64 172.884 156.921C173.172 157.139 173.291 157.357 173.241 157.416Z" fill="#263238"/>
<path d="M177.389 164.579C177.909 164.375 178.453 164.239 179.007 164.172C179.265 164.172 179.503 164.063 179.533 163.885C179.537 163.621 179.461 163.362 179.314 163.142L178.421 161.24C177.608 159.645 176.922 157.988 176.367 156.286C177.314 157.826 178.133 159.439 178.818 161.111C179.116 161.775 179.404 162.419 179.682 163.023C179.855 163.323 179.925 163.671 179.88 164.014C179.847 164.106 179.795 164.191 179.726 164.261C179.658 164.331 179.575 164.385 179.483 164.42C179.341 164.466 179.195 164.496 179.046 164.509C178.499 164.603 177.942 164.626 177.389 164.579Z" fill="#263238"/>
<path d="M173.231 153.453C173.152 153.73 172.139 153.671 170.969 153.899C169.798 154.127 168.865 154.503 168.686 154.265C168.508 154.028 168.766 153.889 169.133 153.592C169.621 153.229 170.189 152.988 170.79 152.888C171.387 152.771 172.004 152.802 172.586 152.977C173.033 153.126 173.271 153.324 173.231 153.453Z" fill="#263238"/>
<path d="M182.559 153.681C182.39 153.919 181.686 153.73 180.852 153.77C180.019 153.81 179.324 154.028 179.145 153.77C178.967 153.512 179.145 153.423 179.453 153.186C179.846 152.891 180.321 152.728 180.812 152.72C181.302 152.698 181.787 152.826 182.202 153.086C182.509 153.334 182.628 153.562 182.559 153.681Z" fill="#263238"/>
<path d="M162.812 161.607C162.693 161.607 158.217 160.616 158.664 165.044C159.11 169.473 163.953 168.017 163.943 167.917C163.933 167.818 162.812 161.607 162.812 161.607Z" fill="#FFBE9D"/>
<path d="M161.959 166.412C161.959 166.412 161.889 166.471 161.77 166.54C161.591 166.639 161.381 166.664 161.185 166.61C160.878 166.456 160.618 166.224 160.431 165.937C160.244 165.649 160.138 165.317 160.123 164.975C160.071 164.595 160.109 164.209 160.232 163.846C160.258 163.7 160.319 163.563 160.411 163.447C160.503 163.332 160.622 163.24 160.758 163.182C160.845 163.152 160.939 163.153 161.025 163.183C161.112 163.214 161.185 163.273 161.234 163.35C161.314 163.469 161.294 163.568 161.314 163.568C161.333 163.568 161.403 163.489 161.314 163.301C161.278 163.195 161.208 163.105 161.115 163.043C161.049 163.002 160.976 162.974 160.899 162.962C160.822 162.95 160.744 162.954 160.669 162.974C160.49 163.03 160.328 163.13 160.198 163.265C160.068 163.4 159.974 163.566 159.924 163.747C159.776 164.152 159.728 164.587 159.785 165.015C159.796 165.415 159.928 165.802 160.164 166.125C160.399 166.449 160.728 166.694 161.105 166.828C161.229 166.85 161.357 166.845 161.479 166.812C161.6 166.78 161.714 166.721 161.81 166.639C162.018 166.56 162.018 166.412 161.959 166.412Z" fill="#EB996E"/>
<path d="M183.988 147.162C183.681 148.936 180.068 150.57 177.042 150.481C174.283 150.402 172.914 149.035 170.919 148.064C169.649 147.449 169.649 147.449 167.942 147.727C166.553 147.955 165.828 149.589 165.054 150.768C166.543 154.008 165.938 157.773 165.303 161.28C165.278 161.673 165.121 162.047 164.856 162.34C164.57 162.515 164.231 162.585 163.899 162.536C163.567 162.487 163.263 162.323 163.04 162.072C162.306 161.284 161.816 160.3 161.631 159.239C161.006 156.871 160.857 154.403 161.194 151.977C161.523 149.55 162.559 147.273 164.171 145.428C166.298 143.191 169.212 141.866 172.298 141.733C175.372 141.62 178.403 142.476 180.962 144.18C182.182 144.913 183.204 145.934 183.939 147.152" fill="#263238"/>
<path d="M178.054 166.877L175.772 165.817C175.645 165.745 175.5 165.711 175.355 165.718C175.196 165.754 175.057 165.85 174.968 165.986C174.7 166.303 174.533 166.693 174.487 167.106C174.441 167.518 174.518 167.935 174.71 168.304C174.918 168.665 175.247 168.941 175.639 169.085C176.031 169.228 176.461 169.228 176.853 169.087C177.237 168.876 177.556 168.566 177.778 168.19C178 167.813 178.116 167.384 178.113 166.947L178.054 166.877Z" fill="#EB996E"/>
<path d="M176.903 169.255C176.903 169.255 176.427 169.622 175.563 169.374C175.059 169.203 174.638 168.849 174.383 168.383C174.22 168.103 174.123 167.791 174.097 167.469C174.071 167.146 174.118 166.823 174.234 166.521C174.355 166.206 174.545 165.921 174.789 165.688C174.908 165.579 175.038 165.483 175.176 165.401C175.268 165.353 175.37 165.327 175.474 165.327C175.578 165.327 175.68 165.353 175.772 165.401C176.298 165.688 176.645 165.936 176.992 166.154C177.657 166.6 178.054 166.907 177.985 166.966C177.915 167.026 177.488 166.838 176.774 166.471L175.553 165.837C175.464 165.837 175.474 165.837 175.375 165.837C175.275 165.904 175.182 165.98 175.097 166.065C174.91 166.248 174.768 166.472 174.68 166.719C174.591 166.952 174.552 167.201 174.566 167.45C174.58 167.7 174.646 167.943 174.76 168.165C174.953 168.539 175.268 168.836 175.653 169.007C176.397 169.324 176.903 169.166 176.903 169.255Z" fill="#263238"/>
<path d="M176.198 158.991C176.198 158.991 176.198 158.585 175.96 157.882C175.673 156.9 175.069 156.04 174.244 155.435C173.582 154.944 172.797 154.646 171.976 154.575C171.155 154.503 170.331 154.661 169.594 155.031C168.858 155.4 168.239 155.966 167.807 156.667C167.374 157.367 167.145 158.174 167.145 158.996C167.145 159.819 167.374 160.625 167.807 161.326C168.239 162.026 168.858 162.593 169.594 162.962C170.331 163.331 171.155 163.489 171.976 163.418C172.797 163.347 173.582 163.049 174.244 162.558C175.069 161.953 175.673 161.093 175.96 160.111C176.159 159.407 176.149 158.991 176.198 158.991C176.248 158.991 176.198 159.1 176.198 159.298C176.205 159.588 176.175 159.878 176.109 160.16C175.886 161.225 175.292 162.177 174.432 162.845C173.789 163.346 173.031 163.677 172.226 163.809C171.422 163.941 170.597 163.868 169.828 163.598C168.876 163.26 168.052 162.636 167.47 161.812C166.887 160.988 166.575 160.005 166.575 158.996C166.575 157.988 166.887 157.004 167.47 156.18C168.052 155.356 168.876 154.732 169.828 154.394C170.597 154.124 171.422 154.052 172.226 154.183C173.031 154.315 173.789 154.646 174.432 155.147C175.292 155.816 175.886 156.767 176.109 157.832C176.175 158.115 176.205 158.404 176.198 158.694C176.228 158.892 176.218 158.991 176.198 158.991Z" fill="#263238"/>
<path d="M187.342 158.555C187.293 158.555 187.342 158.159 187.104 157.475C186.826 156.521 186.24 155.685 185.437 155.098C184.793 154.62 184.029 154.331 183.231 154.262C182.432 154.193 181.63 154.346 180.913 154.706C180.197 155.066 179.595 155.617 179.174 156.298C178.753 156.98 178.53 157.765 178.53 158.565C178.53 159.366 178.753 160.15 179.174 160.832C179.595 161.513 180.197 162.065 180.913 162.424C181.63 162.784 182.432 162.938 183.231 162.868C184.029 162.799 184.793 162.51 185.437 162.033C186.24 161.445 186.826 160.609 187.104 159.655C187.303 158.971 187.293 158.565 187.342 158.565C187.392 158.565 187.342 158.664 187.342 158.862C187.348 159.145 187.321 159.428 187.263 159.704C187.041 160.741 186.462 161.667 185.626 162.32C184.998 162.81 184.258 163.134 183.472 163.262C182.686 163.39 181.881 163.318 181.13 163.053C180.203 162.723 179.401 162.114 178.834 161.31C178.266 160.507 177.962 159.548 177.962 158.565C177.962 157.582 178.266 156.623 178.834 155.82C179.401 155.016 180.203 154.408 181.13 154.077C181.881 153.812 182.686 153.74 183.472 153.868C184.258 153.997 184.998 154.321 185.626 154.81C186.462 155.467 187.042 156.396 187.263 157.436C187.322 157.712 187.349 157.995 187.342 158.278C187.372 158.456 187.362 158.555 187.342 158.555Z" fill="#263238"/>
<path d="M178.252 157.535C178.153 157.624 177.707 157.337 177.111 157.357C176.516 157.377 176.119 157.664 175.98 157.575C175.841 157.485 176.258 156.861 177.101 156.842C177.945 156.822 178.381 157.456 178.252 157.535Z" fill="#263238"/>
<path d="M167.148 158.337C167.237 158.446 166.364 159.239 165.213 160.101C164.562 160.694 163.8 161.152 162.97 161.448C162.881 161.339 163.754 160.547 164.905 159.685C165.555 159.09 166.317 158.632 167.148 158.337Z" fill="#263238"/>
<path d="M259.266 158.774C259.266 158.913 247.785 159.032 233.624 159.032C219.464 159.032 207.983 158.913 207.983 158.774C207.983 158.635 219.464 158.516 233.624 158.516C247.785 158.516 259.266 158.635 259.266 158.774Z" fill="#263238"/>
<path d="M235.54 164.133C235.54 164.272 229.447 164.391 221.925 164.391C214.403 164.391 208.31 164.272 208.31 164.133C208.31 163.994 214.403 163.865 221.925 163.865C229.447 163.865 235.54 163.985 235.54 164.133Z" fill="#263238"/>
<path d="M412.869 198.352C417.362 200.903 421.302 204.318 424.464 208.399C427.625 212.48 429.944 217.147 431.287 222.129C436.08 239.249 450.737 283.831 450.737 283.831C450.737 283.831 459.112 293.668 460.005 300.95C460.898 308.232 459.112 325.857 456.413 329.146C455.631 330.1 454.627 330.849 453.489 331.327C452.351 331.806 451.113 331.999 449.883 331.89L414.626 328.551L400.733 235.742L412.869 198.352Z" fill="#E96220"/>
<path d="M296.29 196.737C296.29 196.737 271.075 204.663 264.793 211.499L285.434 307.36L285.067 337.616H404.623C404.623 336.12 405.694 237.178 405.694 237.178L412.869 198.352L370.407 190.892L362.032 184.314L314.767 186.711L307.583 193.874L296.29 196.737Z" fill="#E96220"/>
<g opacity="0.3">
<path opacity="0.3" d="M305.906 279.907C305.539 279.095 305.003 278.213 304.13 278.035C302.691 277.738 301.728 279.432 301.242 280.819C297.43 291.686 292.148 301.983 285.543 311.422L285.236 326.144C292.182 320.289 299.069 314.018 303.515 306.082C307.96 298.146 309.617 288.19 305.906 279.907Z" fill="black"/>
</g>
<path d="M264.794 211.499C264.794 211.499 256.488 222.803 253.044 230.184C249.601 237.564 221.012 299.533 219.305 305.943C217.598 312.353 213.153 332.504 226.202 337.18H253.064L280.016 282.761L281.395 219.603L264.794 211.499Z" fill="#E96220"/>
<path d="M254.761 297.869C254.761 297.869 254.166 297.344 252.926 296.64C251.155 295.692 249.257 295.005 247.289 294.6C245.936 294.304 244.563 294.112 243.181 294.025C241.589 293.905 239.987 294.019 238.428 294.362C234.898 295.267 231.738 297.248 229.387 300.029C226.998 302.778 225.249 306.023 224.267 309.53C223.457 312.395 222.918 315.331 222.659 318.297C222.401 320.834 222.312 322.904 222.223 324.321C222.223 324.995 222.143 325.539 222.124 325.965C222.124 326.16 222.097 326.353 222.044 326.54C222.031 326.349 222.031 326.157 222.044 325.965C222.044 325.53 222.044 324.975 222.044 324.321C222.044 322.884 222.104 320.824 222.312 318.268C222.522 315.253 223.031 312.266 223.83 309.351C224.805 305.766 226.58 302.447 229.02 299.642C231.444 296.784 234.708 294.759 238.348 293.857C239.94 293.526 241.572 293.435 243.191 293.589C244.592 293.692 245.982 293.907 247.349 294.233C249.338 294.675 251.247 295.423 253.005 296.452C253.479 296.744 253.927 297.076 254.345 297.443C254.498 297.57 254.638 297.713 254.761 297.869Z" fill="#263238"/>
<path d="M242.03 287.031C242.323 286.945 242.627 286.899 242.933 286.892C243.762 286.828 244.594 286.828 245.423 286.892C246.658 286.964 247.883 287.147 249.085 287.437C252.042 288.151 254.817 289.473 257.232 291.321C258.216 292.068 259.129 292.904 259.961 293.817C260.525 294.436 261.039 295.099 261.499 295.799C261.686 296.041 261.84 296.308 261.956 296.591C261.876 296.651 261.142 295.6 259.693 294.095C258.837 293.238 257.918 292.447 256.944 291.727C255.745 290.855 254.47 290.092 253.134 289.448C251.79 288.823 250.396 288.312 248.966 287.922C247.793 287.621 246.599 287.409 245.394 287.288C243.329 287.021 242.03 287.13 242.03 287.031Z" fill="#263238"/>
<path d="M266.302 284.049C265.886 284.065 265.47 284.036 265.062 283.959C264.268 283.86 263.127 283.741 261.698 283.632C254.276 283.08 246.818 283.972 239.737 286.258C238.378 286.694 237.286 287.08 236.542 287.367C236.162 287.535 235.767 287.664 235.361 287.754C235.703 287.517 236.073 287.324 236.463 287.179C237.187 286.832 238.269 286.397 239.618 285.911C246.704 283.406 254.26 282.506 261.737 283.276C263.156 283.424 264.307 283.593 265.091 283.761C265.503 283.818 265.909 283.914 266.302 284.049Z" fill="#263238"/>
<path d="M342.801 231.095C342.692 231.001 342.598 230.891 342.523 230.768L341.789 229.777L339.089 226.052C336.777 222.783 333.542 218.226 329.742 212.876L330.158 212.817C328.71 217.057 327.112 221.733 325.435 226.686L325.326 226.994L325.048 226.815L324.492 226.459C322.33 225.077 320.364 223.411 318.647 221.505C317.061 219.731 315.661 217.799 314.47 215.739C312.487 212.254 310.944 208.537 309.875 204.673C309.158 202.063 308.578 199.418 308.139 196.747C307.98 195.856 307.861 195.132 307.762 194.587C307.733 194.403 307.69 194.22 307.633 194.043C307.633 193.924 307.563 193.864 307.573 193.854C307.583 193.844 307.98 194.845 308.337 196.717C308.694 198.59 309.26 201.285 310.232 204.544C311.331 208.372 312.894 212.052 314.886 215.501C316.074 217.522 317.461 219.421 319.024 221.168C320.712 223.028 322.641 224.654 324.76 226.003L325.306 226.359L324.929 226.498C326.626 221.545 328.233 216.898 329.702 212.628L329.851 212.192L330.119 212.569C333.85 217.968 337.065 222.565 339.318 225.854C340.399 227.459 341.302 228.737 341.908 229.668L342.573 230.659C342.664 230.796 342.74 230.942 342.801 231.095Z" fill="#263238"/>
<g opacity="0.3">
<path opacity="0.3" d="M373.91 276.856C372.84 288.035 375.267 299.27 380.857 309.015C386.414 318.664 394.571 327.273 404.722 331.89C405.05 322.052 404.573 310.461 404.901 300.623L373.91 276.856Z" fill="black"/>
</g>
<path d="M372.789 263.908C372.789 263.908 368.442 265.106 371.697 273.993C374.952 282.88 376.044 282.335 378.217 290.637C380.39 298.939 382.921 306.488 386.711 311.224C390.502 315.959 404.623 325.49 404.623 325.49L417.285 313.602C417.285 313.602 415.201 304.685 415.697 298.681C416.193 292.678 417.464 277.876 417.285 275.311C417.106 272.745 414.387 266.642 414.387 266.642V262.441L407.878 242.449C407.878 242.449 404.256 240.824 402.995 246.6L400.822 240.467C400.822 240.467 397.389 239.922 396.486 246.966C395.583 254.01 397.21 263.759 397.21 263.759L395.394 276.034L392.685 284.346L390.333 284.702C390.333 284.702 386.791 283.712 384.856 277.084C382.921 270.456 377.671 262.461 372.789 263.908Z" fill="#FFBE9D"/>
<path d="M413.077 295.352C413.077 295.352 413.077 295.204 413.018 294.907C412.958 294.609 412.958 294.124 412.928 293.579C412.859 292.37 412.77 290.696 412.661 288.626C412.462 284.316 412.194 278.312 411.877 271.308L411.926 271.457C411.602 271.121 411.192 270.881 410.741 270.762C410.289 270.643 409.814 270.65 409.366 270.783C408.881 270.901 408.423 271.114 408.021 271.409C407.619 271.705 407.28 272.078 407.024 272.507C405.913 274.28 405.853 276.598 405.506 278.827C404.821 283.89 404.166 288.735 403.571 293.104C403.273 295.303 402.956 297.383 402.529 299.315C402.127 301.107 401.6 302.868 400.951 304.586C400.395 306.161 399.899 307.558 399.592 308.876C399.317 309.961 399.18 311.076 399.185 312.195C399.22 313.157 399.387 314.111 399.681 315.028C399.562 314.806 399.462 314.574 399.383 314.334C399.148 313.648 399.014 312.93 398.986 312.204C398.939 311.056 399.049 309.906 399.314 308.786C399.662 307.316 400.096 305.867 400.614 304.447C401.227 302.736 401.724 300.985 402.102 299.206C402.509 297.294 402.817 295.243 403.094 293.024C403.67 288.626 404.315 283.811 404.99 278.738C405.149 277.619 405.268 276.499 405.466 275.39C405.629 274.268 406.006 273.189 406.578 272.209C406.873 271.729 407.261 271.311 407.719 270.981C408.177 270.651 408.697 270.415 409.247 270.288C409.782 270.127 410.351 270.12 410.89 270.267C411.429 270.414 411.915 270.71 412.293 271.12L412.343 271.189V271.268C412.591 278.273 412.799 284.276 412.948 288.596C412.948 290.686 413.038 292.361 413.077 293.549C413.077 294.094 413.077 294.54 413.077 294.877C413.094 295.035 413.094 295.194 413.077 295.352Z" fill="#EB996E"/>
<path d="M406.131 272.566C405.906 272.214 405.726 271.835 405.595 271.437C405.181 270.381 404.826 269.303 404.534 268.207C404.108 266.581 403.806 264.925 403.631 263.254C403.508 262.268 403.488 261.272 403.571 260.282C403.663 259.175 404.039 258.11 404.663 257.191C405.219 256.366 406.037 255.752 406.985 255.447L407.173 255.397L407.272 255.566C409.108 258.796 410.706 261.649 411.817 263.7L413.117 266.127C413.295 266.411 413.435 266.718 413.534 267.038C413.312 266.786 413.119 266.511 412.959 266.216L411.53 263.868C410.339 261.887 408.682 259.043 406.836 255.823L407.124 255.942C406.293 256.219 405.578 256.763 405.089 257.488C404.518 258.338 404.176 259.321 404.097 260.341C403.998 261.309 403.998 262.285 404.097 263.254C404.246 264.921 404.508 266.576 404.881 268.207C405.199 269.594 405.546 270.704 405.774 271.467C405.929 271.821 406.049 272.189 406.131 272.566Z" fill="#EB996E"/>
<path d="M403.095 274.191C403.006 273.811 402.966 273.422 402.976 273.032C402.976 272.18 402.896 271.13 402.847 269.891C402.767 267.236 402.678 263.571 402.628 259.519C402.48 256.054 402.533 252.584 402.787 249.126C402.911 248.076 403.137 247.041 403.462 246.035C403.558 245.655 403.716 245.294 403.928 244.965C403.564 246.344 403.302 247.748 403.144 249.166C402.896 251.791 403.144 255.457 403.144 259.509C403.144 263.561 403.224 267.226 403.214 269.881C403.214 271.13 403.214 272.18 403.214 273.032C403.217 273.421 403.177 273.81 403.095 274.191Z" fill="#EB996E"/>
<path d="M392.388 307.489C392.318 307.429 393.112 306.498 394.084 304.804C394.655 303.816 395.149 302.786 395.563 301.723C396.05 300.415 396.428 299.07 396.694 297.701C396.926 296.326 397.042 294.934 397.042 293.54C397.026 292.401 396.927 291.265 396.744 290.142C396.416 288.21 396 287.06 396.089 287.031C396.245 287.273 396.366 287.537 396.446 287.813C396.726 288.547 396.945 289.303 397.101 290.072C397.344 291.21 397.484 292.367 397.518 293.53C397.605 296.396 397.088 299.248 396 301.901C395.561 302.977 395.026 304.012 394.402 304.992C393.988 305.657 393.52 306.287 393.003 306.875C392.636 307.291 392.417 307.509 392.388 307.489Z" fill="#EB996E"/>
<path d="M414.616 301.297L425.601 305.101C425.601 305.101 436.1 299.682 443.334 305.101C450.568 310.52 456.849 324.797 454.864 330.572C454.864 330.572 449.903 336.735 446.072 337.636C442.242 338.538 427.506 334.961 421.363 333.673C415.221 332.385 404.623 325.51 404.623 325.51L414.616 301.297Z" fill="#FFBE9D"/>
<path d="M415.965 317.436C415.888 317.111 415.848 316.779 415.846 316.445C415.846 315.702 415.757 314.82 415.697 313.79C415.578 311.551 415.429 308.46 415.38 305.032C415.33 301.604 415.429 298.503 415.628 296.264C415.727 295.145 415.856 294.283 415.965 293.619C415.989 293.279 416.066 292.945 416.193 292.628C416.273 292.628 416.104 294.015 415.995 296.254C415.886 298.493 415.846 301.574 415.896 304.992C415.945 308.41 416.015 311.362 416.054 313.74C416.054 314.86 416.054 315.771 416.054 316.395C416.081 316.745 416.051 317.096 415.965 317.436Z" fill="#EB996E"/>
<path d="M452.195 304.646C451.057 303.465 449.836 302.366 448.543 301.356C445.366 298.983 441.556 297.601 437.594 297.384C433.632 297.167 429.694 298.125 426.275 300.138C424.889 301.001 423.562 301.957 422.306 303.001C422.568 302.637 422.871 302.305 423.209 302.01C424.102 301.182 425.076 300.445 426.117 299.811C429.568 297.665 433.599 296.634 437.658 296.859C441.718 297.084 445.609 298.554 448.801 301.069C449.767 301.81 450.651 302.65 451.441 303.576C451.733 303.901 451.987 304.261 452.195 304.646Z" fill="#263238"/>
<path d="M450.786 295.501C449.367 294.484 447.831 293.639 446.211 292.985C442.23 291.574 437.905 291.446 433.847 292.618C431.615 293.244 429.466 294.135 427.446 295.273C425.803 296.216 424.251 297.311 422.812 298.543C421.582 299.593 420.639 300.524 419.994 301.148C419.678 301.509 419.329 301.841 418.952 302.139C419.21 301.739 419.51 301.367 419.845 301.029C420.702 300.064 421.613 299.148 422.574 298.285C424 296.999 425.553 295.861 427.208 294.887C429.248 293.697 431.432 292.775 433.708 292.143C437.866 290.93 442.308 291.115 446.35 292.668C447.558 293.149 448.696 293.789 449.734 294.57C450.101 294.837 450.349 295.095 450.538 295.254C450.727 295.412 450.786 295.491 450.786 295.501Z" fill="#263238"/>
<path d="M450.875 287.575C450.875 287.674 448.891 287.09 445.735 286.664C443.87 286.414 441.99 286.295 440.109 286.307C437.804 286.333 435.504 286.538 433.232 286.922C430.964 287.338 428.731 287.927 426.553 288.685C424.778 289.314 423.051 290.069 421.383 290.944C418.535 292.43 416.928 293.639 416.868 293.549C417.205 293.223 417.574 292.931 417.97 292.678C418.402 292.338 418.856 292.027 419.329 291.746C419.875 291.4 420.49 290.993 421.205 290.617C422.873 289.696 424.607 288.901 426.395 288.239C428.588 287.44 430.845 286.83 433.142 286.416C435.437 286.028 437.761 285.833 440.089 285.832C441.993 285.841 443.894 285.997 445.775 286.297C446.579 286.396 447.293 286.585 447.918 286.714C448.461 286.823 448.998 286.962 449.526 287.13C449.988 287.239 450.439 287.388 450.875 287.575Z" fill="#263238"/>
<path d="M366.696 190.565C367.107 191.488 367.362 192.472 367.45 193.478C367.746 196.319 367.606 199.189 367.033 201.988C366.685 203.997 366.211 205.983 365.614 207.933C364.832 210.202 363.87 212.405 362.737 214.521C360.365 219.078 357.388 224.042 353.935 229.381L353.538 230.006V229.263C353.538 225.755 353.538 222.08 353.538 218.266L353.925 218.454L344.607 225.874L344.686 225.755C342.476 232.987 341.117 240.451 340.637 247.997C339.724 260.054 340.459 271.586 341.024 282.048C341.59 292.509 341.838 301.951 342.166 309.877C342.493 317.802 342.761 324.202 342.999 328.631C343.138 330.83 343.237 332.534 343.307 333.723C343.307 334.288 343.376 334.714 343.396 335.051C343.416 335.387 343.396 335.506 343.396 335.506C343.396 335.506 343.396 335.358 343.327 335.06C343.257 334.763 343.247 334.298 343.188 333.733C343.079 332.574 342.94 330.86 342.791 328.641C342.493 324.222 342.146 317.812 341.798 309.887C341.451 301.961 341.024 292.539 340.548 282.067C340.072 271.596 339.208 260.054 340.121 247.957C340.623 240.367 342.019 232.862 344.279 225.597V225.528H344.339L353.627 218.087L354.014 217.77V218.266C354.014 222.08 354.014 225.755 354.014 229.263L353.607 229.134C360.424 218.583 365.972 209.409 366.825 201.988C367.414 199.216 367.595 196.372 367.361 193.547C367.28 192.805 367.144 192.07 366.954 191.348C366.756 190.813 366.696 190.565 366.696 190.565Z" fill="#263238"/>
<path d="M348.894 318.357H348.576C347.854 318.403 347.177 318.728 346.691 319.263C346.204 319.799 345.945 320.502 345.968 321.224C345.991 321.947 346.295 322.632 346.815 323.135C347.335 323.638 348.031 323.919 348.755 323.919C349.479 323.919 350.175 323.638 350.695 323.135C351.215 322.632 351.519 321.947 351.542 321.224C351.565 320.502 351.306 319.799 350.819 319.263C350.332 318.728 349.656 318.403 348.933 318.357H348.894Z" fill="white"/>
<path d="M348.893 280.175H348.576C347.856 280.221 347.182 280.545 346.697 281.079C346.212 281.612 345.954 282.313 345.977 283.033C346 283.752 346.303 284.435 346.822 284.936C347.34 285.437 348.033 285.717 348.754 285.717C349.476 285.717 350.169 285.437 350.687 284.936C351.206 284.435 351.508 283.752 351.531 283.033C351.555 282.313 351.296 281.612 350.812 281.079C350.327 280.545 349.653 280.221 348.933 280.175H348.893Z" fill="white"/>
<path d="M348.576 246.015C349.317 246.064 350.047 245.817 350.605 245.328C351.163 244.839 351.504 244.149 351.553 243.41C351.602 242.67 351.354 241.941 350.865 241.384C350.375 240.827 349.684 240.486 348.943 240.438H348.576C347.834 240.438 347.122 240.732 346.597 241.256C346.072 241.78 345.778 242.49 345.778 243.231C345.778 243.972 346.072 244.683 346.597 245.207C347.122 245.731 347.834 246.025 348.576 246.025V246.015Z" fill="white"/>
<path d="M305.677 145.825C302.204 141.971 298.731 138.087 296.161 133.57C293.591 129.052 292.112 123.771 292.946 118.709C293.442 115.737 294.712 112.864 294.93 109.793C295.208 105.632 293.462 101.282 294.93 97.3888C297.233 91.286 305.459 90.3449 310.441 86.1344C314.321 82.8551 316.206 77.535 320.473 74.7808C324.204 72.3635 328.997 72.4229 333.373 73.0372C337.749 73.6514 342.195 74.7709 346.601 74.1765C349.737 73.7604 352.694 72.4923 355.76 71.7294C358.827 70.9666 362.27 70.7387 364.999 72.3635C367.728 73.9883 369.276 77.8223 367.48 80.4279C372.58 78.0799 379.06 82.0526 380.459 87.4817C381.859 92.9108 379.06 98.7857 374.734 102.342C370.407 105.899 364.81 107.593 359.303 108.633C343.684 111.606 326.725 109.911 313.259 101.471" fill="#263238"/>
<path d="M360.623 198.263C359.859 192.319 359.234 187.435 359.194 186.82C359.194 186.82 378.961 182.382 377.87 162.429C377.344 152.779 374.645 133.005 371.985 115.142C370.619 105.883 365.807 97.4769 358.509 91.6012C351.211 85.7256 341.964 82.8114 332.61 83.4397L330.625 83.5586C309.935 86.1641 300.577 105.166 303.753 125.753L314.926 194.776C314.926 194.776 319.689 210.043 329.881 212.688L342.781 231.036L344.905 223.11L354.49 214.768C356.327 212.612 357.915 210.255 359.224 207.744C360.687 204.812 361.178 201.491 360.623 198.263Z" fill="#FFBE9D"/>
<path d="M359.204 186.543C359.204 186.543 346.651 188.405 332.669 180.886C332.669 180.886 339.794 194.825 359.601 191.705L359.204 186.543Z" fill="#EB996E"/>
<path d="M365.565 132.302C365.62 133.044 365.384 133.779 364.906 134.35C364.428 134.922 363.746 135.285 363.005 135.363C362.643 135.416 362.275 135.396 361.922 135.304C361.569 135.212 361.238 135.051 360.948 134.829C360.659 134.608 360.417 134.33 360.236 134.013C360.056 133.697 359.941 133.347 359.899 132.985C359.832 132.237 360.065 131.493 360.547 130.915C361.029 130.338 361.719 129.974 362.469 129.904C362.83 129.853 363.199 129.874 363.552 129.968C363.905 130.062 364.236 130.225 364.525 130.449C364.814 130.672 365.054 130.951 365.233 131.27C365.412 131.588 365.524 131.939 365.565 132.302Z" fill="#263238"/>
<path d="M368.353 125.228C368.026 125.624 365.753 124.168 362.687 124.386C359.621 124.604 357.507 126.278 357.11 125.941C356.941 125.793 357.259 125.099 358.192 124.317C359.456 123.308 361.002 122.716 362.618 122.622C364.216 122.507 365.809 122.906 367.162 123.762C368.155 124.396 368.512 125.05 368.353 125.228Z" fill="#263238"/>
<path d="M336.569 134.372C336.627 135.114 336.391 135.849 335.913 136.42C335.434 136.99 334.75 137.351 334.009 137.424C333.648 137.478 333.28 137.459 332.927 137.369C332.574 137.278 332.243 137.118 331.953 136.897C331.663 136.676 331.421 136.399 331.24 136.083C331.06 135.767 330.945 135.417 330.903 135.056C330.847 134.315 331.082 133.581 331.557 133.01C332.033 132.439 332.713 132.075 333.453 131.994C333.815 131.942 334.183 131.961 334.537 132.053C334.891 132.145 335.223 132.306 335.513 132.527C335.803 132.749 336.046 133.026 336.228 133.343C336.409 133.66 336.525 134.01 336.569 134.372Z" fill="#263238"/>
<path d="M338.226 127.814C337.889 128.21 335.626 126.753 332.56 126.971C329.494 127.189 327.34 128.864 326.983 128.507C326.804 128.358 327.122 127.665 328.055 126.882C329.323 125.875 330.873 125.283 332.491 125.188C334.085 125.074 335.675 125.473 337.025 126.327C338.018 126.981 338.385 127.635 338.226 127.814Z" fill="#263238"/>
<path d="M350.878 149.797C350.878 149.619 352.744 149.163 355.84 148.559C356.614 148.43 357.348 148.222 357.447 147.687C357.457 146.873 357.218 146.074 356.763 145.399L354.044 139.593C350.263 131.331 347.465 124.505 347.802 124.356C348.139 124.207 351.474 130.786 355.264 139.058L357.884 144.903C358.439 145.814 358.657 146.89 358.499 147.945C358.403 148.227 358.244 148.485 358.035 148.697C357.825 148.91 357.57 149.073 357.289 149.173C356.862 149.321 356.419 149.414 355.969 149.451C352.833 149.827 350.908 149.966 350.878 149.797Z" fill="#263238"/>
<path d="M338.206 115.747C337.958 116.609 334.872 116.411 331.26 117.084C327.648 117.758 324.84 118.937 324.314 118.224C324.075 117.877 324.532 117.064 325.653 116.173C327.155 115.085 328.884 114.35 330.711 114.024C332.538 113.698 334.415 113.789 336.202 114.291C337.601 114.736 338.315 115.351 338.206 115.747Z" fill="#263238"/>
<path d="M366.627 116.43C366.14 117.163 363.977 116.589 361.427 116.718C358.876 116.846 356.763 117.5 356.217 116.807C355.979 116.47 356.277 115.747 357.209 115.024C358.421 114.153 359.865 113.66 361.357 113.607C362.849 113.554 364.324 113.944 365.595 114.726C366.507 115.38 366.845 116.034 366.627 116.43Z" fill="#263238"/>
<path d="M306.422 140.465C306.075 140.346 292.43 137.334 293.78 150.937C295.129 164.539 309.875 160.101 309.875 159.715C309.875 159.328 306.422 140.465 306.422 140.465Z" fill="#FFBE9D"/>
<path d="M303.842 155.246C303.772 155.246 303.623 155.435 303.236 155.653C302.699 155.952 302.065 156.031 301.47 155.871C299.972 155.484 298.493 153.324 298.225 150.917C298.077 149.755 298.189 148.574 298.553 147.459C298.642 147.025 298.834 146.617 299.114 146.273C299.394 145.928 299.753 145.655 300.16 145.478C300.427 145.38 300.719 145.377 300.987 145.472C301.256 145.566 301.482 145.75 301.629 145.993C301.847 146.36 301.788 146.637 301.857 146.647C301.927 146.657 302.125 146.399 301.966 145.845C301.854 145.514 301.634 145.232 301.341 145.042C301.139 144.907 300.913 144.813 300.674 144.765C300.436 144.717 300.19 144.717 299.952 144.765C299.405 144.932 298.909 145.237 298.513 145.65C298.117 146.062 297.834 146.569 297.689 147.123C297.224 148.358 297.071 149.688 297.243 150.996C297.6 153.731 299.227 156.158 301.282 156.524C301.659 156.596 302.048 156.582 302.419 156.482C302.79 156.383 303.134 156.201 303.425 155.95C303.852 155.573 303.921 155.266 303.842 155.246Z" fill="#EB996E"/>
<path d="M370.983 96.5665C370.05 101.986 359.075 106.949 349.926 106.682C341.521 106.434 337.363 102.273 331.26 99.3107C327.39 97.4383 327.39 97.4383 322.141 98.32C317.903 99.0036 315.7 104.007 313.319 107.573C317.854 117.48 316.018 128.933 314.093 139.633C314.01 140.839 313.524 141.983 312.713 142.882C311.185 144.23 308.744 143.427 307.196 142.05C304.785 139.841 303.683 136.571 302.899 133.401C300.976 126.19 300.518 118.669 301.55 111.279C302.593 103.852 305.795 96.8943 310.759 91.2662C317.25 84.4366 326.145 80.3908 335.567 79.982C344.941 79.6465 354.184 82.2671 361.983 87.4718C365.595 89.8396 368.929 92.7621 371.013 96.5566" fill="#263238"/>
<path d="M352.893 156.653L345.946 153.423C345.566 153.199 345.128 153.088 344.686 153.106C344.197 153.216 343.769 153.506 343.485 153.919C342.671 154.892 342.163 156.083 342.026 157.344C341.888 158.604 342.126 159.877 342.711 161.002C343.347 162.099 344.347 162.938 345.538 163.376C346.728 163.814 348.035 163.822 349.231 163.4C351.692 162.409 352.883 159.526 353.081 156.871L352.893 156.653Z" fill="#EB996E"/>
<path d="M349.449 163.915C349.449 163.975 349.122 164.173 348.457 164.321C347.462 164.5 346.438 164.425 345.48 164.103C344.015 163.611 342.787 162.59 342.037 161.24C341.562 160.418 341.277 159.5 341.204 158.554C341.13 157.608 341.269 156.657 341.61 155.772C341.959 154.854 342.508 154.025 343.218 153.344C343.562 153.019 343.941 152.734 344.349 152.492C344.593 152.347 344.869 152.262 345.153 152.245C345.428 152.234 345.703 152.284 345.956 152.393C346.327 152.58 346.688 152.785 347.038 153.008L347.981 153.592L349.678 154.642C351.732 155.95 352.972 156.822 352.903 156.941C352.833 157.059 351.464 156.425 349.31 155.276L347.554 154.286L346.562 153.741C346.224 153.572 345.867 153.344 345.569 153.225C345.447 153.167 345.311 153.143 345.176 153.157C345.041 153.171 344.913 153.222 344.805 153.305C344.476 153.512 344.17 153.755 343.892 154.028C343.303 154.613 342.844 155.315 342.543 156.089C342.255 156.839 342.132 157.642 342.184 158.444C342.235 159.246 342.459 160.027 342.841 160.735C343.459 161.921 344.474 162.853 345.708 163.37C346.563 163.714 347.477 163.886 348.398 163.876C349.053 163.905 349.42 163.846 349.449 163.915Z" fill="#263238"/>
<path d="M347.256 132.648C347.158 131.488 346.975 130.335 346.711 129.201C346.219 127.304 345.336 125.53 344.117 123.994C342.898 122.459 341.371 121.194 339.634 120.283C337.896 119.371 335.987 118.833 334.029 118.701C332.071 118.57 330.107 118.85 328.263 119.521C326.992 119.977 325.798 120.621 324.72 121.434C323.572 122.255 322.566 123.259 321.744 124.406C319.975 126.793 319.02 129.684 319.02 132.653C319.02 135.623 319.975 138.514 321.744 140.901C322.566 142.048 323.572 143.052 324.72 143.873C325.798 144.685 326.992 145.33 328.263 145.785C330.107 146.451 332.07 146.725 334.026 146.591C335.982 146.457 337.889 145.918 339.625 145.007C341.36 144.096 342.887 142.834 344.107 141.302C345.327 139.769 346.214 138 346.711 136.106C346.974 134.974 347.156 133.826 347.256 132.668C347.268 132.744 347.268 132.821 347.256 132.896C347.256 133.074 347.256 133.302 347.256 133.57C347.265 133.938 347.239 134.306 347.177 134.669C347.122 135.17 347.032 135.667 346.909 136.156C346.595 137.504 346.076 138.797 345.371 139.99C343.676 142.882 341.02 145.09 337.863 146.23C334.707 147.37 331.251 147.371 328.094 146.231C326.779 145.762 325.545 145.093 324.433 144.25C323.248 143.402 322.209 142.368 321.357 141.188C319.524 138.715 318.534 135.72 318.534 132.643C318.534 129.567 319.524 126.572 321.357 124.099C322.203 122.917 323.239 121.882 324.423 121.037C325.535 120.194 326.77 119.525 328.085 119.056C330.516 118.184 333.138 117.979 335.676 118.461C337.685 118.845 339.589 119.654 341.26 120.833C342.93 122.012 344.329 123.534 345.361 125.297C346.066 126.49 346.585 127.783 346.899 129.131C347.022 129.62 347.112 130.117 347.167 130.617C347.229 130.981 347.255 131.349 347.246 131.717C347.246 131.985 347.246 132.212 347.246 132.391C347.263 132.476 347.266 132.563 347.256 132.648Z" fill="#263238"/>
<path d="M381.234 131.311C381.137 130.18 380.961 129.058 380.708 127.952C379.912 124.956 378.13 122.314 375.647 120.453C373.955 119.168 371.983 118.302 369.891 117.926C367.492 117.487 365.018 117.695 362.727 118.531C361.494 118.976 360.334 119.6 359.283 120.383C358.178 121.191 357.207 122.167 356.406 123.276C354.69 125.605 353.765 128.42 353.765 131.311C353.765 134.201 354.69 137.017 356.406 139.345C357.205 140.454 358.176 141.427 359.283 142.228C360.331 143.018 361.492 143.646 362.727 144.091C365.019 144.922 367.492 145.13 369.891 144.695C371.983 144.319 373.955 143.453 375.647 142.169C378.13 140.307 379.912 137.666 380.708 134.669C380.961 133.563 381.137 132.441 381.234 131.311C381.258 131.604 381.258 131.899 381.234 132.193C381.237 132.554 381.211 132.915 381.154 133.272C381.102 133.76 381.015 134.243 380.896 134.719C380.264 137.314 378.9 139.673 376.965 141.516C375.03 143.36 372.606 144.611 369.981 145.121C367.505 145.588 364.949 145.386 362.578 144.537C359.955 143.583 357.671 141.881 356.009 139.643C354.223 137.231 353.26 134.31 353.26 131.311C353.26 128.311 354.223 125.391 356.009 122.979C357.671 120.74 359.955 119.039 362.578 118.085C364.949 117.236 367.505 117.034 369.981 117.5C372.606 118.01 375.03 119.261 376.965 121.105C378.9 122.949 380.264 125.308 380.896 127.903C381.015 128.378 381.102 128.862 381.154 129.349C381.211 129.706 381.237 130.068 381.234 130.429C381.258 130.722 381.258 131.017 381.234 131.311Z" fill="#263238"/>
<path d="M353.538 128.18C353.478 128.23 353.151 127.962 352.545 127.675C351.765 127.304 350.909 127.117 350.045 127.13C349.182 127.142 348.335 127.36 347.574 127.764C346.978 128.071 346.661 128.359 346.581 128.299C346.502 128.24 346.76 127.863 347.355 127.447C348.14 126.914 349.063 126.621 350.011 126.605C350.96 126.59 351.893 126.851 352.694 127.358C353.299 127.754 353.538 128.141 353.538 128.18Z" fill="#263238"/>
<path d="M319.649 130.627C317.686 132.408 315.611 134.062 313.437 135.581C311.358 137.231 309.178 138.75 306.908 140.128C308.869 138.341 310.948 136.686 313.13 135.175C315.203 133.52 317.381 132.001 319.649 130.627Z" fill="#263238"/>
<g opacity="0.3">
<path opacity="0.3" d="M307.89 195.103C306.511 208.547 311.632 222.744 322.438 230.887C323.281 231.531 324.343 232.165 325.346 231.799C326.014 231.475 326.548 230.929 326.854 230.253C329.88 225.033 331.016 218.932 330.069 212.975C328.362 217.473 326.894 221.892 325.167 226.588C315.77 220.881 309.875 208.755 307.89 195.103Z" fill="black"/>
</g>
<path opacity="0.3" d="M344.478 225.676L352.416 222.783L353.726 236.168C353.726 236.168 362.28 220.604 365.823 213.51C369.365 206.417 367.54 193.874 367.54 193.874C367.54 193.874 368.8 204.772 360.236 218.711L353.766 229.213V218.216L344.478 225.676Z" fill="black"/>
<g opacity="0.3">
<path opacity="0.3" d="M252.32 293.698C248.701 292.163 244.725 291.666 240.839 292.261C236.697 292.6 232.735 294.097 229.407 296.581C226.192 299.167 224.019 303.248 224.445 307.35L224.842 307.399C227.611 299.93 233.108 294.52 240.203 293.837C247.299 293.153 254.215 296.323 259.058 301.525C258.532 297.641 255.813 295.352 252.32 293.698Z" fill="black"/>
</g>
<g opacity="0.3">
<path opacity="0.3" d="M452.711 301.297C449.961 298.479 446.366 296.632 442.47 296.036C439.077 295.469 435.6 295.671 432.295 296.626C428.99 297.581 425.943 299.265 423.378 301.554L424.886 300.326C428.723 298.019 433.129 296.825 437.608 296.878C442.103 296.955 446.414 298.675 449.724 301.713C452.701 304.526 454.477 308.341 456.174 312.056C456.449 310.118 456.28 308.143 455.68 306.279C455.08 304.416 454.065 302.712 452.711 301.297Z" fill="black"/>
</g>
<path d="M401.616 239.18C401.697 238.808 401.817 238.446 401.973 238.1C402.281 237.317 402.658 236.356 403.095 235.217C404.087 232.789 405.377 229.441 406.766 225.706C408.156 221.971 409.356 218.573 410.22 216.116L411.212 213.193C411.318 212.828 411.465 212.476 411.649 212.143C411.618 212.523 411.534 212.896 411.401 213.253C411.212 213.966 410.914 214.976 410.527 216.225C409.753 218.721 408.602 222.169 407.213 225.884C405.824 229.599 404.444 232.968 403.392 235.355C402.876 236.554 402.4 237.515 402.112 238.179C401.989 238.532 401.822 238.868 401.616 239.18Z" fill="#263238"/>
<path d="M276.513 240.15C276.374 240.15 275.292 235.464 274.102 229.619C272.911 223.774 272.057 219.068 272.167 218.989C272.276 218.91 273.377 223.675 274.568 229.52C275.759 235.365 276.652 240.121 276.513 240.15Z" fill="#263238"/>
<path d="M274.638 299.088C274.955 299.246 271.006 268.217 271.006 268.217C271.006 268.217 273.496 244.668 274.896 243.578V235.266C274.896 235.266 278.756 232.938 279.788 236.703C279.788 236.703 283.211 233.73 283.757 240.794C284.303 247.858 284.481 255.07 284.481 255.07L292.093 274.072L293.343 274.706C293.343 274.706 294.98 259.846 295.933 257.626C296.886 255.407 297.541 250.107 301.143 250.909C304.745 251.712 305.052 254.684 304.407 259.538C303.762 264.393 302.949 269.446 303.256 272.556C303.564 275.667 304.983 282.592 304.546 288.081C304.11 293.569 301.093 299.355 297.937 303.417C294.782 307.479 288.739 315.89 285.464 318.416C284.402 319.308 274.638 299.088 274.638 299.088Z" fill="#FFBE9D"/>
<path d="M278.488 273.834C278.438 273.393 278.438 272.948 278.488 272.507C278.547 271.516 278.637 270.347 278.736 268.901C278.964 265.859 279.321 261.659 279.728 257.012C279.946 254.704 280.155 252.504 280.343 250.483C280.457 249.552 280.457 248.611 280.343 247.68C280.238 246.882 279.892 246.136 279.351 245.54C278.954 245.113 278.474 244.772 277.94 244.538C277.405 244.305 276.828 244.184 276.245 244.182C275.808 244.203 275.374 244.256 274.945 244.341C275.043 244.273 275.15 244.219 275.263 244.182C275.581 244.063 275.916 243.993 276.255 243.974C276.881 243.939 277.507 244.038 278.091 244.265C278.675 244.493 279.203 244.843 279.639 245.292C280.239 245.935 280.624 246.749 280.74 247.62C280.865 248.584 280.865 249.559 280.74 250.523C280.562 252.504 280.363 254.753 280.165 257.062C279.738 261.698 279.321 265.889 278.994 268.95L278.587 272.546C278.591 272.978 278.558 273.409 278.488 273.834Z" fill="#EB996E"/>
<path d="M282.576 261.143C282.022 261.897 281.568 262.72 281.226 263.59C280.621 265.784 280.2 268.024 279.966 270.288C279.549 272.943 279.153 275.34 278.835 277.074C278.72 278.019 278.514 278.952 278.22 279.858C278.224 278.904 278.31 277.953 278.478 277.014C278.696 275.271 279.043 272.863 279.47 270.208C279.897 267.553 280.175 265.126 280.909 263.462C281.17 262.809 281.535 262.204 281.991 261.668C282.318 261.272 282.556 261.124 282.576 261.143Z" fill="#EB996E"/>
<path d="M279.778 236.296C279.916 236.611 280.006 236.945 280.046 237.287C280.184 237.921 280.353 238.842 280.542 239.992C280.919 242.28 281.336 245.46 281.603 248.997C281.871 252.534 281.921 255.744 281.881 258.062C281.881 259.221 281.832 260.163 281.782 260.807C281.79 261.141 281.75 261.474 281.663 261.797C281.543 260.553 281.493 259.302 281.514 258.052C281.465 255.734 281.345 252.544 281.087 249.027C280.829 245.51 280.472 242.33 280.184 240.031C279.975 238.796 279.839 237.548 279.778 236.296Z" fill="#EB996E"/>
<path d="M301.738 265.384C301.362 265.626 300.931 265.773 300.485 265.811C300.039 265.849 299.59 265.777 299.178 265.602C297.719 265.166 297.044 264.046 297.193 263.997C297.876 264.43 298.597 264.801 299.346 265.106C300.135 265.265 300.934 265.358 301.738 265.384Z" fill="#EB996E"/>
<path d="M275.064 295.224L254.96 303.664H242.972C242.972 303.664 231.124 307.36 229.298 318.456C227.472 329.552 227.214 335.248 232.424 336.625C237.634 338.002 252.35 338.151 259.643 335.734C266.937 333.316 286.049 317.901 286.049 317.901L287.885 306.765L275.064 295.224Z" fill="#FFBE9D"/>
<path d="M279.778 307.489C279.778 307.489 279.549 307.32 279.202 306.964C278.723 306.446 278.289 305.889 277.902 305.299C276.643 303.34 275.696 301.198 275.094 298.949C274.471 296.72 274.056 294.438 273.853 292.133C273.72 291.181 273.693 290.217 273.774 289.26C273.989 290.189 274.135 291.133 274.211 292.083C274.517 294.354 274.978 296.602 275.59 298.81C276.189 301.014 277.07 303.132 278.21 305.111C279.113 306.607 279.847 307.419 279.778 307.489Z" fill="#EB996E"/>
<path d="M288.54 311.006C289.073 309.617 289.455 308.176 289.681 306.706C290.132 303.122 289.163 299.503 286.982 296.621C285.762 294.917 284.382 293.431 283.221 291.984C282.164 290.723 281.252 289.347 280.502 287.883C280.01 286.883 279.675 285.814 279.51 284.712C279.449 284.312 279.449 283.904 279.51 283.504C279.743 284.97 280.205 286.391 280.879 287.714C281.661 289.128 282.589 290.456 283.648 291.677C284.809 293.084 286.198 294.57 287.449 296.314C288.665 297.949 289.521 299.823 289.959 301.812C290.297 303.442 290.341 305.12 290.088 306.766C289.921 307.863 289.615 308.935 289.175 309.956C289.017 310.312 288.868 310.58 288.768 310.758C288.669 310.936 288.55 311.016 288.54 311.006Z" fill="#EB996E"/>
<path d="M257.53 262.659C255.746 259.771 254.11 256.795 252.628 253.743C250.047 248.789 248.063 244.668 248.182 244.598C249.965 247.486 251.601 250.462 253.084 253.515C254.721 256.485 256.205 259.537 257.53 262.659Z" fill="white"/>
<path d="M290.029 226.508C290.875 223.968 291.886 221.486 293.055 219.078C294.07 216.603 295.24 214.194 296.558 211.865C295.707 214.403 294.696 216.885 293.531 219.296C292.519 221.772 291.349 224.181 290.029 226.508Z" fill="white"/>
<path d="M321.912 249.968C320.266 248.387 318.74 246.685 317.347 244.876C315.83 243.174 314.44 241.363 313.189 239.457C314.837 241.034 316.36 242.737 317.744 244.549C319.267 246.249 320.66 248.061 321.912 249.968Z" fill="white"/>
<path d="M314.579 282.236C315.586 280.425 316.734 278.695 318.012 277.064C319.163 275.34 320.454 273.713 321.872 272.2C320.868 274.012 319.72 275.742 318.439 277.371C317.294 279.1 316.002 280.727 314.579 282.236Z" fill="white"/>
<path d="M304.715 327.818C304.252 327.205 303.862 326.54 303.554 325.837C302.899 324.569 302.056 322.795 301.202 320.804C300.349 318.813 299.664 316.96 299.218 315.623C298.921 314.91 298.708 314.165 298.583 313.404C298.991 314.061 299.324 314.762 299.575 315.494L301.708 320.596C302.532 322.488 303.266 324.202 303.911 325.678C304.258 326.36 304.528 327.077 304.715 327.818Z" fill="white"/>
<path d="M332.699 308.44C330.669 308.306 328.655 308.004 326.675 307.538C324.654 307.24 322.662 306.769 320.721 306.132C324.749 306.565 328.732 307.337 332.629 308.44H332.699Z" fill="white"/>
<path d="M354.53 265.849C356.308 263.55 358.223 261.36 360.265 259.291C362.186 257.099 364.233 255.021 366.398 253.069C364.613 255.369 362.694 257.562 360.652 259.638C358.732 261.823 356.688 263.897 354.53 265.849Z" fill="white"/>
<path d="M376.361 322.647C376.252 322.746 373.047 319.031 369.196 314.374C365.346 309.718 362.319 305.854 362.429 305.765C362.538 305.676 365.743 309.381 369.593 314.037C373.444 318.694 376.45 322.558 376.361 322.647Z" fill="white"/>
<path d="M240.611 298.444C240.68 298.582 237.753 300.068 234.557 302.515C231.362 304.962 229.139 307.38 229.02 307.271C229.381 306.644 229.836 306.076 230.37 305.587C231.558 304.32 232.853 303.156 234.24 302.109C235.621 301.057 237.088 300.122 238.626 299.315C239.242 298.93 239.91 298.636 240.611 298.444Z" fill="white"/>
<path d="M248.787 276.529C248.157 277.931 247.375 279.26 246.455 280.492C245.672 281.819 244.743 283.055 243.687 284.177C244.319 282.776 245.101 281.448 246.019 280.214C246.8 278.886 247.729 277.65 248.787 276.529Z" fill="white"/>
<path d="M267.205 298.047C265.616 295.525 264.937 292.537 265.28 289.577C265.429 289.577 265.478 291.558 266.024 293.867C266.57 296.175 267.344 297.978 267.205 298.047Z" fill="white"/>
<path d="M269.934 229.768C268.7 230.198 267.416 230.467 266.113 230.57C264.832 230.839 263.521 230.936 262.214 230.858C263.451 230.428 264.738 230.159 266.044 230.055C267.323 229.792 268.63 229.696 269.934 229.768Z" fill="white"/>
<path d="M283.767 205.267C281.63 206.846 279.294 208.139 276.821 209.111C277.836 208.251 278.96 207.529 280.165 206.961C281.289 206.247 282.499 205.678 283.767 205.267Z" fill="white"/>
<path d="M322.676 215.62C321.274 214.197 319.993 212.659 318.846 211.023C317.573 209.487 316.431 207.846 315.432 206.119C318.117 209.072 320.541 212.25 322.676 215.62Z" fill="white"/>
<path d="M372.064 240.249C369.329 237.558 367.272 234.258 366.061 230.62C366.21 230.56 367.271 232.869 368.939 235.514C370.606 238.159 372.183 240.15 372.064 240.249Z" fill="white"/>
<path d="M390.919 246.451C389.721 249.934 388.193 253.295 386.354 256.487C386.883 254.722 387.571 253.007 388.408 251.365C389.087 249.651 389.928 248.006 390.919 246.451Z" fill="white"/>
<path d="M393.558 220.762C391.754 219.013 390.076 217.139 388.537 215.154C386.865 213.281 385.323 211.295 383.923 209.21C387.395 212.837 390.615 216.696 393.558 220.762Z" fill="white"/>
<path d="M364.761 199.898C364.447 198.319 364.297 196.712 364.314 195.103C364.165 193.496 364.188 191.879 364.384 190.278C364.698 191.856 364.848 193.463 364.83 195.073C364.986 196.679 364.963 198.297 364.761 199.898Z" fill="white"/>
<path d="M388.269 198.6C386.258 199.126 384.207 199.487 382.137 199.68C380.092 200.038 378.02 200.227 375.944 200.244C377.956 199.718 380.007 199.357 382.077 199.165C384.122 198.805 386.193 198.617 388.269 198.6Z" fill="white"/>
<path d="M425.214 225.716C423.836 223.458 422.603 221.115 421.522 218.701C420.295 216.359 419.221 213.94 418.307 211.459C419.691 213.715 420.927 216.058 422.009 218.473C423.231 220.816 424.302 223.235 425.214 225.716Z" fill="white"/>
<path d="M419.031 249.146C419.447 245.362 420.197 241.623 421.274 237.971C421.154 239.872 420.865 241.758 420.411 243.608C420.121 245.492 419.66 247.346 419.031 249.146Z" fill="white"/>
<path d="M436.139 267.613C434.982 265.144 433.988 262.602 433.162 260.004C432.179 257.464 431.36 254.863 430.711 252.217C431.862 254.692 432.856 257.237 433.688 259.836C434.668 262.374 435.486 264.972 436.139 267.613Z" fill="white"/>
<path d="M433.748 278.421C431.976 278.155 430.274 277.546 428.737 276.628C427.122 275.854 425.681 274.762 424.499 273.418C424.599 273.299 426.424 274.805 428.985 276.172C431.545 277.54 433.797 278.273 433.748 278.421Z" fill="white"/>
<path d="M455.748 303.05C454.412 300.887 453.374 298.555 452.662 296.115C453.998 298.278 455.036 300.611 455.748 303.05Z" fill="white"/>
<path d="M325.961 337.408C325.538 335.979 325.278 334.507 325.187 333.019C324.936 331.551 324.849 330.059 324.929 328.571C325.382 330.008 325.659 331.496 325.753 333C325.99 334.456 326.06 335.936 325.961 337.408Z" fill="white"/>
<path d="M393.37 335.704C393.415 334.254 393.632 332.814 394.015 331.414C394.238 329.981 394.628 328.578 395.176 327.234C395.13 328.685 394.91 330.125 394.521 331.523C394.303 332.957 393.917 334.361 393.37 335.704Z" fill="white"/>
<path d="M406.29 139.256L415.062 123.96C409.652 115.242 407.705 104.818 409.603 94.7389C411.501 84.6597 417.107 75.6541 425.319 69.4926C433.531 63.3311 443.755 60.4596 453.98 61.4426C464.205 62.4257 473.692 67.1921 480.576 74.8048C487.459 82.4175 491.241 92.3257 491.178 102.581C491.115 112.837 487.211 122.698 480.234 130.225C473.257 137.753 463.712 142.402 453.476 143.259C443.239 144.117 433.051 141.12 424.916 134.858L406.29 139.256Z" fill="#FAFAFA"/>
<path d="M406.29 139.256L424.916 135.016H425.105L424.986 134.857L424.807 135.026C427.417 137.046 430.254 138.755 433.262 140.118C436.846 141.72 440.643 142.801 444.534 143.328C446.69 143.629 448.869 143.738 451.044 143.655C452.165 143.596 453.297 143.566 454.448 143.477L457.921 142.952C468.271 140.925 477.458 135.037 483.612 126.486C487.031 121.756 489.399 116.352 490.559 110.635C491.739 104.586 491.573 98.3529 490.073 92.3758C488.513 86.1442 485.493 80.3718 481.261 75.5337L479.564 73.6019C479.008 72.9777 478.353 72.4724 477.758 71.8978C477.162 71.3232 476.567 70.7486 475.892 70.2731L473.907 68.8068C473.26 68.3079 472.577 67.8575 471.863 67.4595L469.779 66.1914L467.596 65.1313C466.882 64.7586 466.146 64.4278 465.393 64.1406C459.539 61.8375 453.242 60.8727 446.966 61.3171C441.047 61.7144 435.288 63.4055 430.096 66.2706C420.735 71.4683 413.738 80.0645 410.557 90.2755C409.282 94.6066 408.68 99.1071 408.771 103.62C408.872 107.536 409.541 111.417 410.756 115.142C411.779 118.238 413.161 121.204 414.874 123.979V123.851C409.376 133.688 406.687 138.493 406.26 139.246C406.697 138.503 409.456 133.728 415.082 123.97V123.91V123.851C413.411 121.081 412.072 118.125 411.093 115.043C409.885 111.344 409.216 107.49 409.108 103.601C409.043 99.129 409.655 94.6732 410.924 90.3845C414.109 80.3115 421.037 71.8386 430.285 66.7065C435.425 63.8475 441.135 62.1562 447.005 61.753C453.205 61.3167 459.425 62.2748 465.205 64.5567C465.948 64.8438 466.674 65.1746 467.378 65.5474L469.541 66.5975L471.625 67.8855C472.317 68.2816 472.98 68.7252 473.61 69.213L475.594 70.6694C476.259 71.1449 476.815 71.7393 477.43 72.2743C478.045 72.8093 478.671 73.3443 479.216 73.9585L480.874 75.7715C485.058 80.5633 488.044 86.2776 489.586 92.4452C491.077 98.3463 491.243 104.503 490.073 110.476C488.939 116.132 486.604 121.48 483.225 126.159C477.149 134.625 468.074 140.466 457.842 142.496L454.408 143.031C453.267 143.12 452.146 143.16 451.034 143.219C448.88 143.307 446.721 143.207 444.584 142.922C440.717 142.422 436.941 141.375 433.371 139.811C430.376 138.474 427.548 136.792 424.946 134.798L424.182 134.213L424.767 134.976L424.837 134.778L406.29 139.256Z" fill="#263238"/>
<path d="M461.106 100.728C461.116 101.507 461.356 102.266 461.796 102.91C462.236 103.554 462.856 104.055 463.579 104.348C464.303 104.642 465.097 104.716 465.862 104.562C466.627 104.407 467.33 104.031 467.882 103.48C468.434 102.929 468.811 102.227 468.966 101.463C469.121 100.699 469.046 99.9063 468.752 99.1842C468.458 98.4622 467.957 97.8428 467.312 97.4036C466.666 96.9644 465.906 96.725 465.125 96.7152C464.596 96.7085 464.07 96.8078 463.579 97.007C463.089 97.2063 462.643 97.5016 462.269 97.8755C461.894 98.2494 461.598 98.6944 461.399 99.1842C461.199 99.674 461.1 100.199 461.106 100.728Z" fill="#263238"/>
<path d="M445.041 100.727C445.05 101.509 445.291 102.27 445.734 102.915C446.176 103.561 446.799 104.061 447.525 104.353C448.251 104.645 449.048 104.717 449.814 104.558C450.581 104.4 451.284 104.019 451.834 103.463C452.384 102.906 452.757 102.2 452.906 101.433C453.055 100.666 452.974 99.8714 452.672 99.1502C452.37 98.429 451.862 97.813 451.21 97.3797C450.558 96.9464 449.793 96.7151 449.01 96.7151C448.484 96.715 447.964 96.8192 447.479 97.0214C446.995 97.2236 446.555 97.52 446.185 97.8932C445.816 98.2665 445.525 98.7092 445.328 99.1957C445.132 99.6823 445.034 100.203 445.041 100.727Z" fill="#263238"/>
<path d="M429.014 98.7262C428.63 99.406 428.456 100.184 428.514 100.962C428.571 101.74 428.857 102.484 429.336 103.101C429.815 103.717 430.466 104.179 431.207 104.428C431.947 104.676 432.745 104.701 433.5 104.499C434.255 104.297 434.933 103.877 435.45 103.292C435.967 102.706 436.299 101.982 436.405 101.208C436.511 100.435 436.386 99.6483 436.045 98.9459C435.705 98.2435 435.165 97.657 434.492 97.26C434.037 96.9917 433.533 96.8167 433.01 96.7453C432.487 96.6738 431.954 96.7074 431.444 96.8439C430.934 96.9805 430.456 97.2173 430.039 97.5405C429.622 97.8637 429.273 98.2668 429.014 98.7262Z" fill="#263238"/>
</svg>
