<svg width="66" height="112" viewBox="0 0 66 112" fill="none" xmlns="http://www.w3.org/2000/svg">
<path d="M2.48475 4.96865C3.85704 4.96865 4.9695 3.85638 4.9695 2.48433C4.9695 1.11227 3.85704 0 2.48475 0C1.11246 0 0 1.11227 0 2.48433C0 3.85638 1.11246 4.96865 2.48475 4.96865Z" fill="#E96220"/>
<path d="M33 4.96865C34.3723 4.96865 35.4848 3.85638 35.4848 2.48433C35.4848 1.11227 34.3723 0 33 0C31.6277 0 30.5153 1.11227 30.5153 2.48433C30.5153 3.85638 31.6277 4.96865 33 4.96865Z" fill="#E96220"/>
<path d="M63.5151 4.96865C64.8874 4.96865 65.9999 3.85638 65.9999 2.48433C65.9999 1.11227 64.8874 0 63.5151 0C62.1429 0 61.0304 1.11227 61.0304 2.48433C61.0304 3.85638 62.1429 4.96865 63.5151 4.96865Z" fill="#E96220"/>
<path d="M2.48475 31.7165C3.85704 31.7165 4.9695 30.6042 4.9695 29.2321C4.9695 27.8601 3.85704 26.7478 2.48475 26.7478C1.11246 26.7478 0 27.8601 0 29.2321C0 30.6042 1.11246 31.7165 2.48475 31.7165Z" fill="#E96220"/>
<path d="M33 31.7165C34.3723 31.7165 35.4848 30.6042 35.4848 29.2321C35.4848 27.8601 34.3723 26.7478 33 26.7478C31.6277 26.7478 30.5153 27.8601 30.5153 29.2321C30.5153 30.6042 31.6277 31.7165 33 31.7165Z" fill="#E96220"/>
<path d="M63.5151 31.7165C64.8874 31.7165 65.9999 30.6042 65.9999 29.2321C65.9999 27.8601 64.8874 26.7478 63.5151 26.7478C62.1429 26.7478 61.0304 27.8601 61.0304 29.2321C61.0304 30.6042 62.1429 31.7165 63.5151 31.7165Z" fill="#E96220"/>
<path d="M2.48475 58.4643C3.85704 58.4643 4.9695 57.352 4.9695 55.9799C4.9695 54.6079 3.85704 53.4956 2.48475 53.4956C1.11246 53.4956 0 54.6079 0 55.9799C0 57.352 1.11246 58.4643 2.48475 58.4643Z" fill="#E96220"/>
<path d="M33 58.4643C34.3723 58.4643 35.4848 57.352 35.4848 55.9799C35.4848 54.6079 34.3723 53.4956 33 53.4956C31.6277 53.4956 30.5153 54.6079 30.5153 55.9799C30.5153 57.352 31.6277 58.4643 33 58.4643Z" fill="#E96220"/>
<path d="M63.5151 58.4643C64.8874 58.4643 65.9999 57.352 65.9999 55.9799C65.9999 54.6079 64.8874 53.4956 63.5151 53.4956C62.1429 53.4956 61.0304 54.6079 61.0304 55.9799C61.0304 57.352 62.1429 58.4643 63.5151 58.4643Z" fill="#E96220"/>
<path d="M2.48475 85.2326C3.85704 85.2326 4.9695 84.1203 4.9695 82.7482C4.9695 81.3762 3.85704 80.2639 2.48475 80.2639C1.11246 80.2639 0 81.3762 0 82.7482C0 84.1203 1.11246 85.2326 2.48475 85.2326Z" fill="#E96220"/>
<path d="M33 85.2326C34.3723 85.2326 35.4848 84.1203 35.4848 82.7482C35.4848 81.3762 34.3723 80.2639 33 80.2639C31.6277 80.2639 30.5153 81.3762 30.5153 82.7482C30.5153 84.1203 31.6277 85.2326 33 85.2326Z" fill="#E96220"/>
<path d="M63.5151 85.2326C64.8874 85.2326 65.9999 84.1203 65.9999 82.7482C65.9999 81.3762 64.8874 80.2639 63.5151 80.2639C62.1429 80.2639 61.0304 81.3762 61.0304 82.7482C61.0304 84.1203 62.1429 85.2326 63.5151 85.2326Z" fill="#E96220"/>
<path d="M4.96947 109.517C4.96947 110.008 4.82374 110.488 4.55072 110.897C4.27769 111.305 3.88963 111.624 3.4356 111.812C2.98157 112 2.48199 112.049 1.99999 111.953C1.518 111.857 1.07532 111.621 0.727826 111.273C0.380327 110.926 0.143624 110.483 0.0477493 110.001C-0.0481254 109.519 0.00106397 109.02 0.189129 108.566C0.377194 108.112 0.695721 107.724 1.10434 107.451C1.51295 107.178 1.99336 107.032 2.48479 107.032C3.14379 107.032 3.77578 107.294 4.24176 107.76C4.70774 108.226 4.96947 108.858 4.96947 109.517Z" fill="#E96220"/>
<path d="M35.4232 109.517C35.4232 110.008 35.2775 110.488 35.0045 110.897C34.7314 111.305 34.3434 111.624 33.8893 111.812C33.4353 112 32.9357 112.049 32.4537 111.953C31.9717 111.857 31.5289 111.621 31.1814 111.273C30.8339 110.926 30.5974 110.483 30.5015 110.001C30.4056 109.519 30.4548 109.02 30.6429 108.566C30.8309 108.112 31.1493 107.724 31.5579 107.451C31.9666 107.178 32.447 107.032 32.9384 107.032C33.5974 107.032 34.2294 107.294 34.6954 107.76C35.1614 108.226 35.4232 108.858 35.4232 109.517Z" fill="#E96220"/>
<path d="M65.9999 109.517C65.9999 110.008 65.8542 110.488 65.5812 110.897C65.3082 111.305 64.9201 111.624 64.4661 111.812C64.0121 112 63.5125 112.049 63.0305 111.953C62.5485 111.857 62.1057 111.621 61.7582 111.273C61.4107 110.926 61.174 110.483 61.0781 110.001C60.9822 109.519 61.0316 109.02 61.2196 108.566C61.4077 108.112 61.7261 107.724 62.1347 107.451C62.5433 107.178 63.0237 107.032 63.5152 107.032C63.8415 107.032 64.1646 107.096 64.4661 107.221C64.7675 107.346 65.0414 107.529 65.2721 107.76C65.5028 107.991 65.6859 108.264 65.8108 108.566C65.9357 108.867 65.9999 109.19 65.9999 109.517V109.517Z" fill="#E96220"/>
</svg>
