<svg width="473" height="677" viewBox="0 0 473 677" fill="none" xmlns="http://www.w3.org/2000/svg">
<mask id="mask0_50_948" style="mask-type:alpha" maskUnits="userSpaceOnUse" x="0" y="0" width="473" height="677">
<rect width="473" height="677" fill="url(#paint0_linear_50_948)"/>
</mask>
<g mask="url(#mask0_50_948)">
<path d="M655.737 762.104C629.208 767.421 601.898 766.685 575.665 759.947C549.433 753.21 524.895 740.629 503.722 723.061C467.297 692.425 443.258 648.637 410.423 613.847C377.588 579.057 328.213 552.812 284.797 570.866C255.007 583.29 235.272 614.182 226.231 646.452C217.191 678.722 217.04 712.784 215.255 746.333C213.469 779.883 209.616 814.358 194.28 843.833C184.312 862.471 170.147 878.275 153.019 889.87C135.89 901.465 116.316 908.499 96 910.361" stroke="white" stroke-opacity="0.2" stroke-miterlimit="10"/>
<path d="M638.427 767.775C613.555 772.76 587.949 772.072 563.355 765.755C538.76 759.439 515.754 747.644 495.903 731.173C461.771 702.467 439.236 661.415 408.45 628.791C377.663 596.166 331.39 571.536 290.698 588.488C262.769 600.144 244.275 629.126 235.779 659.368C227.284 689.61 227.171 721.565 225.517 753.067C223.863 784.569 220.273 816.839 205.839 844.463C196.5 861.933 183.228 876.748 167.178 887.619C151.127 898.49 132.783 905.087 113.743 906.837" stroke="white" stroke-opacity="0.2" stroke-miterlimit="10"/>
<path d="M621.097 773.445C597.888 778.098 573.994 777.456 551.044 771.561C528.093 765.666 506.625 754.657 488.103 739.285C456.246 712.469 435.214 674.174 406.476 643.735C377.738 613.296 334.566 590.319 296.6 606.149C270.512 617.017 253.277 644.07 245.346 672.343C237.414 700.616 237.32 730.366 235.76 759.722C234.2 789.078 230.874 819.222 217.397 845.014C208.68 861.323 196.287 875.152 181.3 885.296C166.313 895.44 149.186 901.591 131.41 903.215" stroke="white" stroke-opacity="0.2" stroke-miterlimit="10"/>
<path d="M589.862 837.673C568.313 841.99 546.128 841.392 524.819 835.918C503.51 830.445 483.578 820.225 466.379 805.955C436.795 781.068 417.267 745.51 390.597 717.256C363.927 689.003 323.818 667.64 288.558 682.348C264.35 692.429 248.337 717.552 240.988 743.738C233.639 769.924 233.47 797.607 232.079 824.856C230.688 852.105 227.549 880.103 215.032 904.045C206.939 919.186 195.436 932.026 181.523 941.446C167.611 950.865 151.711 956.58 135.209 958.091" stroke="white" stroke-opacity="0.2" stroke-miterlimit="10"/>
<path d="M339.358 -6.24302C314.453 -7.1338 292.31 11.9009 279.633 34.3893C266.956 56.8777 261.551 82.8355 253.444 107.496C245.336 132.157 233.436 157.083 212.442 171.117C175.114 196.122 126.573 177.853 82.3466 174.68C15.4098 169.898 -52.811 205.233 -89.7957 263.759" stroke="white" stroke-opacity="0.2" stroke-miterlimit="10"/>
<path d="M330.608 -21.4801C305.703 -22.3708 283.56 -3.35178 270.883 19.1523C258.207 41.6564 252.846 67.5048 244.739 92.2436C236.631 116.982 224.731 141.815 203.738 155.864C166.409 180.869 117.868 162.584 73.6416 159.428C6.70489 154.646 -61.5159 189.964 -98.5006 248.506" stroke="white" stroke-opacity="0.2" stroke-miterlimit="10"/>
<path d="M321.859 -36.733C296.953 -37.6238 274.81 -18.5891 262.134 3.89941C249.457 26.3879 244.052 52.3457 235.944 77.0065C227.837 101.667 215.936 126.594 194.943 140.627C157.615 165.632 109.074 147.363 64.8472 144.206C-2.08956 139.424 -70.3104 174.743 -107.295 233.285" stroke="white" stroke-opacity="0.2" stroke-miterlimit="10"/>
<path d="M313.109 -51.9699C288.204 -52.8607 266.061 -33.826 253.384 -11.3376C240.707 11.1508 235.302 37.1086 227.195 61.7693C219.087 86.43 207.231 111.341 186.238 125.328C148.91 150.332 100.369 132.063 56.1422 128.891C-10.7945 124.109 -79.0153 159.443 -116 217.969" stroke="white" stroke-opacity="0.2" stroke-miterlimit="10"/>
<g style="mix-blend-mode:color-burn" opacity="0.2">
<path d="M-249.34 477.231C-242.43 497.978 -244.34 520.765 -247.98 542.412C-251.62 564.059 -256.98 585.621 -256.69 607.592C-256.23 643.489 -239.79 678.862 -212.94 701.21C-186.09 723.558 -149.34 732.367 -115.94 724.227C-94.81 719.09 -74.94 707.592 -53.27 706.65C-31.01 705.688 -9.86002 715.983 12.05 720.189C64.05 730.18 119.84 702.79 148.95 656.588C178.06 610.386 180.85 548.407 159.54 497.758C138.23 447.11 94.54 408.253 44.54 390.257C-5.46002 372.262 -61.15 374.355 -111.33 391.858C-135.94 400.437 -159.33 412.584 -184.33 419.981C-209.33 427.378 -236.83 429.69 -260.58 418.715L-295 437.746C-274 438.332 -256.25 456.474 -249.34 477.231Z" fill="url(#paint1_linear_50_948)" style="mix-blend-mode:multiply"/>
</g>
</g>
<defs>
<linearGradient id="paint0_linear_50_948" x1="0" y1="0" x2="541.748" y2="60.403" gradientUnits="userSpaceOnUse">
<stop stop-color="#245EE6"/>
<stop offset="1" stop-color="#973200"/>
</linearGradient>
<linearGradient id="paint1_linear_50_948" x1="173.49" y1="552.456" x2="-295" y2="552.456" gradientUnits="userSpaceOnUse">
<stop stop-color="#CED2DB"/>
<stop offset="1" stop-color="#D8D8D8"/>
</linearGradient>
</defs>
</svg>
