<svg width="312" height="677" viewBox="0 0 312 677" fill="none" xmlns="http://www.w3.org/2000/svg">
<mask id="mask0_665_237" style="mask-type:alpha" maskUnits="userSpaceOnUse" x="0" y="0" width="312" height="677">
<rect width="312" height="677" fill="url(#paint0_linear_665_237)"/>
</mask>
<g mask="url(#mask0_665_237)">
<path d="M285.805 842.416C297.736 799 276.488 751.839 245.715 720.063C214.943 688.288 175.526 667.719 139.319 643.026C103.111 618.333 68.0946 586.775 54.4036 543.874C30.0237 467.462 79.7928 389.692 103.577 313.035C139.474 197.086 111.497 61.8985 33 -28.0276" stroke="white" stroke-opacity="0.2" stroke-miterlimit="10"/>
<path d="M313.964 833.434C325.895 790.018 304.672 742.857 273.874 711.081C243.076 679.306 203.711 658.737 167.503 634.044C131.296 609.351 96.2792 577.847 82.5882 534.892C58.2083 458.48 107.977 380.71 131.762 304.053C167.659 188.104 139.681 52.9167 61.1846 -37.0094" stroke="white" stroke-opacity="0.2" stroke-miterlimit="10"/>
<path d="M342.148 824.452C354.079 781.036 332.831 733.875 302.058 702.1C271.286 670.324 231.869 649.756 195.662 625.063C159.454 600.37 124.463 568.866 110.746 525.911C86.3666 449.498 136.136 371.728 159.92 295.071C195.765 179.123 167.788 44.0706 89.291 -46.0183" stroke="white" stroke-opacity="0.2" stroke-miterlimit="10"/>
<path d="M370.332 815.471C382.238 772.054 361.015 724.893 330.243 693.118C299.47 661.343 260.054 640.774 223.846 616.081C187.639 591.388 152.622 559.884 138.931 516.929C114.551 440.516 164.32 362.719 188.105 286.09C224.002 170.141 196.05 34.9532 117.527 -55" stroke="white" stroke-opacity="0.2" stroke-miterlimit="10"/>
</g>
<defs>
<linearGradient id="paint0_linear_665_237" x1="0" y1="0" x2="359.844" y2="26.4648" gradientUnits="userSpaceOnUse">
<stop stop-color="#245EE6"/>
<stop offset="1" stop-color="#973200"/>
</linearGradient>
</defs>
</svg>
