<svg width="513" height="936" viewBox="0 0 513 936" fill="none" xmlns="http://www.w3.org/2000/svg">
<mask id="mask0_720_265" style="mask-type:alpha" maskUnits="userSpaceOnUse" x="0" y="0" width="513" height="936">
<rect width="513" height="936" fill="white"/>
</mask>
<g mask="url(#mask0_720_265)">
<path d="M645.094 232.901L631.112 234.685C577.318 241.643 521.704 248.831 474.599 217.646C446.495 199.039 424.718 168.377 403.665 138.721C386.264 114.201 368.259 88.84 346.622 70.0932C303.37 32.5997 247.866 24.0229 204.342 20.7348C193.278 19.8937 182.042 19.3075 171.149 18.734C133.046 16.7204 93.6463 14.6813 56.4091 1.79693C54.7192 1.22344 53.0595 0.611723 51.3797 0H48C50.6354 1.04503 53.3512 2.06456 56.1475 3.03312C93.4854 15.943 132.946 17.9948 171.108 20.0084C181.992 20.5819 193.237 21.1682 204.302 21.9965C247.695 25.2845 303.018 33.8232 346.129 71.151C367.655 89.8085 385.62 115.106 402.991 139.575C424.114 169.307 445.932 200.059 474.207 218.78C521.503 250.144 577.278 242.93 631.213 235.921C635.907 235.309 640.567 234.715 645.194 234.137C666.469 231.499 689.855 229.766 713 231.894V230.619C689.805 228.529 666.398 230.263 645.094 232.901Z" fill="#0E9944"/>
<path d="M385.817 200.189C359.858 195.5 334.177 185.412 315.887 165.766C307.503 156.932 301.309 146.263 297.802 134.614C294.937 123.993 294.187 112.915 295.595 102.006C298.127 79.4143 307.001 58.0007 313.825 36.4909C317.575 24.6719 320.951 12.4442 322.265 0H316.237C316.068 1.43078 315.875 2.87358 315.646 4.29234C312.029 27.3291 302.721 48.9832 296.126 71.2264C289.82 92.4957 285.624 115.448 292.207 137.175C299.441 161.137 318.286 180.158 340.182 191.556C365.501 204.782 394.438 208.942 422.651 209.82C453.733 210.794 484.72 207.415 515.706 205.491C528.896 204.662 542.376 204.145 555.892 204.289V198.145C499.272 197.327 442.243 210.361 385.817 200.189Z" fill="#E8524A"/>
<path d="M88.506 935.832C79.5823 903.282 73.0712 867.802 85.5487 836.446C101.891 795.364 147.223 772.347 191.128 767.082C235.033 761.817 279.249 770.518 323.348 773.877C367.448 777.235 414.673 774.318 451.029 749.134C501.432 714.199 517.982 646.118 563.469 604.971C601.395 570.671 658.646 559.364 706.766 576.663" stroke="#D8D8D8" stroke-miterlimit="10"/>
<path d="M121.918 935.831C113.474 905.033 107.326 871.485 119.116 841.815C134.577 802.912 177.483 781.178 218.988 776.198C260.494 771.218 302.362 779.518 344.023 782.617C385.684 785.716 430.419 783.045 464.804 759.275C512.483 726.22 528.138 661.822 571.161 622.893C607.05 590.473 661.202 579.749 706.728 596.114" stroke="#D8D8D8" stroke-miterlimit="10"/>
<path d="M155.317 935.831C147.366 906.796 141.555 875.155 152.722 847.184C167.288 810.537 207.73 790.009 246.888 785.314C286.045 780.62 325.488 788.375 364.828 791.37C404.167 794.366 446.282 791.772 478.708 769.325C523.676 738.202 538.372 677.448 578.995 640.749C612.835 610.145 663.899 600.056 706.818 615.488" stroke="#D8D8D8" stroke-miterlimit="10"/>
<path d="M188.715 935.831C181.245 908.599 175.745 878.773 186.238 852.552C199.935 818.123 237.912 798.84 274.709 794.431C311.506 790.022 348.55 797.31 385.502 800.124C422.455 802.938 462.028 800.5 492.482 779.375C534.727 750.107 548.592 693.048 586.699 658.58C618.477 629.83 666.455 620.351 706.78 634.862" stroke="#D8D8D8" stroke-miterlimit="10"/>
<path d="M222.101 935.831C215.11 910.311 210.013 882.508 219.78 857.921C232.594 825.709 268.133 807.671 302.557 803.547C336.98 799.423 371.637 806.244 406.203 808.864C440.769 811.483 477.8 809.227 506.283 789.477C545.804 762.089 558.774 708.713 594.482 676.463C624.184 649.567 669.062 640.762 706.78 654.275" stroke="#D8D8D8" stroke-miterlimit="10"/>
</g>
</svg>
