<svg width="300" height="638" viewBox="0 0 300 638" fill="none" xmlns="http://www.w3.org/2000/svg">
<mask id="mask0_722_351" style="mask-type:alpha" maskUnits="userSpaceOnUse" x="0" y="0" width="300" height="638">
<rect width="300" height="638" fill="#C4C4C4"/>
</mask>
<g mask="url(#mask0_722_351)">
<path d="M134.604 55.403C134.604 55.403 182.292 37.7077 179.95 15.349C177.607 -7.00975 142.595 17.4251 169.263 44.9902C195.931 72.5554 213.71 21.5775 202.189 21.5775C190.668 21.5775 183.897 58.5332 218.395 51.2507" stroke="#0E9944" stroke-width="2" stroke-miterlimit="10" stroke-linecap="round"/>
<path d="M354.455 453.349C305.248 449.639 277.941 476.296 285.352 497.398C292.763 518.5 287.903 545.634 268.64 556.921C249.378 568.208 220.541 556.29 214.938 534.509C212.419 524.693 217.166 511.175 227.274 511.401C238.366 511.644 241.612 526.763 240.191 537.775C236.606 566.138 224.174 594.258 201.795 612.014C179.417 629.769 146.381 635.072 121.678 620.778C106.193 611.803 95.4886 596.603 85.4618 581.775C75.435 566.947 65.1499 551.552 50.0532 541.899C34.9565 532.245 13.6597 529.868 0 541.333" stroke="#245EE6" stroke-width="2" stroke-miterlimit="10" stroke-dasharray="3 3"/>
</g>
</svg>
