<svg width="30" height="30" viewBox="0 0 30 30" fill="none" xmlns="http://www.w3.org/2000/svg">
<path d="M5 6.25V23.75H25V6.25H5ZM3.75 3.75H26.25C26.5815 3.75 26.8995 3.8817 27.1339 4.11612C27.3683 4.35054 27.5 4.66848 27.5 5V25C27.5 25.3315 27.3683 25.6495 27.1339 25.8839C26.8995 26.1183 26.5815 26.25 26.25 26.25H3.75C3.41848 26.25 3.10054 26.1183 2.86612 25.8839C2.6317 25.6495 2.5 25.3315 2.5 25V5C2.5 4.66848 2.6317 4.35054 2.86612 4.11612C3.10054 3.8817 3.41848 3.75 3.75 3.75ZM9.375 14.0625H11.875V11.25H13.75V18.75H11.875V15.9375H9.375V18.75H7.5V11.25H9.375V14.0625ZM18.125 13.125V16.875H20C20.1658 16.875 20.3247 16.8092 20.4419 16.6919C20.5592 16.5747 20.625 16.4158 20.625 16.25V13.75C20.625 13.5842 20.5592 13.4253 20.4419 13.3081C20.3247 13.1908 20.1658 13.125 20 13.125H18.125ZM16.25 11.25H20C20.663 11.25 21.2989 11.5134 21.7678 11.9822C22.2366 12.4511 22.5 13.087 22.5 13.75V16.25C22.5 16.913 22.2366 17.5489 21.7678 18.0178C21.2989 18.4866 20.663 18.75 20 18.75H16.25V11.25Z" fill="#E96220"/>
</svg>
