<svg width="30" height="30" viewBox="0 0 30 30" fill="none" xmlns="http://www.w3.org/2000/svg">
<path d="M16.25 16.25V23.2312L18.535 20.9462L20.3037 22.715L15 28.0175L9.69625 22.715L11.465 20.9462L13.75 23.2312V16.25H16.25ZM15 2.5C17.1462 2.5001 19.2176 3.28889 20.8202 4.7164C22.4229 6.1439 23.4451 8.11058 23.6925 10.2425C25.2478 10.6666 26.6047 11.6239 27.5258 12.9469C28.447 14.2699 28.8739 15.8746 28.732 17.4805C28.5901 19.0864 27.8884 20.5913 26.7495 21.7323C25.6105 22.8732 24.1069 23.5777 22.5012 23.7225V21.205C23.0765 21.1229 23.6296 20.9269 24.1282 20.6287C24.6269 20.3305 25.0612 19.9359 25.4057 19.468C25.7502 19.0001 25.9981 18.4683 26.1348 17.9035C26.2716 17.3388 26.2945 16.7525 26.2021 16.1788C26.1098 15.6052 25.9042 15.0556 25.5971 14.5623C25.2901 14.069 24.8879 13.6418 24.414 13.3056C23.9401 12.9694 23.4039 12.731 22.8369 12.6043C22.2698 12.4775 21.6832 12.465 21.1112 12.5675C21.307 11.6561 21.2964 10.7125 21.0803 9.80569C20.8641 8.89892 20.4479 8.05198 19.862 7.32691C19.2761 6.60184 18.5355 6.01701 17.6943 5.61524C16.8532 5.21348 15.9328 5.00496 15.0006 5.00496C14.0684 5.00496 13.1481 5.21348 12.3069 5.61524C11.4658 6.01701 10.7251 6.60184 10.1393 7.32691C9.55339 8.05198 9.13713 8.89892 8.92098 9.80569C8.70482 10.7125 8.69424 11.6561 8.89 12.5675C7.74957 12.3533 6.57077 12.601 5.61293 13.256C4.65509 13.9109 3.99666 14.9196 3.7825 16.06C3.56834 17.2004 3.81598 18.3792 4.47095 19.3371C5.12592 20.2949 6.13457 20.9533 7.275 21.1675L7.5 21.205V23.7225C5.89431 23.5779 4.39051 22.8736 3.25142 21.7327C2.11233 20.5919 1.41041 19.0869 1.26834 17.481C1.12628 15.8751 1.5531 14.2704 2.47421 12.9472C3.39532 11.6241 4.75213 10.6667 6.3075 10.2425C6.55463 8.11047 7.57676 6.14364 9.17947 4.71608C10.7822 3.28852 12.8537 2.49983 15 2.5Z" fill="#E96220"/>
</svg>
