<svg width="50" height="50" viewBox="0 0 50 50" fill="none" xmlns="http://www.w3.org/2000/svg">
<path d="M43.7499 41.6667H47.9166V45.8334H2.08325V41.6667H6.24992V6.25002C6.24992 5.69749 6.46941 5.16758 6.86011 4.77688C7.25081 4.38618 7.78072 4.16669 8.33325 4.16669H41.6666C42.2191 4.16669 42.749 4.38618 43.1397 4.77688C43.5304 5.16758 43.7499 5.69749 43.7499 6.25002V41.6667ZM39.5833 41.6667V8.33335H10.4166V41.6667H39.5833ZM16.6666 22.9167H22.9166V27.0834H16.6666V22.9167ZM16.6666 14.5834H22.9166V18.75H16.6666V14.5834ZM16.6666 31.25H22.9166V35.4167H16.6666V31.25ZM27.0833 31.25H33.3333V35.4167H27.0833V31.25ZM27.0833 22.9167H33.3333V27.0834H27.0833V22.9167ZM27.0833 14.5834H33.3333V18.75H27.0833V14.5834Z" fill="#0E0E0E"/>
</svg>
