<svg width="40" height="40" viewBox="0 0 40 40" fill="none" xmlns="http://www.w3.org/2000/svg">
<path d="M8.33333 26.6667V36.6667H5V5H20.6367C20.9461 5.00017 21.2494 5.08647 21.5125 5.24925C21.7757 5.41204 21.9883 5.64487 22.1267 5.92167L23.3333 8.33333H33.3333C33.7754 8.33333 34.1993 8.50893 34.5118 8.82149C34.8244 9.13405 35 9.55797 35 10V28.3333C35 28.7754 34.8244 29.1993 34.5118 29.5118C34.1993 29.8244 33.7754 30 33.3333 30H22.6967C22.3872 29.9998 22.0839 29.9135 21.8208 29.7507C21.5576 29.588 21.345 29.3551 21.2067 29.0783L20 26.6667H8.33333ZM8.33333 8.33333V23.3333H22.06L23.7267 26.6667H31.6667V11.6667H21.2733L19.6067 8.33333H8.33333Z" fill="#E96220"/>
</svg>
