<svg width="40" height="40" viewBox="0 0 40 40" fill="none" xmlns="http://www.w3.org/2000/svg">
<path d="M35.7812 17.565C34.6858 14.8915 33.7291 12.1633 32.9149 9.39126C32.7671 8.84123 32.6441 8.28483 32.5462 7.72376C32.1149 5.48626 31.4649 2.10376 28.2324 2.06751C26.7824 2.06751 25.5487 3.00126 24.9237 4.53876L24.7137 4.08126C24.4324 3.46751 24.1437 2.83376 23.7774 2.22376C23.395 1.58762 22.8857 1.03702 22.2812 0.606259C21.2862 -0.0987409 20.0387 -0.189991 19.1687 0.397509C18.6237 0.763759 18.2124 1.35876 18.0112 2.07376C17.7612 2.96626 17.7849 3.89376 17.8749 4.70751C17.7962 4.57001 17.7162 4.42626 17.6349 4.28001C16.9662 3.07251 16.0487 1.42001 14.1237 1.19001C12.8487 1.04126 11.5462 1.63626 10.8787 2.68376C10.3324 3.54251 10.3224 4.45251 10.4824 5.26501C10.2859 5.14355 10.0768 5.0438 9.85868 4.96751C9.55357 4.85923 9.23243 4.80303 8.90868 4.80126C6.79243 4.80126 5.64618 7.20376 5.50743 8.91001C5.34618 10.9113 6.09118 12.7575 6.86743 14.4775C7.22868 15.28 7.60743 16.0738 7.98618 16.87C8.25493 17.435 8.52368 17.9988 8.78743 18.5688C8.96118 18.94 9.12993 19.3125 9.29618 19.6875C8.53576 19.3776 7.75314 19.1252 6.95493 18.9325C5.29618 18.5575 3.28743 19.1825 2.18118 20.4113C1.49118 21.1738 1.16743 22.125 1.26868 23.0875C1.44868 24.8063 2.85868 25.9775 3.70243 26.6763L12.5599 34.0225C14.9862 36.0338 17.7374 38.315 21.1162 39.375C22.4387 39.79 23.8312 40 25.2562 40C27.8612 40 30.4762 39.2713 32.6174 37.9475C35.8374 35.9575 38.0862 32.5025 38.6337 28.705L38.6762 28.3638C39.0674 24.9388 37.8362 22.1963 36.6462 19.5438C36.3465 18.8892 36.0581 18.2295 35.7812 17.565ZM36.1899 28.0888L36.1562 28.3513C35.7149 31.4225 33.8999 34.215 31.3024 35.8213C29.5499 36.9038 27.4024 37.5 25.2549 37.5C24.1056 37.5034 22.9624 37.3315 21.8649 36.99C18.9537 36.0763 16.5149 34.0538 14.1562 32.0975L5.29868 24.7525C4.55368 24.135 3.82118 23.4775 3.75368 22.8275C3.74368 22.7325 3.71493 22.4425 4.03743 22.0838C4.45118 21.625 5.20618 21.3175 5.91618 21.3175C6.08618 21.3175 6.25118 21.335 6.37493 21.3638C7.60993 21.6725 8.54493 22.0288 9.31368 22.48L9.48243 22.5938C10.1337 23.0438 10.7237 23.415 11.3537 23.415C11.8187 23.415 12.2412 23.2088 12.5137 22.8488C12.8274 22.4325 12.8949 21.8938 12.7099 21.245C12.59 20.8567 12.4305 20.4818 12.2337 20.1263C12.1549 19.9738 12.0749 19.8213 12.0087 19.665C11.7054 18.9415 11.3874 18.2243 11.0549 17.5138C10.7887 16.9388 10.5162 16.3663 10.2437 15.7925C9.87243 15.0125 9.50118 14.2338 9.14618 13.4463C8.50368 12.025 7.88618 10.5188 7.99993 9.11001C8.07368 8.19501 8.62743 7.30126 8.90868 7.30126C8.9527 7.30328 8.99613 7.31214 9.03743 7.32751C9.35368 7.43751 9.68868 7.89626 10.0124 8.34001C10.1399 8.51501 10.2649 8.68626 10.3924 8.84501C12.0274 10.8875 13.3874 13.1713 14.5999 15.2613C14.8162 15.7013 15.0162 16.0475 15.2362 16.3638C15.4161 16.6334 15.6939 16.8224 16.0107 16.8907C16.3276 16.9591 16.6586 16.9015 16.9337 16.73C17.5062 16.3738 17.6924 15.625 17.3562 15.0413L16.8437 14.1588C16.756 13.9784 16.6702 13.7971 16.5862 13.615L16.4024 13.22C15.8836 12.127 15.3865 11.0239 14.9112 9.91126L14.5674 9.11126C14.1412 8.12626 13.7387 7.19501 13.4037 6.23251L13.2674 5.85251C12.9624 5.00876 12.7624 4.38376 12.9887 4.02876C13.1287 3.80626 13.4137 3.64501 13.8287 3.67501C14.4349 3.74751 14.8837 4.47501 15.4487 5.49501C15.5649 5.70376 15.6774 5.90751 15.7899 6.09626C16.4662 7.23376 17.1124 8.43001 17.7374 9.58626L18.1862 10.4175C18.4024 10.8163 18.6112 11.23 18.8199 11.645C19.3624 12.7175 19.9224 13.8275 20.6637 14.8213C20.8368 15.0502 21.0833 15.2127 21.3619 15.2816C21.6405 15.3505 21.9344 15.3217 22.1943 15.1999C22.4541 15.078 22.6643 14.8707 22.7896 14.6124C22.9148 14.3542 22.9476 14.0608 22.8824 13.7813C22.8278 13.5509 22.7615 13.3236 22.6837 13.1L22.4362 12.4125C22.2911 11.9995 22.1495 11.5853 22.0112 11.17C21.7614 10.4237 21.5272 9.67231 21.3087 8.91626C20.8949 7.47376 20.6387 6.36001 20.4762 5.30501C20.3549 4.50376 20.2024 3.50751 20.4162 2.75251C20.4587 2.59751 20.5187 2.51501 20.5062 2.50001C20.6249 2.52375 20.7368 2.57372 20.8337 2.64626C21.1487 2.87001 21.4324 3.17501 21.6312 3.50876C21.9262 4.00001 22.1749 4.54501 22.4387 5.12001C22.6174 5.51001 22.7949 5.89751 22.9862 6.27376C23.2324 6.75376 23.7524 8.23626 24.1699 9.42751C24.5887 10.6213 24.9512 11.6525 25.1912 12.175C25.3226 12.4792 25.5695 12.7187 25.8776 12.8408C26.1856 12.9629 26.5295 12.9577 26.8337 12.8263C27.1378 12.6948 27.3773 12.4479 27.4995 12.1399C27.6216 11.8319 27.6164 11.4879 27.4849 11.1838C27.3324 10.6813 26.8549 7.72376 26.8437 7.27751C26.8862 6.77751 26.9849 6.27376 27.1462 5.73751C27.1824 5.61751 27.5212 4.56751 28.2412 4.56751C29.2262 4.57876 29.6074 5.69626 30.0899 8.19626C30.2199 8.87126 30.3412 9.50751 30.5137 10.095C31.3529 12.9498 32.3388 15.7593 33.4674 18.5125C33.7549 19.2175 34.0624 19.8975 34.3624 20.5675C35.5124 23.1275 36.5049 25.3375 36.1899 28.0888Z" fill="#0E9944"/>
<path opacity="0.5" d="M31.5549 23.7087C31.4152 23.7978 31.3166 23.9387 31.2808 24.1004C31.2449 24.2621 31.2747 24.4315 31.3637 24.5712C32.4537 26.285 32.2974 28.505 30.9737 30.095C30.8764 30.223 30.8323 30.3837 30.8504 30.5434C30.8686 30.7032 30.9476 30.8498 31.071 30.9528C31.1945 31.0558 31.3529 31.1073 31.5133 31.0965C31.6737 31.0858 31.8238 31.0136 31.9324 30.895C33.6062 28.8862 33.7999 26.075 32.4174 23.9C32.3281 23.7606 32.1873 23.6622 32.0256 23.6264C31.864 23.5905 31.6948 23.6201 31.5549 23.7087Z" fill="#0E9944"/>
</svg>
