<svg width="50" height="50" viewBox="0 0 50 50" fill="none" xmlns="http://www.w3.org/2000/svg">
<path d="M41.5374 16.6667H43.7499C44.855 16.6667 45.9148 17.1056 46.6962 17.8871C47.4776 18.6685 47.9166 19.7283 47.9166 20.8333V29.1667C47.9166 30.2717 47.4776 31.3315 46.6962 32.1129C45.9148 32.8943 44.855 33.3333 43.7499 33.3333H41.5374C41.0295 37.361 39.0692 41.065 36.0244 43.75C32.9796 46.435 29.0595 47.9166 24.9999 47.9167V43.75C28.3151 43.75 31.4945 42.433 33.8388 40.0888C36.183 37.7446 37.4999 34.5652 37.4999 31.25V18.75C37.4999 15.4348 36.183 12.2554 33.8388 9.91116C31.4945 7.56696 28.3151 6.25 24.9999 6.25C21.6847 6.25 18.5053 7.56696 16.1611 9.91116C13.8169 12.2554 12.4999 15.4348 12.4999 18.75V33.3333H6.24992C5.14485 33.3333 4.08504 32.8943 3.30364 32.1129C2.52224 31.3315 2.08325 30.2717 2.08325 29.1667V20.8333C2.08325 19.7283 2.52224 18.6685 3.30364 17.8871C4.08504 17.1056 5.14485 16.6667 6.24992 16.6667H8.46242C8.97082 12.6394 10.9313 8.93598 13.9761 6.2514C17.0209 3.56683 20.9407 2.08557 24.9999 2.08557C29.0592 2.08557 32.9789 3.56683 36.0237 6.2514C39.0685 8.93598 41.029 12.6394 41.5374 16.6667ZM6.24992 20.8333V29.1667H8.33325V20.8333H6.24992ZM41.6666 20.8333V29.1667H43.7499V20.8333H41.6666ZM16.1666 32.8854L18.3749 29.3521C20.3605 30.5959 22.6569 31.2538 24.9999 31.25C27.3429 31.2538 29.6393 30.5959 31.6249 29.3521L33.8333 32.8854C31.1859 34.544 28.124 35.4215 24.9999 35.4167C21.8759 35.4215 18.814 34.544 16.1666 32.8854Z" fill="#0E9944"/>
</svg>
