<svg width="24" height="24" viewBox="0 0 24 24" fill="none" xmlns="http://www.w3.org/2000/svg">
<path d="M7.04996 14.121L4.92996 16.243L7.75796 19.071L19.071 7.75701L16.243 4.93001L14.12 7.05001L15.535 8.46401L14.12 9.88001L12.706 8.46501L11.292 9.88001L12.706 11.294L11.292 12.708L9.87796 11.294L8.46296 12.708L9.87796 14.122L8.46296 15.537L7.04996 14.12V14.121ZM16.95 2.80801L21.192 7.05001C21.3794 7.23754 21.4847 7.49184 21.4847 7.75701C21.4847 8.02217 21.3794 8.27648 21.192 8.46401L8.46396 21.192C8.27643 21.3795 8.02212 21.4848 7.75696 21.4848C7.49179 21.4848 7.23749 21.3795 7.04996 21.192L2.80796 16.95C2.62049 16.7625 2.51517 16.5082 2.51517 16.243C2.51517 15.9778 2.62049 15.7235 2.80796 15.536L15.536 2.80801C15.7235 2.62054 15.9778 2.51522 16.243 2.51522C16.5081 2.51522 16.7624 2.62054 16.95 2.80801ZM14.12 18.363L15.535 16.949L17.777 19.192H19.191V17.778L16.949 15.535L18.363 14.121L21 16.757V21H16.758L14.121 18.363H14.12ZM5.63596 9.87801L2.80696 7.05001C2.71398 6.95713 2.64022 6.84685 2.5899 6.72545C2.53957 6.60405 2.51367 6.47392 2.51367 6.34251C2.51367 6.21109 2.53957 6.08097 2.5899 5.95957C2.64022 5.83817 2.71398 5.72788 2.80696 5.63501L5.63596 2.80701C5.82349 2.61954 6.07779 2.51422 6.34296 2.51422C6.60812 2.51422 6.86243 2.61954 7.04996 2.80701L9.87996 5.63501L8.46396 7.05001L6.34296 4.92801L4.92896 6.34301L7.04996 8.46301L5.63596 9.87801Z" fill="#C90A0A"/>
</svg>
