<svg width="40" height="40" viewBox="0 0 40 40" fill="none" xmlns="http://www.w3.org/2000/svg">
<path d="M19.9999 36.6666C10.7949 36.6666 3.33325 29.205 3.33325 20C3.33325 10.795 10.7949 3.33331 19.9999 3.33331C29.2049 3.33331 36.6666 10.795 36.6666 20C36.6666 29.205 29.2049 36.6666 19.9999 36.6666ZM19.9999 33.3333C23.5361 33.3333 26.9275 31.9286 29.428 29.4281C31.9285 26.9276 33.3333 23.5362 33.3333 20C33.3333 16.4638 31.9285 13.0724 29.428 10.5719C26.9275 8.0714 23.5361 6.66665 19.9999 6.66665C16.4637 6.66665 13.0723 8.0714 10.5718 10.5719C8.07134 13.0724 6.66659 16.4638 6.66659 20C6.66659 23.5362 8.07134 26.9276 10.5718 29.4281C13.0723 31.9286 16.4637 33.3333 19.9999 33.3333ZM18.3333 25H21.6666V28.3333H18.3333V25ZM21.6666 22.2583V23.3333H18.3333V20.8333C18.3333 20.3913 18.5088 19.9674 18.8214 19.6548C19.134 19.3422 19.5579 19.1666 19.9999 19.1666C20.4734 19.1666 20.9371 19.0321 21.3371 18.7789C21.7372 18.5256 22.057 18.1639 22.2595 17.736C22.462 17.308 22.5389 16.8313 22.4811 16.3614C22.4232 15.8915 22.2332 15.4476 21.933 15.0815C21.6328 14.7154 21.2348 14.442 20.7853 14.2933C20.3358 14.1445 19.8533 14.1264 19.394 14.2412C18.9346 14.3559 18.5173 14.5987 18.1905 14.9413C17.8638 15.284 17.6411 15.7124 17.5483 16.1766L14.2783 15.5216C14.481 14.5085 14.9491 13.5673 15.6348 12.7943C16.3205 12.0213 17.1991 11.4443 18.1809 11.1222C19.1627 10.8001 20.2124 10.7445 21.2227 10.961C22.2331 11.1776 23.1678 11.6585 23.9313 12.3547C24.6948 13.0509 25.2598 13.9373 25.5684 14.9234C25.8771 15.9095 25.9184 16.9599 25.688 17.9672C25.4577 18.9744 24.964 19.9025 24.2575 20.6564C23.5509 21.4104 22.6568 21.9632 21.6666 22.2583Z" fill="#E96220"/>
</svg>
