<svg width="30" height="30" viewBox="0 0 30 30" fill="none" xmlns="http://www.w3.org/2000/svg">
<path d="M6.25 5.755V17.2362C6.25001 18.0593 6.45322 18.8697 6.84158 19.5954C7.22994 20.3211 7.79144 20.9396 8.47625 21.3963L15 25.7463L21.5238 21.3963C22.2084 20.9398 22.7698 20.3214 23.1581 19.5959C23.5465 18.8705 23.7498 18.0604 23.75 17.2375V5.755L15 3.8125L6.25 5.755ZM4.72875 3.5325L15 1.25L25.2712 3.5325C25.5488 3.5942 25.7971 3.74871 25.975 3.97051C26.153 4.19231 26.25 4.46815 26.25 4.7525V17.2362C26.2499 18.4709 25.945 19.6865 25.3624 20.775C24.7797 21.8636 23.9373 22.7914 22.91 23.4762L15 28.75L7.09 23.4762C6.06284 22.7915 5.22058 21.8639 4.63794 20.7756C4.05529 19.6873 3.7503 18.472 3.75 17.2375V4.7525C3.75005 4.46815 3.84705 4.19231 4.02499 3.97051C4.20293 3.74871 4.45117 3.5942 4.72875 3.5325ZM15 16.875L11.3263 18.8062L12.0275 14.7162L9.05625 11.8188L13.1637 11.2213L15 7.5L16.8375 11.2213L20.9437 11.8188L17.9725 14.7162L18.6725 18.8062L15 16.875Z" fill="#E96220"/>
</svg>
