<svg width="40" height="40" viewBox="0 0 40 40" fill="none" xmlns="http://www.w3.org/2000/svg">
<path d="M29.9999 28.3333V36.6667H26.6666V28.3333C26.6666 20.915 31.0733 14.525 37.4116 11.64L38.7916 14.6733C36.1694 15.866 33.9461 17.7882 32.3871 20.2105C30.8281 22.6328 29.9994 25.4527 29.9999 28.3333ZM13.3333 28.3333V36.6667H9.99992V28.3333C10.0002 25.453 9.1713 22.6335 7.61231 20.2115C6.05333 17.7895 3.83013 15.8675 1.20825 14.675L2.58825 11.64C5.79273 13.0975 8.50993 15.4466 10.4153 18.4067C12.3207 21.3669 13.3336 24.813 13.3333 28.3333ZM19.9999 20C17.7898 20 15.6702 19.122 14.1074 17.5592C12.5446 15.9964 11.6666 13.8768 11.6666 11.6667C11.6666 9.45652 12.5446 7.33691 14.1074 5.77411C15.6702 4.2113 17.7898 3.33333 19.9999 3.33333C22.2101 3.33333 24.3297 4.2113 25.8925 5.77411C27.4553 7.33691 28.3333 9.45652 28.3333 11.6667C28.3333 13.8768 27.4553 15.9964 25.8925 17.5592C24.3297 19.122 22.2101 20 19.9999 20ZM19.9999 16.6667C20.6565 16.6667 21.3067 16.5373 21.9133 16.2861C22.52 16.0348 23.0712 15.6665 23.5355 15.2022C23.9997 14.7379 24.368 14.1867 24.6193 13.5801C24.8706 12.9735 24.9999 12.3233 24.9999 11.6667C24.9999 11.0101 24.8706 10.3599 24.6193 9.75324C24.368 9.14662 23.9997 8.59542 23.5355 8.13113C23.0712 7.66684 22.52 7.29854 21.9133 7.04726C21.3067 6.79599 20.6565 6.66666 19.9999 6.66666C18.6738 6.66666 17.4021 7.19345 16.4644 8.13113C15.5267 9.06881 14.9999 10.3406 14.9999 11.6667C14.9999 12.9927 15.5267 14.2645 16.4644 15.2022C17.4021 16.1399 18.6738 16.6667 19.9999 16.6667Z" fill="#EF5DA8"/>
</svg>
