<svg width="50" height="50" viewBox="0 0 50 50" fill="none" xmlns="http://www.w3.org/2000/svg">
<path d="M4.16675 45.8333C4.16675 41.413 5.9227 37.1738 9.0483 34.0482C12.1739 30.9226 16.4131 29.1666 20.8334 29.1666C25.2537 29.1666 29.4929 30.9226 32.6185 34.0482C35.7441 37.1738 37.5001 41.413 37.5001 45.8333H33.3334C33.3334 42.5181 32.0165 39.3387 29.6722 36.9945C27.328 34.6503 24.1486 33.3333 20.8334 33.3333C17.5182 33.3333 14.3388 34.6503 11.9946 36.9945C9.65038 39.3387 8.33341 42.5181 8.33341 45.8333H4.16675ZM20.8334 27.0833C13.9272 27.0833 8.33341 21.4896 8.33341 14.5833C8.33341 7.67706 13.9272 2.08331 20.8334 2.08331C27.7397 2.08331 33.3334 7.67706 33.3334 14.5833C33.3334 21.4896 27.7397 27.0833 20.8334 27.0833ZM20.8334 22.9166C25.4376 22.9166 29.1667 19.1875 29.1667 14.5833C29.1667 9.97915 25.4376 6.24998 20.8334 6.24998C16.2292 6.24998 12.5001 9.97915 12.5001 14.5833C12.5001 19.1875 16.2292 22.9166 20.8334 22.9166ZM38.0917 30.6312C41.0195 31.9498 43.5042 34.0859 45.2471 36.7827C46.9901 39.4795 47.9171 42.6223 47.9167 45.8333H43.7501C43.7506 43.4249 43.0554 41.0677 41.7482 39.045C40.441 37.0222 38.5773 35.4201 36.3813 34.4312L38.0897 30.6312H38.0917ZM36.6584 7.1104C38.7574 7.9756 40.5521 9.44485 41.8147 11.3317C43.0773 13.2186 43.7509 15.438 43.7501 17.7083C43.751 20.5673 42.6828 23.3234 40.7554 25.435C38.828 27.5467 36.1806 28.8614 33.3334 29.1208V24.9271C34.877 24.706 36.3091 23.9959 37.4195 22.9009C38.5298 21.806 39.2599 20.384 39.5025 18.8436C39.7451 17.3032 39.4875 15.7256 38.7675 14.3424C38.0476 12.9592 36.9031 11.8432 35.5022 11.1583L36.6584 7.1104Z" fill="#245EE6"/>
</svg>
