<svg width="20" height="19" viewBox="0 0 20 19" fill="none" xmlns="http://www.w3.org/2000/svg">
<g clip-path="url(#clip0_545_205)">
<path d="M14.1666 6.95993L18.5108 4.1987C18.5733 4.15895 18.6466 4.13553 18.7227 4.13099C18.7988 4.12646 18.8748 4.14098 18.9425 4.17297C19.0101 4.20497 19.0668 4.25321 19.1063 4.31244C19.1459 4.37167 19.1667 4.43961 19.1666 4.50887V13.6474C19.1667 13.7167 19.1459 13.7846 19.1063 13.8438C19.0668 13.9031 19.0101 13.9513 18.9425 13.9833C18.8748 14.0153 18.7988 14.0298 18.7227 14.0253C18.6466 14.0207 18.5733 13.9973 18.5108 13.9576L14.1666 11.1963V14.3736C14.1666 14.5743 14.0788 14.7667 13.9226 14.9086C13.7663 15.0504 13.5543 15.1301 13.3333 15.1301H1.66665C1.44563 15.1301 1.23367 15.0504 1.07739 14.9086C0.92111 14.7667 0.833313 14.5743 0.833313 14.3736V3.78262C0.833313 3.58199 0.92111 3.38957 1.07739 3.2477C1.23367 3.10583 1.44563 3.02612 1.66665 3.02612H13.3333C13.5543 3.02612 13.7663 3.10583 13.9226 3.2477C14.0788 3.38957 14.1666 3.58199 14.1666 3.78262V6.95993ZM14.1666 9.34972L17.5 11.4679V6.68759L14.1666 8.80579V9.34896V9.34972ZM2.49998 4.53913V13.6171H12.5V4.53913H2.49998ZM4.16665 6.05213H5.83331V7.56513H4.16665V6.05213Z" fill="white"/>
</g>
<defs>
<clipPath id="clip0_545_205">
<rect width="20" height="18.156" fill="white"/>
</clipPath>
</defs>
</svg>
