<svg width="50" height="50" viewBox="0 0 50 50" fill="none" xmlns="http://www.w3.org/2000/svg">
<path d="M27.0834 37.5V41.6667H35.4167V45.8333H14.5834V41.6667H22.9167V37.5H6.25008C5.69755 37.5 5.16764 37.2805 4.77694 36.8898C4.38624 36.4991 4.16675 35.9692 4.16675 35.4167V8.33333C4.16675 7.7808 4.38624 7.25089 4.77694 6.86019C5.16764 6.46949 5.69755 6.25 6.25008 6.25H43.7501C44.3026 6.25 44.8325 6.46949 45.2232 6.86019C45.6139 7.25089 45.8334 7.7808 45.8334 8.33333V35.4167C45.8334 35.9692 45.6139 36.4991 45.2232 36.8898C44.8325 37.2805 44.3026 37.5 43.7501 37.5H27.0834ZM8.33342 10.4167V33.3333H41.6668V10.4167H8.33342ZM20.8334 15.625L31.2501 21.875L20.8334 28.125V15.625Z" fill="#E96220"/>
</svg>
